<svg xmlns="http://www.w3.org/2000/svg" version="1.0" width="200.000000pt" height="200.000000pt" viewBox="0 0 200.000000 200.000000" preserveAspectRatio="xMidYMid meet"><g transform="translate(0.000000,200.000000) scale(0.100000,-0.100000)" fill="%23000000" stroke="none"><path d="M182 1883 c-18 -9 -42 -29 -54 -46 -23 -33 -35 -116 -23 -164 4 -18 79 -101 208 -231 l202 -202 20 42 c12 24 29 54 38 68 l16 26 -174 174 c-96 96 -175 181 -175 188 0 7 7 15 16 19 11 4 68 -47 199 -177 l183 -183 -28 -36 c-70 -87 -90 -204 -54 -313 15 -47 39 -76 217 -256 219 -220 251 -243 352 -250 l60 -5 -66 71 c-40 42 -72 86 -79 109 -9 28 -53 80 -170 198 -87 88 -163 170 -169 182 -24 47 -12 122 27 166 15 16 17 16 39 -5 13 -12 23 -27 23 -35 0 -16 -22 -17 -38 -1 -35 35 -53 -84 -19 -135 35 -54 131 -26 184 52 25 37 31 109 12 158 -12 32 -540 567 -581 589 -36 19 -125 17 -166 -3z"/><path d="M1185 1808 c-3 -8 -4 -63 -3 -124 l3 -109 30 0 30 0 0 120 0 120 -28 3 c-16 2 -29 -2 -32 -10z"/><path d="M897 1734 c-16 -16 -5 -50 41 -130 47 -84 65 -100 96 -88 27 10 18 45 -33 134 -37 66 -54 86 -73 88 -13 2 -27 0 -31 -4z"/><path d="M1473 1728 c-32 -41 -93 -160 -93 -183 0 -29 24 -43 49 -28 25 16 112 174 109 197 -4 25 -49 34 -65 14z"/><path d="M1616 1482 c-84 -50 -103 -69 -93 -96 11 -27 52 -18 139 32 74 43 83 51 83 78 0 46 -36 42 -129 -14z"/><path d="M840 1444 c0 -4 25 -33 55 -66 30 -32 58 -73 63 -91 7 -28 19 -37 96 -75 86 -41 89 -42 108 -25 27 24 48 67 48 97 0 21 -14 31 -106 75 -135 64 -264 106 -264 85z"/><path d="M1580 1224 c-10 -11 -11 -20 -3 -32 9 -14 29 -17 129 -17 l119 0 0 30 0 30 -116 3 c-97 2 -118 0 -129 -14z"/><path d="M1229 1177 c-26 -14 -45 -32 -47 -44 -2 -11 15 -53 37 -94 44 -83 81 -185 81 -225 0 -15 -10 -42 -21 -61 l-21 -34 -24 22 c-13 12 -24 28 -24 36 0 15 26 18 35 3 25 -41 34 56 11 120 -10 29 -18 36 -44 38 -44 4 -105 -32 -131 -78 -25 -45 -28 -127 -7 -168 25 -47 568 -580 599 -588 48 -11 131 1 164 24 17 12 38 37 47 56 18 39 21 127 5 159 -12 24 -399 417 -411 417 -3 0 -9 -13 -13 -30 -4 -16 -18 -46 -32 -66 l-25 -37 178 -178 c126 -126 175 -182 171 -193 -4 -9 -12 -16 -19 -16 -7 0 -96 83 -198 185 l-184 184 26 28 c97 101 89 242 -27 473 -51 101 -56 104 -126 67z"/><path d="M1527 1033 c-4 -3 -7 -16 -7 -29 0 -18 18 -33 90 -74 100 -57 133 -62 138 -18 3 23 -6 31 -83 77 -81 47 -122 61 -138 44z"/></g></svg>