<svg xmlns="http://www.w3.org/2000/svg" xmlns:xlink="http://www.w3.org/1999/xlink" viewBox="0 0 40 40" version="1.1" width="40px" height="40px"><g id="surface1"><path style=" fill:%23FFFFFF;" d="M 6.5 37.5 L 6.5 2.5 L 24.792969 2.5 L 33.5 11.207031 L 33.5 37.5 Z "/><path style="fill: %23011EFF;" d="M 24.585938 3 L 33 11.414063 L 33 37 L 7 37 L 7 3 L 24.585938 3 M 25 2 L 6 2 L 6 38 L 34 38 L 34 11 Z "/><path style="fill: rgba(1, 30, 255, 0.25);" d="M 24.5 11.5 L 24.5 2.5 L 24.792969 2.5 L 33.5 11.207031 L 33.5 11.5 Z "/><path style="fill: %23011EFF;" d="M 25 3.414063 L 32.585938 11 L 25 11 L 25 3.414063 M 25 2 L 24 2 L 24 12 L 34 12 L 34 11 Z "/><path style="fill: %23011EFF;" d="M 27.5 17 L 12.5 17 C 12.222656 17 12 16.777344 12 16.5 C 12 16.222656 12.222656 16 12.5 16 L 27.5 16 C 27.777344 16 28 16.222656 28 16.5 C 28 16.777344 27.777344 17 27.5 17 Z "/><path style="fill: %23011EFF;" d="M 23.5 20 L 12.5 20 C 12.222656 20 12 19.777344 12 19.5 C 12 19.222656 12.222656 19 12.5 19 L 23.5 19 C 23.777344 19 24 19.222656 24 19.5 C 24 19.777344 23.777344 20 23.5 20 Z "/><path style="fill: %23011EFF;" d="M 27.5 23 L 12.5 23 C 12.222656 23 12 22.777344 12 22.5 C 12 22.222656 12.222656 22 12.5 22 L 27.5 22 C 27.777344 22 28 22.222656 28 22.5 C 28 22.777344 27.777344 23 27.5 23 Z "/><path style="fill: %23011EFF;" d="M 23.5 26 L 12.5 26 C 12.222656 26 12 25.777344 12 25.5 C 12 25.222656 12.222656 25 12.5 25 L 23.5 25 C 23.777344 25 24 25.222656 24 25.5 C 24 25.777344 23.777344 26 23.5 26 Z "/><path style="fill: %23011EFF;" d="M 27.5 29 L 12.5 29 C 12.222656 29 12 28.777344 12 28.5 C 12 28.222656 12.222656 28 12.5 28 L 27.5 28 C 27.777344 28 28 28.222656 28 28.5 C 28 28.777344 27.777344 29 27.5 29 Z "/></g></svg>