<?xml version="1.0" encoding="UTF-8"?> <!-- Generator: Adobe Illustrator 22.0.1, SVG Export Plug-In . SVG Version: 6.00 Build 0) --> <svg xmlns="http://www.w3.org/2000/svg" xmlns:xlink="http://www.w3.org/1999/xlink" id="Refinitiv" x="0px" y="0px" width="178.9px" height="72px" viewBox="0 0 178.9 72" style="enable-background:new 0 0 178.9 72;" xml:space="preserve"> <style type="text/css"> .st0{fill:#FFFFFF;} </style> <g> <polygon class="st0" points="154.2,34 174.1,54 179.9,54 163.9,38 177,38 177,34 "></polygon> <polygon class="st0" points="141,18 141,54 145,54 145,22 177,22 177,18 "></polygon> </g> <path class="st0" d="M10.9,45h3.6l-4-8.1h0.1c2.1-0.6,3.3-2.3,3.2-4.6c0-3.4-2.1-5.3-5.7-5.3H1v18h3.3v-7.4h3.2L10.9,45z M4.3,35 v-5.4h3.3c2,0,3.1,0.9,3.1,2.7c0,1.9-1.1,2.7-3.7,2.7H4.3z M27.7,37v-2.7h-6.2v-4.6h8.6V27H18.2v18h12.1v-2.7h-8.9V37H27.7z M44.1,34.3H38v-4.6h8.1V27H34.8v18H38v-8h6.1V34.3z M50.1,27v18h3.3v-1.1V27H50.1z M78.2,27v18h3.3v-1.3V27H78.2z M98.3,27H85.5 v2.7h4.8V45h3.3V29.7h4.8V27H98.3z M102.2,27v18h3.3v-1.3V27H102.2z M69.7,27v12.8l0,0L62.3,27h-3.5v18h3V31.7l0,0l4,7l3.6,6.3h3.2 V27H69.7z M120.8,27l-4.2,14.6l0,0L112.4,27h-3.2l5.6,18h3.7l5.6-18H120.8z"></path> </svg> 