<svg xmlns="http://www.w3.org/2000/svg" version="1.1" preserveAspectRatio="none" viewBox="0 0 26 26"><g><rect x="0" y="0" width="26" height="26" stroke="transparent" stroke-width="0" fill="transparent"></rect><path fill="#666666" stroke-width="0" d="M13.23 24.605c0-.152-.074-.23-.23-.23-.57 0-1.063-.207-1.473-.617-.41-.41-.617-.902-.617-1.473 0-.152-.078-.23-.23-.23-.156 0-.234.078-.234.23 0 .707.25 1.309.75 1.809.496.496 1.098.746 1.805.746.156 0 .23-.078.23-.234zm-9.66-4.176h18.859c-2.57-2.902-3.859-6.926-3.859-12.074 0-.492-.113-1-.348-1.523-.23-.52-.566-1.02-1-1.492-.438-.473-1.023-.863-1.762-1.168-.742-.305-1.563-.457-2.461-.457-.898 0-1.719.152-2.461.457-.738.305-1.324.695-1.762 1.168-.434.473-.77.973-1 1.492-.234.523-.348 1.031-.348 1.523 0 5.148-1.289 9.172-3.859 12.074zm21.5 0c0 .5-.184.938-.551 1.305-.367.367-.801.551-1.305.551h-6.5c0 1.027-.363 1.902-1.09 2.625-.723.727-1.602 1.09-2.625 1.09s-1.902-.363-2.625-1.09c-.727-.723-1.09-1.598-1.09-2.625h-6.5c-.504 0-.938-.184-1.305-.551-.367-.367-.551-.805-.551-1.305.484-.406.922-.832 1.32-1.277.395-.445.805-1.023 1.23-1.734.426-.711.789-1.477 1.082-2.301.297-.82.539-1.816.727-2.988.188-1.168.281-2.426.281-3.773 0-1.469.566-2.836 1.699-4.098s2.617-2.027 4.453-2.301c-.078-.184-.117-.371-.117-.562 0-.387.137-.719.406-.988.273-.27.602-.406.988-.406.387 0 .715.137.988.406.27.27.406.602.406.988 0 .191-.039.379-.117.563 1.836.273 3.32 1.039 4.453 2.301 1.133 1.262 1.699 2.629 1.699 4.098 0 1.348.094 2.605.281 3.773.188 1.172.43 2.168.727 2.988.293.824.656 1.59 1.082 2.301.426.711.836 1.289 1.23 1.734.398.445.836.871 1.32 1.277z" style="opacity: 1;"></path></g></svg>