<svg xmlns="http://www.w3.org/2000/svg" version="1.1" preserveAspectRatio="none" viewBox="0 0 26 26"><g><rect x="0" y="0" width="26" height="26" stroke="transparent" stroke-width="0" fill="transparent"></rect><path stroke-width="0" d="M20.238 10.68c0 .125-.047.234-.145.332l-6.762 6.762c-.094.098-.207.145-.332.145-.125 0-.238-.047-.332-.145l-6.762-6.762c-.098-.098-.145-.207-.145-.332 0-.125.047-.238.145-.336l.723-.723c.098-.098.211-.148.336-.148.125 0 .238.051.332.148l5.703 5.699 5.703-5.699c.094-.098.207-.148.332-.148.125 0 .238.051.336.148l.723.723c.098.098.145.211.145.336z" style="stroke: rgb(14, 123, 173); fill: rgb(14, 123, 173); opacity: 1;"></path></g></svg>
