<svg xmlns="http://www.w3.org/2000/svg" viewBox="0 0 111.75 126.81"><defs><style>.cls-1{fill:#e1e1e1;}.cls-2{fill:#7fcbdf;}.cls-2,.cls-3{stroke:#076986;stroke-miterlimit:10;stroke-width:1.4px;}.cls-3{fill:#fff;}.cls-4{fill:#68a0ae;}</style></defs><g id="Layer_2" data-name="Layer 2"><g id="Layer_1-2" data-name="Layer 1"><path class="cls-1" d="M15.07 109.33c-6.63-5.92 80.39-15.47 80.39-15.47 39.37 27.28 5.38 49.97-80.39 15.47z"/><path class="cls-2" d="M.92 113c-.19 2.49 78.5 5.94 78.5 5.94A5.13 5.13 0 0 0 83 118c6.86-4 23.53-25.07 23.51-28.53-1.9-2.38-78.12-5.35-81.91-3C21.48 88.29-1.79 113.09.92 113z"/><path class="cls-2" d="M22.65 99.54c.81-2.77 1.8-5.49 2.44-8.3 6.54-28.46 15.47-58.13 26.1-88.65A2.2 2.2 0 0 1 52 1.46a4.21 4.21 0 0 1 4.92.08 1.65 1.65 0 0 1 .65.9c11.54 34.39 21.52 66.62 28.58 94.74a1.9 1.9 0 0 1-.9 2.22c-14.94 8-45.07 9.49-61.51 2.07a1.55 1.55 0 0 1-1.09-1.93z"/><path class="cls-3" d="M82.57 90.49c-8 3.75-46.95 4.89-55.86.74a1.79 1.79 0 0 1-1-2.13c1-3.3 2.77-12.13 2.8-12 10.29 4.73 53.48 2 52-1L84 88.76c.23.84-.63 1.36-1.43 1.73zM32.63 61.59a351.82 351.82 0 0 0 43.72 0l-4.61-15.31c-11.12.45-24-.14-34.51-.67zM62 15.72a42.4 42.4 0 0 0-15.34.22c-2.16 7.34-4 12-5 15.37 7.8-1.08 17.3-1.72 25.18-.7z"/><path class="cls-4" d="M22.49 102c1.47.64 4.09 6.82 12.38 13.68.88.73 45.21 3.14 46.09 2.4 5.73-2.43 16.3-15.38 19.26-19.72-1.8-2-12.09-4.93-14.5-6.28-.31-.66.76 3.24 1.31 6.43.07.41-.35.75-.75.87-5.15 5.91-44.71 13.25-63.71 2.54-.07-.08-.15.02-.08.08z"/></g></g></svg>