<svg xmlns="http://www.w3.org/2000/svg" version="1.1" preserveAspectRatio="none" viewBox="0 0 26 26"><g><title></title><rect x="0" y="0" width="26" height="26" stroke="transparent" stroke-width="0" fill="transparent"></rect><path stroke-width="0" d="M16.988 13.93c0 .125-.047.234-.145.332l-6.762 6.762c-.094.098-.207.145-.332.145-.125 0-.238-.047-.332-.145l-.727-.727c-.098-.094-.145-.207-.145-.332 0-.125.047-.238.145-.336l5.703-5.699-5.703-5.703c-.098-.098-.145-.207-.145-.332 0-.129.047-.238.145-.336l.727-.727c.094-.094.207-.145.332-.145.125 0 .238.051.332.145l6.762 6.762c.098.098.145.211.145.336z" style="stroke: rgb(170, 170, 170); fill: rgb(170, 170, 170); opacity: 1;"></path></g></svg>