<svg xmlns="http://www.w3.org/2000/svg" viewBox="0 0 81.43 75.24"><defs><style>.cls-1{fill:#0099c4;fill-rule:evenodd;}.cls-2{fill:none;stroke:#0099c4;stroke-linecap:round;stroke-linejoin:round;stroke-width:3px;}</style></defs><title>Home2</title><g id="Layer_2" data-name="Layer 2"><g id="icons"><path class="cls-1" d="M43.43,15.12a4.28,4.28,0,0,0-5.81.05L14.45,37.52a10.82,10.82,0,0,0-2.88,6.78V71.24a4,4,0,0,0,4,4H37.3a4,4,0,0,0,4-4V61.67a4,4,0,0,1,4-4h8.46a4,4,0,0,1,4,4v9.57a4,4,0,0,0,4,4h4.72a4,4,0,0,0,4-4V44.3a10.54,10.54,0,0,0-2.93-6.73Z"/><polyline class="cls-2" points="79.93 38.73 41.25 1.5 41.25 1.5 1.5 38.73"/></g></g></svg>