<svg xmlns="http://www.w3.org/2000/svg" version="1.1" preserveAspectRatio="none" viewBox="0 0 26 26"><g><title></title><rect x="0" y="0" width="26" height="26" stroke="transparent" stroke-width="0" fill="transparent"></rect><path fill="#666666" stroke-width="0" d="M21.355 14.395v6.961c0 .254-.09.473-.273.656-.184.184-.402.273-.652.273h-5.574v-5.57h-3.711v5.57h-5.574c-.25 0-.469-.09-.652-.273-.184-.184-.273-.402-.273-.656v-6.961l-.008-.047-.008-.043 8.344-6.875 8.34 6.875.016.09zm3.238-1.004l-.902 1.074c-.074.086-.176.141-.305.16h-.043c-.125 0-.227-.035-.305-.102l-10.039-8.371-10.039 8.371c-.117.078-.234.109-.348.102-.129-.02-.23-.074-.305-.16l-.902-1.074c-.078-.094-.109-.211-.102-.34.012-.129.063-.234.16-.313l10.434-8.691c.309-.25.676-.375 1.102-.375.426 0 .793.125 1.102.375l3.543 2.961v-2.828c0-.137.043-.246.129-.336.086-.086.199-.129.332-.129h2.789c.133 0 .246.043.332.129.086.09.129.199.129.336v5.918l3.18 2.641c.098.078.148.184.16.313.008.129-.023.246-.102.34z" style="opacity: 1;"></path></g></svg>