<svg xmlns="http://www.w3.org/2000/svg" viewBox="0 0 66.64 66.64"><defs><style>.dc212cd3-1109-406a-a3d2-63e37bbd607d{fill:#86cfe3;}.\38 06b67ef-646b-4836-b950-d5f37e2a6f52{fill:#fff;}</style></defs><title>info</title><g id="87192474-2b96-4a0d-914a-4989e32c6c1b" data-name="Layer 2"><g id="400f89f7-2dfe-48d0-ae96-7cca36e759aa" data-name="icons"><circle class="dc212cd3-1109-406a-a3d2-63e37bbd607d" cx="33.32" cy="33.32" r="33.32"/><path class="806b67ef-646b-4836-b950-d5f37e2a6f52" d="M37.72,25.1V48.45q0,3.12.72,4a3.93,3.93,0,0,0,2.84,1v1.13H25.37V53.43a3.84,3.84,0,0,0,2.9-1.14q.63-.72.63-3.84V31.25q0-3.12-.72-4a3.89,3.89,0,0,0-2.8-1V25.1ZM33.31,10.83a4.87,4.87,0,0,1,4.88,4.88,4.65,4.65,0,0,1-1.43,3.44,4.74,4.74,0,0,1-3.45,1.42,4.84,4.84,0,0,1-4.85-4.85,4.73,4.73,0,0,1,1.42-3.45A4.65,4.65,0,0,1,33.31,10.83Z"/></g></g></svg>