<svg xmlns="http://www.w3.org/2000/svg" viewBox="0 0 66.64 66.64"><defs><style>circle{fill:#86cfe3;}path{fill:#fff;}</style></defs><circle cx="33.32" cy="33.32" r="33.32"/><path d="M37.72 25.1v23.35q0 3.12.72 4a3.93 3.93 0 0 0 2.84 1v1.13H25.37v-1.15a3.84 3.84 0 0 0 2.9-1.14q.63-.72.63-3.84v-17.2q0-3.12-.72-4a3.89 3.89 0 0 0-2.8-1V25.1zm-4.41-14.27a4.87 4.87 0 0 1 4.88 4.88 4.65 4.65 0 0 1-1.43 3.44 4.74 4.74 0 0 1-3.45 1.42 4.84 4.84 0 0 1-4.85-4.85 4.73 4.73 0 0 1 1.42-3.45 4.65 4.65 0 0 1 3.43-1.44z"/></svg>