<svg id="866ac397-f09e-44c6-b83e-bfde150d8e17" data-name="Layer 3" xmlns="http://www.w3.org/2000/svg" xmlns:xlink="http://www.w3.org/1999/xlink" viewBox="0 0 750.6 163.53"><defs><style>.\34 dba2ad4-9468-4f34-956f-9bd2c7ecff4c{fill:#999;}.\32 939412b-b882-4c87-99d8-c0fb33932ff4{fill:#d6d6d6;}.\34 b7e7938-029d-4009-8627-bd4f97095c21,.eacc7528-2301-4aaa-b10a-5a93d0f32bc6{fill:#ff9100;}.bc589b14-ac04-4718-9323-66fc4e4bd0a1{fill:#666;}.ce5b188b-d50b-4d39-9e57-077603e2691d{isolation:isolate;}.\32 7814177-e737-4456-9594-dad079e35158{clip-path:url(#42cf88f7-38d7-4d8e-a659-44fd135e258e);}.\34 572c805-3a23-4d17-b9c8-1f5ca9932b98{clip-path:url(#91c4afd9-9999-4864-ac7e-3d1b96b8e1c6);}.\36 897c73e-a834-4a73-ab3d-e6b94e6716bd{clip-path:url(#8d283d8a-cb29-48ae-8319-28d35e95801b);}.\33 7001772-6a33-45ff-a3dc-0d40115ca48e{clip-path:url(#4b7b2193-f314-4275-94dc-13c7f35df062);}.\39 76a19bd-d95a-4c4a-90d1-7b81d81583f5,.d53bf496-e840-46ba-b9c9-6e4f903e1bea{fill:#fff;}.eacc7528-2301-4aaa-b10a-5a93d0f32bc6{stroke:#ff9100;}.\39 76a19bd-d95a-4c4a-90d1-7b81d81583f5{opacity:0.17;}.\34 b10977a-c250-4bd5-be17-3b627b467fbc{clip-path:url(#4bcbc1cc-4f27-473e-bd9d-cc2ef4a3b27f);}.ae8087e6-98da-4e7f-b3c2-58386075a839{clip-path:url(#0fec3200-1d0a-40db-ab64-bde772498196);}.a9bc88a5-a903-4eaf-8c34-9c790e53d64e{clip-path:url(#8fb22abb-2045-4841-9404-6658fb6367ba);}.\36 2ec489e-0305-497a-90e6-84d6f857e458,.fccba7a2-c0dc-4aa3-8ff0-b2cf307a334c{fill:none;stroke-width:0.5px;}.fccba7a2-c0dc-4aa3-8ff0-b2cf307a334c{stroke:#7f7f7f;}.\36 2ec489e-0305-497a-90e6-84d6f857e458{stroke:#b3b3b3;}</style><clipPath id="42cf88f7-38d7-4d8e-a659-44fd135e258e" transform="translate(-45.06 -198.87)"><path class="4dba2ad4-9468-4f34-956f-9bd2c7ecff4c" d="M174.64,335.43l-26.12,15.1a50.91,50.91,0,0,0,15.83-14.3,52.81,52.81,0,0,0,5.46-9.52,57.17,57.17,0,0,0,3.56-10.89,61.85,61.85,0,0,0,1.43-12.19,66.37,66.37,0,0,0-.91-12.12,71.53,71.53,0,0,0-3-11.79,75.91,75.91,0,0,0-5-11.2l25.82-19.7a82.87,82.87,0,0,1,5.37,11.89,77.59,77.59,0,0,1,3.35,12.5A71.1,71.1,0,0,1,201.56,286a65.4,65.4,0,0,1-1.32,12.88,59.52,59.52,0,0,1-3.57,11.49,54.39,54.39,0,0,1-5.59,10A51.92,51.92,0,0,1,174.64,335.43Z"/></clipPath><clipPath id="91c4afd9-9999-4864-ac7e-3d1b96b8e1c6" transform="translate(-45.06 -198.87)"><path class="4dba2ad4-9468-4f34-956f-9bd2c7ecff4c" d="M64.25,246.53l20.2-22.41a51.76,51.76,0,0,1,14.6-11.28,53.36,53.36,0,0,1,5.59-2.51,55.9,55.9,0,0,1,11.42-3,60.18,60.18,0,0,1,12.1-.61,65.83,65.83,0,0,1,12.49,1.84,73.31,73.31,0,0,1,12.6,4.37,79.35,79.35,0,0,1,11.89,6.64A82.52,82.52,0,0,1,175.59,228a85.41,85.41,0,0,1,16.11,20.86l-25.82,19.7a78,78,0,0,0-15.1-19.57,75.54,75.54,0,0,0-9.86-7.82A73,73,0,0,0,129.69,235a68.23,68.23,0,0,0-11.94-4,62.11,62.11,0,0,0-11.85-1.57,57.54,57.54,0,0,0-11.5.75,54.16,54.16,0,0,0-10.87,3,52.06,52.06,0,0,0-5.33,2.45,50.92,50.92,0,0,0-9.69,6.67A50.48,50.48,0,0,0,64.25,246.53Z"/></clipPath><clipPath id="8d283d8a-cb29-48ae-8319-28d35e95801b" transform="translate(-45.06 -198.87)"><path class="4dba2ad4-9468-4f34-956f-9bd2c7ecff4c" d="M60.17,243.94l19.94-22.62A56.06,56.06,0,0,0,76.39,226a57.42,57.42,0,0,0-3.28,5.22A59.67,59.67,0,0,0,70.32,237a62.91,62.91,0,0,0-2.25,6.19L48.59,264.72a60.54,60.54,0,0,1,2.18-5.87,58,58,0,0,1,2.69-5.42,55.81,55.81,0,0,1,3.15-5A54.87,54.87,0,0,1,60.17,243.94Z"/></clipPath><clipPath id="4b7b2193-f314-4275-94dc-13c7f35df062" transform="translate(-45.06 -198.87)"><path class="4dba2ad4-9468-4f34-956f-9bd2c7ecff4c" d="M176.47,340.25l-26.27,14.8A56.15,56.15,0,0,1,138.5,360a59.25,59.25,0,0,1-13,2.28,64.07,64.07,0,0,1-13.87-.64,71.07,71.07,0,0,1-14.38-3.82,78.65,78.65,0,0,1-25.1-15.52,83.29,83.29,0,0,1-17.72-23.09,77.91,77.91,0,0,1-8.36-27.07,66.39,66.39,0,0,1,2.5-27.42l19.49-21.56a70.16,70.16,0,0,0-2.36,29.06,84.5,84.5,0,0,0,9.15,28.89,91.29,91.29,0,0,0,19,24.77,85.51,85.51,0,0,0,26.76,16.79,75.86,75.86,0,0,0,15.25,4.2,67.36,67.36,0,0,0,14.66.81,61.36,61.36,0,0,0,13.65-2.3A57.42,57.42,0,0,0,176.47,340.25Z"/></clipPath><clipPath id="4bcbc1cc-4f27-473e-bd9d-cc2ef4a3b27f" transform="translate(-45.06 -198.87)"><path class="2939412b-b882-4c87-99d8-c0fb33932ff4" d="M193.45,246.67a84.86,84.86,0,0,0-16.19-21,82.09,82.09,0,0,0-10.54-8.42,79.08,79.08,0,0,0-12-6.64,79.08,79.08,0,0,1,12,6.64,82.09,82.09,0,0,1,10.54,8.42A84.86,84.86,0,0,1,193.45,246.67Z"/></clipPath><clipPath id="0fec3200-1d0a-40db-ab64-bde772498196" transform="translate(-45.06 -198.87)"><path class="2939412b-b882-4c87-99d8-c0fb33932ff4" d="M68.15,241.73A59.94,59.94,0,0,1,81.9,218.06,57.47,57.47,0,0,1,103.14,204a63.47,63.47,0,0,1,25.53-4,74.94,74.94,0,0,1,27.09,6.59A74.94,74.94,0,0,0,128.66,200a63.47,63.47,0,0,0-25.53,4A57.47,57.47,0,0,0,81.9,218.06,59.94,59.94,0,0,0,68.15,241.73Z"/></clipPath><clipPath id="8fb22abb-2045-4841-9404-6658fb6367ba" transform="translate(-45.06 -198.87)"><path class="2939412b-b882-4c87-99d8-c0fb33932ff4" d="M122.14,337.25a71.62,71.62,0,0,0,13.91,3.82,64.23,64.23,0,0,0,13.43.83A59,59,0,0,0,162.08,340a55.56,55.56,0,0,0,11.42-4.44A53.52,53.52,0,0,0,191.66,320a55.58,55.58,0,0,0,6.19-10.58,60.71,60.71,0,0,0,3.94-12.21,66.26,66.26,0,0,0,1.42-13,71.46,71.46,0,0,0-1.06-13,77.51,77.51,0,0,0-3.32-12.61,82.34,82.34,0,0,0-5.37-12,82.34,82.34,0,0,1,5.37,12,77.51,77.51,0,0,1,3.32,12.61,71.46,71.46,0,0,1,1.06,13,66.26,66.26,0,0,1-1.42,13,60.71,60.71,0,0,1-3.94,12.21A55.58,55.58,0,0,1,191.66,320a53.52,53.52,0,0,1-18.16,15.47A55.56,55.56,0,0,1,162.08,340a59,59,0,0,1-12.59,1.93,64.23,64.23,0,0,1-13.43-.83A71.62,71.62,0,0,1,122.14,337.25Z"/></clipPath></defs><title>cm well logo FLAT</title><path class="4b7e7938-029d-4009-8627-bd4f97095c21" d="M307.58,251.82a68,68,0,0,0-25.7-5.1c-28.8,0-40.1,19.72-40.1,47.86s11.3,47.86,40.1,47.86a67.94,67.94,0,0,0,25.7-5.1l1.55,5.76c-6.65,3.32-17.5,5.54-27.69,5.54-29.47,0-46.75-19.05-46.75-54.06s17.28-54.06,46.75-54.06c10.19,0,21,2.22,27.69,5.54Z" transform="translate(-45.06 -198.87)"/><path class="4b7e7938-029d-4009-8627-bd4f97095c21" d="M393.76,346.43v-70c0-19.28-9.08-29.69-27.25-29.69s-33.9,17.5-33.9,45.42v54.28h-7.09V242.74h6.87v25.92c6-17.5,18.17-28.14,35.23-28.14,20.16,0,30.58,11.08,32.79,28.14,4.65-16.62,17.28-28.14,35.45-28.14,22.82,0,33.23,14.18,33.23,35v70.9H462v-70c0-19.28-9.08-29.69-27.25-29.69-17.72,0-33.9,16.62-33.9,43.43v56.28h-7.09Z" transform="translate(-45.06 -198.87)"/><path class="bc589b14-ac04-4718-9323-66fc4e4bd0a1" d="M581.86,336.68l27.69-93.94h6.87L585,346.43h-6.2l-31-97-31,97h-6.2L479.06,242.74h6.87l27.7,93.94,30.13-93.94h8Z" transform="translate(-45.06 -198.87)"/><path class="bc589b14-ac04-4718-9323-66fc4e4bd0a1" d="M626.62,296.13c0.22,27.69,10.63,46.75,41.21,46.75A88.12,88.12,0,0,0,700,336.46l1.11,5.32c-7.53,3.54-20.38,6.87-33.68,6.87-34.78,0-47.63-23.26-47.63-54.06,0-33.9,15.29-54.06,44.53-54.06,28.8,0,38.33,21.71,38.33,47v8.64h-76Zm0-5.76h69.13v-2.66c0-23-7.75-41.65-31.46-41.65C640.8,246.06,627.72,260.9,626.62,290.37Z" transform="translate(-45.06 -198.87)"/><path class="bc589b14-ac04-4718-9323-66fc4e4bd0a1" d="M738.95,347.53c-14.4,0-19.05-9.75-19.05-23V198.87H727V324.71c0,10.41,3.1,16.84,13.29,16.84a43.19,43.19,0,0,0,9.53-1.11l0.44,5.76A42.72,42.72,0,0,1,738.95,347.53Z" transform="translate(-45.06 -198.87)"/><path class="bc589b14-ac04-4718-9323-66fc4e4bd0a1" d="M784.36,347.53c-14.4,0-19.05-9.75-19.05-23V198.87h7.09V324.71c0,10.41,3.1,16.84,13.29,16.84a43.18,43.18,0,0,0,9.53-1.11l0.44,5.76A42.73,42.73,0,0,1,784.36,347.53Z" transform="translate(-45.06 -198.87)"/><g id="ab2d5a16-d5e7-42cf-a2d4-57673cc52cb2" data-name="New Symbol 1"><g class="ce5b188b-d50b-4d39-9e57-077603e2691d"><g class="ce5b188b-d50b-4d39-9e57-077603e2691d"><path class="4dba2ad4-9468-4f34-956f-9bd2c7ecff4c" d="M174.64,335.43l-26.12,15.1a50.91,50.91,0,0,0,15.83-14.3,52.81,52.81,0,0,0,5.46-9.52,57.17,57.17,0,0,0,3.56-10.89,61.85,61.85,0,0,0,1.43-12.19,66.37,66.37,0,0,0-.91-12.12,71.53,71.53,0,0,0-3-11.79,75.91,75.91,0,0,0-5-11.2l25.82-19.7a82.87,82.87,0,0,1,5.37,11.89,77.59,77.59,0,0,1,3.35,12.5A71.1,71.1,0,0,1,201.56,286a65.4,65.4,0,0,1-1.32,12.88,59.52,59.52,0,0,1-3.57,11.49,54.39,54.39,0,0,1-5.59,10A51.92,51.92,0,0,1,174.64,335.43Z" transform="translate(-45.06 -198.87)"/><g class="27814177-e737-4456-9594-dad079e35158"><g class="ce5b188b-d50b-4d39-9e57-077603e2691d"><path class="4dba2ad4-9468-4f34-956f-9bd2c7ecff4c" d="M174.64,335.43l-26.12,15.1,0.09-.05,0.09-.05,0.09-.05,0.09-.05L175,335.2l-0.1.06-0.1.06-0.1.06-0.1.06" transform="translate(-45.06 -198.87)"/><path class="4dba2ad4-9468-4f34-956f-9bd2c7ecff4c" d="M175,335.2l-26.14,15.11,0.67-.4,0.66-.41,0.66-.42,0.65-.43,26.25-15.19-0.68.45-0.69.44-0.69.43-0.7.42" transform="translate(-45.06 -198.87)"/><path class="4dba2ad4-9468-4f34-956f-9bd2c7ecff4c" d="M177.79,333.46l-26.25,15.19,0.6-.41,0.59-.42,0.58-.43,0.58-.43,26.35-15.27-0.6.45-0.61.45-0.62.44-0.62.43" transform="translate(-45.06 -198.87)"/><path class="4dba2ad4-9468-4f34-956f-9bd2c7ecff4c" d="M180.24,331.69L153.89,347l0.54-.42,0.53-.42,0.53-.43,0.52-.44,26.44-15.35-0.54.46-0.55.45-0.55.44-0.56.44" transform="translate(-45.06 -198.87)"/><path class="4dba2ad4-9468-4f34-956f-9bd2c7ecff4c" d="M182.44,329.91L156,345.26l0.49-.42,0.48-.43,0.48-.43,0.47-.44,26.51-15.44-0.49.46-0.5.45-0.5.45-0.51.44" transform="translate(-45.06 -198.87)"/><path class="4dba2ad4-9468-4f34-956f-9bd2c7ecff4c" d="M184.45,328.1l-26.51,15.44,0.45-.43,0.45-.44,0.44-.44,0.44-.45,26.58-15.52-0.45.47-0.46.46-0.46.46-0.47.45" transform="translate(-45.06 -198.87)"/><path class="4dba2ad4-9468-4f34-956f-9bd2c7ecff4c" d="M186.29,326.26l-26.58,15.52,0.42-.44,0.41-.44,0.41-.45,0.4-.46L188,324.38l-0.42.48-0.42.47-0.43.47-0.43.46" transform="translate(-45.06 -198.87)"/><path class="4dba2ad4-9468-4f34-956f-9bd2c7ecff4c" d="M188,324.38L161.35,340l0.39-.45,0.39-.46,0.38-.46,0.38-.47,26.69-15.71-0.39.49-0.39.49-0.4.48-0.4.47" transform="translate(-45.06 -198.87)"/><path class="4dba2ad4-9468-4f34-956f-9bd2c7ecff4c" d="M189.58,322.45l-26.69,15.71,0.36-.46,0.36-.47,0.36-.47,0.35-.48,26.74-15.81-0.36.5-0.37.5L190,322l-0.38.49" transform="translate(-45.06 -198.87)"/><path class="4dba2ad4-9468-4f34-956f-9bd2c7ecff4c" d="M191.05,320.46l-26.74,15.81,0.34-.48,0.34-.48,0.33-.49,0.33-.49,26.77-15.91-0.34.52-0.34.51-0.35.51-0.35.5" transform="translate(-45.06 -198.87)"/><path class="4dba2ad4-9468-4f34-956f-9bd2c7ecff4c" d="M192.43,318.42l-26.77,15.91,0.32-.5,0.32-.5,0.31-.51,0.31-.51,26.81-16-0.32.54-0.32.53-0.33.53-0.33.52" transform="translate(-45.06 -198.87)"/><path class="4dba2ad4-9468-4f34-956f-9bd2c7ecff4c" d="M193.72,316.3l-26.81,16,0.3-.52,0.3-.52,0.29-.53,0.29-.53,26.84-16.13-0.29.56-0.3.56-0.31.55-0.31.55" transform="translate(-45.06 -198.87)"/><path class="4dba2ad4-9468-4f34-956f-9bd2c7ecff4c" d="M194.93,314.09L168.1,330.22l0.29-.54,0.28-.55,0.27-.55,0.27-.56,26.86-16.25-0.27.59-0.28.58-0.29.58-0.29.57" transform="translate(-45.06 -198.87)"/><path class="4dba2ad4-9468-4f34-956f-9bd2c7ecff4c" d="M196.06,311.77L169.21,328l0.27-.57,0.26-.58,0.26-.58,0.25-.59,26.88-16.38-0.25.62-0.26.61-0.27.61-0.27.6" transform="translate(-45.06 -198.87)"/><path class="4dba2ad4-9468-4f34-956f-9bd2c7ecff4c" d="M197.12,309.32L170.24,325.7l0.25-.61,0.25-.62,0.24-.62,0.23-.62,26.89-16.51-0.23.66-0.24.65-0.25.65-0.26.64" transform="translate(-45.06 -198.87)"/><path class="4dba2ad4-9468-4f34-956f-9bd2c7ecff4c" d="M198.1,306.72l-26.89,16.51,0.24-.66,0.23-.66,0.22-.67,0.21-.67L199,303.91l-0.21.71-0.22.7-0.23.7-0.24.69" transform="translate(-45.06 -198.87)"/><path class="4dba2ad4-9468-4f34-956f-9bd2c7ecff4c" d="M199,303.91l-26.89,16.66,0.22-.72,0.21-.72,0.2-.73,0.19-.73,26.89-16.82-0.19.77-0.2.77-0.21.76-0.22.76" transform="translate(-45.06 -198.87)"/><path class="4dba2ad4-9468-4f34-956f-9bd2c7ecff4c" d="M199.81,300.85l-26.89,16.82,0.11-.46,0.11-.46,0.11-.46,0.1-.46,0.08-.35,0.07-.35,0.07-.35,0.07-.35,26.88-17-0.07.37-0.07.37-0.07.37-0.07.37-0.1.49-0.11.49-0.11.48-0.11.48" transform="translate(-45.06 -198.87)"/><path class="4dba2ad4-9468-4f34-956f-9bd2c7ecff4c" d="M200.53,297.43l-26.88,17q0.09-.45.17-0.9c0.05-.3.11-0.6,0.15-0.9s0.1-.6.14-0.9,0.09-.6.13-0.9l26.85-17.2q-0.06.48-.12,1c0,0.32-.09.63-0.14,1s-0.1.63-.15,0.95-0.11.63-.16,0.95" transform="translate(-45.06 -198.87)"/><path class="4dba2ad4-9468-4f34-956f-9bd2c7ecff4c" d="M201.1,293.63l-26.85,17.2q0.07-.53.13-1.05t0.11-1.05q0.05-.52.1-1.05t0.08-1.05l26.81-17.44q0,0.56-.07,1.11t-0.08,1.11q0,0.56-.1,1.11t-0.12,1.11" transform="translate(-45.06 -198.87)"/><path class="4dba2ad4-9468-4f34-956f-9bd2c7ecff4c" d="M201.47,289.19l-26.81,17.44c0-.43.05-0.86,0.07-1.29s0-.86,0-1.29,0-.86,0-1.29,0-.86,0-1.29l26.74-17.73q0,0.68,0,1.36t0,1.37q0,0.68,0,1.37t-0.06,1.37" transform="translate(-45.06 -198.87)"/><path class="4dba2ad4-9468-4f34-956f-9bd2c7ecff4c" d="M201.53,283.73L174.8,301.46q0-1-.06-1.91t-0.11-1.9q-0.07-1-.17-1.9t-0.22-1.89l26.6-18.17q0.14,1,.26,2t0.2,2q0.09,1,.15,2t0.09,2" transform="translate(-45.06 -198.87)"/><path class="4dba2ad4-9468-4f34-956f-9bd2c7ecff4c" d="M200.83,275.69l-26.6,18.17q-0.24-1.85-.58-3.68t-0.78-3.65q-0.44-1.81-1-3.61t-1.16-3.56l26.21-19q0.68,1.87,1.27,3.77t1.07,3.82q0.49,1.92.87,3.86t0.67,3.9" transform="translate(-45.06 -198.87)"/><path class="4dba2ad4-9468-4f34-956f-9bd2c7ecff4c" d="M196.94,260.34l-26.21,19q-0.26-.73-0.54-1.46t-0.57-1.45q-0.29-.72-0.6-1.44t-0.63-1.43l26-19.39q0.35,0.76.68,1.52t0.65,1.53q0.32,0.77.62,1.54t0.58,1.55" transform="translate(-45.06 -198.87)"/><path class="4dba2ad4-9468-4f34-956f-9bd2c7ecff4c" d="M194.42,254.21l-26,19.39-0.43-.94-0.44-.93-0.46-.93-0.47-.92,25.87-19.62,0.5,1,0.49,1,0.48,1,0.46,1" transform="translate(-45.06 -198.87)"/><path class="4dba2ad4-9468-4f34-956f-9bd2c7ecff4c" d="M192.48,250.26l-25.87,19.62-0.18-.34-0.18-.34-0.18-.34-0.18-.34,25.82-19.7,0.2,0.36,0.19,0.36,0.19,0.36,0.19,0.36" transform="translate(-45.06 -198.87)"/></g></g></g><g class="ce5b188b-d50b-4d39-9e57-077603e2691d"><path class="4dba2ad4-9468-4f34-956f-9bd2c7ecff4c" d="M64.25,246.53l20.2-22.41a51.76,51.76,0,0,1,14.6-11.28,53.36,53.36,0,0,1,5.59-2.51,55.9,55.9,0,0,1,11.42-3,60.18,60.18,0,0,1,12.1-.61,65.83,65.83,0,0,1,12.49,1.84,73.31,73.31,0,0,1,12.6,4.37,79.35,79.35,0,0,1,11.89,6.64A82.52,82.52,0,0,1,175.59,228a85.41,85.41,0,0,1,16.11,20.86l-25.82,19.7a78,78,0,0,0-15.1-19.57,75.54,75.54,0,0,0-9.86-7.82A73,73,0,0,0,129.69,235a68.23,68.23,0,0,0-11.94-4,62.11,62.11,0,0,0-11.85-1.57,57.54,57.54,0,0,0-11.5.75,54.16,54.16,0,0,0-10.87,3,52.06,52.06,0,0,0-5.33,2.45,50.92,50.92,0,0,0-9.69,6.67A50.48,50.48,0,0,0,64.25,246.53Z" transform="translate(-45.06 -198.87)"/><g class="4572c805-3a23-4d17-b9c8-1f5ca9932b98"><g class="ce5b188b-d50b-4d39-9e57-077603e2691d"><path class="4dba2ad4-9468-4f34-956f-9bd2c7ecff4c" d="M191.71,248.82l-25.82,19.7-0.22-.4-0.22-.4-0.22-.4-0.23-.4,25.75-19.8,0.24,0.42,0.24,0.42,0.24,0.43,0.24,0.43" transform="translate(-45.06 -198.87)"/><path class="4dba2ad4-9468-4f34-956f-9bd2c7ecff4c" d="M190.75,247.12L165,266.92l-0.38-.65-0.38-.65-0.39-.64-0.4-.64,25.64-20,0.43,0.68,0.42,0.68,0.41,0.69,0.41,0.69" transform="translate(-45.06 -198.87)"/><path class="4dba2ad4-9468-4f34-956f-9bd2c7ecff4c" d="M189.09,244.37l-25.64,20-0.37-.59-0.38-.58-0.38-.58-0.39-.58,25.53-20.11,0.41,0.61,0.41,0.62,0.4,0.62,0.4,0.62" transform="translate(-45.06 -198.87)"/><path class="4dba2ad4-9468-4f34-956f-9bd2c7ecff4c" d="M187.46,241.9L161.93,262l-0.37-.55-0.38-.54-0.38-.54-0.39-.54,25.43-20.25,0.41,0.57,0.41,0.57,0.4,0.58,0.4,0.58" transform="translate(-45.06 -198.87)"/><path class="4dba2ad4-9468-4f34-956f-9bd2c7ecff4c" d="M185.84,239.6l-25.43,20.25-0.38-.52-0.38-.51-0.39-.51-0.39-.51,25.32-20.39,0.42,0.54L185,238.5l0.41,0.55,0.4,0.55" transform="translate(-45.06 -198.87)"/><path class="4dba2ad4-9468-4f34-956f-9bd2c7ecff4c" d="M184.19,237.42L158.87,257.8l-0.39-.49-0.39-.49-0.4-.49-0.4-.48,25.22-20.52,0.43,0.52,0.42,0.52,0.42,0.52,0.41,0.53" transform="translate(-45.06 -198.87)"/><path class="4dba2ad4-9468-4f34-956f-9bd2c7ecff4c" d="M182.51,235.33L157.3,255.85l-0.4-.47-0.4-.47-0.41-.47-0.41-.47,25.11-20.64,0.44,0.5,0.43,0.5,0.43,0.5,0.42,0.51" transform="translate(-45.06 -198.87)"/><path class="4dba2ad4-9468-4f34-956f-9bd2c7ecff4c" d="M180.79,233.33L155.68,254l-0.41-.46-0.42-.46-0.42-.45-0.42-.45,25-20.77,0.45,0.48,0.45,0.48,0.44,0.49,0.44,0.49" transform="translate(-45.06 -198.87)"/><path class="4dba2ad4-9468-4f34-956f-9bd2c7ecff4c" d="M179,231.39l-25,20.77-0.42-.45-0.43-.44-0.43-.44-0.44-.44,24.89-20.89,0.46,0.47,0.46,0.47,0.46,0.47,0.45,0.48" transform="translate(-45.06 -198.87)"/><path class="4dba2ad4-9468-4f34-956f-9bd2c7ecff4c" d="M177.18,229.5l-24.89,20.89-0.44-.43-0.45-.43L151,249.1l-0.45-.42,24.78-21,0.48,0.45,0.48,0.46,0.47,0.46,0.47,0.46" transform="translate(-45.06 -198.87)"/><path class="4dba2ad4-9468-4f34-956f-9bd2c7ecff4c" d="M175.29,227.67l-24.78,21-0.46-.42-0.46-.42-0.47-.42-0.47-.41,24.67-21.12,0.5,0.44,0.49,0.44,0.49,0.45,0.49,0.45" transform="translate(-45.06 -198.87)"/><path class="4dba2ad4-9468-4f34-956f-9bd2c7ecff4c" d="M173.32,225.88L148.65,247l-0.48-.41-0.48-.41-0.48-.4-0.49-.4,24.55-21.24,0.52,0.43L172.3,225l0.51,0.44,0.51,0.44" transform="translate(-45.06 -198.87)"/><path class="4dba2ad4-9468-4f34-956f-9bd2c7ecff4c" d="M171.27,224.14l-24.55,21.24-0.5-.4-0.5-.4-0.51-.39-0.51-.39,24.43-21.36,0.54,0.42,0.54,0.42,0.53,0.43,0.53,0.43" transform="translate(-45.06 -198.87)"/><path class="4dba2ad4-9468-4f34-956f-9bd2c7ecff4c" d="M169.13,222.44L144.7,243.8l-0.52-.39-0.53-.39-0.53-.38-0.53-.38,24.31-21.47,0.57,0.41L168,221.6l0.56,0.42,0.55,0.42" transform="translate(-45.06 -198.87)"/><path class="4dba2ad4-9468-4f34-956f-9bd2c7ecff4c" d="M166.89,220.78l-24.31,21.47-0.55-.38-0.56-.38-0.56-.38-0.56-.37,24.17-21.59,0.6,0.4,0.59,0.4,0.59,0.41,0.58,0.41" transform="translate(-45.06 -198.87)"/><path class="4dba2ad4-9468-4f34-956f-9bd2c7ecff4c" d="M164.53,219.15l-24.17,21.59-0.59-.38-0.59-.37-0.59-.37-0.6-.36,24-21.7,0.63,0.39,0.63,0.4,0.62,0.4,0.62,0.41" transform="translate(-45.06 -198.87)"/><path class="4dba2ad4-9468-4f34-956f-9bd2c7ecff4c" d="M162,217.56l-24,21.7-0.63-.37-0.63-.37-0.64-.36-0.64-.35L159.34,216l0.68,0.38,0.67,0.39,0.67,0.4,0.66,0.4" transform="translate(-45.06 -198.87)"/><path class="4dba2ad4-9468-4f34-956f-9bd2c7ecff4c" d="M159.34,216l-23.89,21.82-0.68-.37-0.69-.36-0.69-.35-0.7-.35,23.73-21.94,0.74,0.38,0.73,0.38,0.72,0.39,0.72,0.4" transform="translate(-45.06 -198.87)"/><path class="4dba2ad4-9468-4f34-956f-9bd2c7ecff4c" d="M156.43,214.44L132.7,236.38,132,236l-0.75-.35-0.75-.34-0.76-.34h0l23.56-22.06h0l0.8,0.37,0.8,0.37,0.79,0.38,0.78,0.39" transform="translate(-45.06 -198.87)"/><path class="4dba2ad4-9468-4f34-956f-9bd2c7ecff4c" d="M153.21,212.91L129.65,235l-0.87-.37-0.87-.36-0.87-.34-0.87-.33,23.37-22.19,0.92,0.36,0.91,0.38,0.91,0.39,0.91,0.4" transform="translate(-45.06 -198.87)"/><path class="4dba2ad4-9468-4f34-956f-9bd2c7ecff4c" d="M149.56,211.37l-23.37,22.19-1-.36-1-.35-1-.33-1-.31,23.15-22.33,1.05,0.35,1.05,0.36L148.5,211l1.05,0.4" transform="translate(-45.06 -198.87)"/><path class="4dba2ad4-9468-4f34-956f-9bd2c7ecff4c" d="M145.34,209.88l-23.15,22.33-1.29-.38-1.29-.35-1.29-.32-1.29-.3,22.87-22.48,1.36,0.33,1.36,0.36,1.36,0.39,1.36,0.42" transform="translate(-45.06 -198.87)"/><path class="4dba2ad4-9468-4f34-956f-9bd2c7ecff4c" d="M139.91,208.38L117,230.86a62.4,62.4,0,0,0-8.73-1.28,58.89,58.89,0,0,0-8.57,0,56.12,56.12,0,0,0-8.3,1.22,53.72,53.72,0,0,0-7.92,2.43,52.06,52.06,0,0,0-5.33,2.45,50.92,50.92,0,0,0-9.69,6.67,50.48,50.48,0,0,0-4.26,4.2l20.2-22.41a51.76,51.76,0,0,1,14.6-11.28,53.36,53.36,0,0,1,5.59-2.51,55.35,55.35,0,0,1,8.32-2.44,58.29,58.29,0,0,1,8.73-1.16,61.93,61.93,0,0,1,9,.15,66.36,66.36,0,0,1,9.2,1.49" transform="translate(-45.06 -198.87)"/></g></g></g><g class="ce5b188b-d50b-4d39-9e57-077603e2691d"><path class="4dba2ad4-9468-4f34-956f-9bd2c7ecff4c" d="M60.17,243.94l19.94-22.62A56.06,56.06,0,0,0,76.39,226a57.42,57.42,0,0,0-3.28,5.22A59.67,59.67,0,0,0,70.32,237a62.91,62.91,0,0,0-2.25,6.19L48.59,264.72a60.54,60.54,0,0,1,2.18-5.87,58,58,0,0,1,2.69-5.42,55.81,55.81,0,0,1,3.15-5A54.87,54.87,0,0,1,60.17,243.94Z" transform="translate(-45.06 -198.87)"/><g class="6897c73e-a834-4a73-ab3d-e6b94e6716bd"><g class="ce5b188b-d50b-4d39-9e57-077603e2691d"><path class="4dba2ad4-9468-4f34-956f-9bd2c7ecff4c" d="M68.08,243.16L48.59,264.72l0.15-.49,0.16-.48,0.16-.48,0.17-.48,19.51-21.67-0.17.5-0.17.51-0.16.51-0.16.51" transform="translate(-45.06 -198.87)"/><path class="4dba2ad4-9468-4f34-956f-9bd2c7ecff4c" d="M68.73,241.12L49.23,262.79l0.29-.81,0.3-.8,0.31-.79,0.32-.78L70,237.76l-0.33.83-0.32.84-0.31.84-0.3.85" transform="translate(-45.06 -198.87)"/><path class="4dba2ad4-9468-4f34-956f-9bd2c7ecff4c" d="M70,237.76L50.45,259.6l0.3-.71,0.31-.7,0.31-.69,0.32-.69,19.59-22-0.33.72-0.33.73L70.3,237l-0.31.75" transform="translate(-45.06 -198.87)"/><path class="4dba2ad4-9468-4f34-956f-9bd2c7ecff4c" d="M71.28,234.82l-19.59,22,0.32-.67,0.33-.66,0.34-.66,0.35-.65,19.64-22.13-0.36.68-0.35.69-0.34.7-0.34.7" transform="translate(-45.06 -198.87)"/><path class="4dba2ad4-9468-4f34-956f-9bd2c7ecff4c" d="M72.68,232.05L53,254.18l0.34-.61,0.34-.61,0.35-.6,0.36-.59,19.69-22.25-0.37.62-0.36.63-0.36.64-0.35.64" transform="translate(-45.06 -198.87)"/><path class="4dba2ad4-9468-4f34-956f-9bd2c7ecff4c" d="M74.12,229.52L54.42,251.77l0.36-.58,0.36-.57,0.37-.57,0.37-.56,19.76-22.36-0.39.59-0.38.6-0.38.6-0.37.61" transform="translate(-45.06 -198.87)"/><path class="4dba2ad4-9468-4f34-956f-9bd2c7ecff4c" d="M75.64,227.13L55.88,249.49l0.37-.54,0.38-.54,0.38-.53,0.39-.53,19.82-22.46-0.41.55-0.4.56-0.39.56-0.39.57" transform="translate(-45.06 -198.87)"/><path class="4dba2ad4-9468-4f34-956f-9bd2c7ecff4c" d="M77.23,224.89L57.41,247.35l0.39-.52,0.4-.51,0.4-.51,0.41-.5L78.9,222.75l-0.43.52-0.42.53-0.42.54-0.41.54" transform="translate(-45.06 -198.87)"/><path class="4dba2ad4-9468-4f34-956f-9bd2c7ecff4c" d="M78.9,222.75L59,245.31,59.3,245l0.29-.34,0.29-.34,0.29-.34,19.94-22.62-0.31.35L79.5,222l-0.3.36-0.3.36" transform="translate(-45.06 -198.87)"/></g></g></g><g class="ce5b188b-d50b-4d39-9e57-077603e2691d"><path class="4dba2ad4-9468-4f34-956f-9bd2c7ecff4c" d="M176.47,340.25l-26.27,14.8A56.15,56.15,0,0,1,138.5,360a59.25,59.25,0,0,1-13,2.28,64.07,64.07,0,0,1-13.87-.64,71.07,71.07,0,0,1-14.38-3.82,78.65,78.65,0,0,1-25.1-15.52,83.29,83.29,0,0,1-17.72-23.09,77.91,77.91,0,0,1-8.36-27.07,66.39,66.39,0,0,1,2.5-27.42l19.49-21.56a70.16,70.16,0,0,0-2.36,29.06,84.5,84.5,0,0,0,9.15,28.89,91.29,91.29,0,0,0,19,24.77,85.51,85.51,0,0,0,26.76,16.79,75.86,75.86,0,0,0,15.25,4.2,67.36,67.36,0,0,0,14.66.81,61.36,61.36,0,0,0,13.65-2.3A57.42,57.42,0,0,0,176.47,340.25Z" transform="translate(-45.06 -198.87)"/><g class="37001772-6a33-45ff-a3dc-0d40115ca48e"><g class="ce5b188b-d50b-4d39-9e57-077603e2691d"><path class="4dba2ad4-9468-4f34-956f-9bd2c7ecff4c" d="M176.47,340.25l-26.27,14.8a55.92,55.92,0,0,1-8.53,3.9,58,58,0,0,1-9.27,2.48,60.79,60.79,0,0,1-9.88,1,64.6,64.6,0,0,1-10.33-.68L136.47,347a68,68,0,0,0,10.92.82,63.16,63.16,0,0,0,10.41-.92,59.62,59.62,0,0,0,9.74-2.55,57.06,57.06,0,0,0,8.92-4.06" transform="translate(-45.06 -198.87)"/><path class="4dba2ad4-9468-4f34-956f-9bd2c7ecff4c" d="M136.47,347l-24.28,14.75-1.49-.23-1.49-.27-1.5-.3-1.5-.34,23.93-14.88,1.59,0.38,1.59,0.34,1.58,0.3,1.58,0.26" transform="translate(-45.06 -198.87)"/><path class="4dba2ad4-9468-4f34-956f-9bd2c7ecff4c" d="M130.13,345.68L106.2,360.57l-1.18-.29-1.18-.31-1.19-.34-1.19-.36,23.64-15,1.26,0.39,1.26,0.37,1.26,0.35,1.25,0.32" transform="translate(-45.06 -198.87)"/><path class="4dba2ad4-9468-4f34-956f-9bd2c7ecff4c" d="M125.11,344.25l-23.64,15-1-.33-1-.35-1-.36-1-.38,23.39-15.15,1.1,0.42,1.1,0.4,1.1,0.38,1.09,0.36" transform="translate(-45.06 -198.87)"/><path class="4dba2ad4-9468-4f34-956f-9bd2c7ecff4c" d="M120.72,342.69L97.33,357.84H97.28l-0.88-.34-0.87-.35-0.87-.36-0.86-.37L117,341.13l0.92,0.4,0.92,0.39,0.93,0.38,0.93,0.37h0.05" transform="translate(-45.06 -198.87)"/><path class="4dba2ad4-9468-4f34-956f-9bd2c7ecff4c" d="M117,341.13L93.81,356.4,93,356l-0.83-.38-0.82-.39-0.82-.4,23-15.41,0.87,0.43,0.87,0.42,0.88,0.41,0.88,0.4" transform="translate(-45.06 -198.87)"/><path class="4dba2ad4-9468-4f34-956f-9bd2c7ecff4c" d="M113.47,339.46l-23,15.41-0.76-.38L89,354.09l-0.75-.4-0.75-.41,22.76-15.54,0.8,0.44,0.8,0.43,0.81,0.42,0.81,0.42" transform="translate(-45.06 -198.87)"/><path class="4dba2ad4-9468-4f34-956f-9bd2c7ecff4c" d="M110.25,337.75L87.49,353.29l-0.71-.4-0.71-.4-0.7-.41-0.7-.42L107.25,336l0.74,0.45,0.75,0.44,0.75,0.44,0.76,0.43" transform="translate(-45.06 -198.87)"/><path class="4dba2ad4-9468-4f34-956f-9bd2c7ecff4c" d="M107.25,336L84.68,351.66,84,351.25l-0.67-.42-0.67-.43L82,350l22.4-15.81,0.71,0.47,0.71,0.46,0.72,0.46,0.72,0.45" transform="translate(-45.06 -198.87)"/><path class="4dba2ad4-9468-4f34-956f-9bd2c7ecff4c" d="M104.4,334.15L82,350l-0.64-.43-0.63-.43-0.63-.44-0.62-.44,22.23-16,0.67,0.48,0.67,0.47,0.67,0.47,0.68,0.46" transform="translate(-45.06 -198.87)"/><path class="4dba2ad4-9468-4f34-956f-9bd2c7ecff4c" d="M101.71,332.27l-22.23,16-0.61-.45-0.61-.45-0.6-.46-0.6-.46,22.06-16.09,0.64,0.5,0.64,0.49,0.65,0.49,0.65,0.48" transform="translate(-45.06 -198.87)"/><path class="4dba2ad4-9468-4f34-956f-9bd2c7ecff4c" d="M99.12,330.32L77.06,346.41,76.48,346l-0.58-.46L75.32,345l-0.57-.47,21.91-16.24,0.61,0.51,0.61,0.5,0.62,0.5,0.62,0.49" transform="translate(-45.06 -198.87)"/><path class="4dba2ad4-9468-4f34-956f-9bd2c7ecff4c" d="M96.66,328.31L74.75,344.55l-0.56-.48-0.56-.48-0.55-.49-0.55-.49,21.75-16.39,0.59,0.53,0.59,0.52,0.6,0.52,0.6,0.51" transform="translate(-45.06 -198.87)"/><path class="4dba2ad4-9468-4f34-956f-9bd2c7ecff4c" d="M94.28,326.22L72.53,342.61,72,342.12l-0.54-.5-0.53-.5-0.53-.5L92,324.08l0.56,0.54,0.57,0.54,0.57,0.53,0.58,0.53" transform="translate(-45.06 -198.87)"/><path class="4dba2ad4-9468-4f34-956f-9bd2c7ecff4c" d="M92,324.08L70.4,340.62l-0.52-.51-0.52-.51-0.51-.52-0.51-.52,21.46-16.7,0.54,0.56L90.89,323l0.55,0.55L92,324.08" transform="translate(-45.06 -198.87)"/><path class="4dba2ad4-9468-4f34-956f-9bd2c7ecff4c" d="M89.8,321.86l-21.46,16.7-0.5-.53-0.5-.53L66.84,337l-0.49-.54,21.31-16.86,0.52,0.58,0.53,0.58,0.54,0.57,0.54,0.57" transform="translate(-45.06 -198.87)"/><path class="4dba2ad4-9468-4f34-956f-9bd2c7ecff4c" d="M87.67,319.56L66.35,336.42l-0.48-.55-0.48-.55-0.47-.55-0.47-.56,21.18-17,0.5,0.6,0.51,0.6L87.15,319l0.52,0.59" transform="translate(-45.06 -198.87)"/><path class="4dba2ad4-9468-4f34-956f-9bd2c7ecff4c" d="M85.62,317.19l-21.18,17L64,333.63l-0.47-.58L63,332.47l-0.46-.59,21-17.19,0.49,0.63,0.5,0.63,0.51,0.62,0.51,0.62" transform="translate(-45.06 -198.87)"/><path class="4dba2ad4-9468-4f34-956f-9bd2c7ecff4c" d="M83.61,314.69l-21,17.19-0.46-.59-0.45-.6-0.45-.6-0.44-.61,20.9-17.37,0.47,0.65,0.48,0.65,0.49,0.64,0.49,0.64" transform="translate(-45.06 -198.87)"/><path class="4dba2ad4-9468-4f34-956f-9bd2c7ecff4c" d="M81.68,312.11l-20.9,17.37-0.46-.65-0.45-.65-0.45-.65L59,326.87l20.77-17.55L80.21,310l0.48,0.7,0.49,0.7,0.5,0.69" transform="translate(-45.06 -198.87)"/><path class="4dba2ad4-9468-4f34-956f-9bd2c7ecff4c" d="M79.74,309.31L59,326.87l-0.44-.67-0.44-.68-0.43-.68-0.42-.68,20.63-17.75,0.45,0.73,0.46,0.73,0.47,0.72,0.47,0.72" transform="translate(-45.06 -198.87)"/><path class="4dba2ad4-9468-4f34-956f-9bd2c7ecff4c" d="M77.88,306.41L57.24,324.16l-0.47-.78-0.46-.78-0.45-.79L55.42,321l20.49-18,0.48,0.85,0.49,0.84,0.5,0.84,0.51,0.83" transform="translate(-45.06 -198.87)"/><path class="4dba2ad4-9468-4f34-956f-9bd2c7ecff4c" d="M75.91,303L55.42,321l-0.48-.88-0.47-.89L54,318.36l-0.45-.9,20.34-18.22,0.48,1,0.49,1,0.51,0.95L75.91,303" transform="translate(-45.06 -198.87)"/><path class="4dba2ad4-9468-4f34-956f-9bd2c7ecff4c" d="M73.91,299.24L53.57,317.46l-0.52-1.08-0.5-1.09-0.49-1.1-0.47-1.1,20.17-18.52,0.51,1.18,0.53,1.17,0.54,1.17,0.56,1.16" transform="translate(-45.06 -198.87)"/><path class="4dba2ad4-9468-4f34-956f-9bd2c7ecff4c" d="M71.77,294.57L51.59,313.09q-0.37-.89-0.72-1.79t-0.68-1.8q-0.33-.9-0.63-1.81T49,305.88l19.94-19q0.31,1,.64,1.94t0.69,1.93q0.36,1,.74,1.92t0.78,1.91" transform="translate(-45.06 -198.87)"/><path class="4dba2ad4-9468-4f34-956f-9bd2c7ecff4c" d="M68.92,286.86L49,305.88q-0.61-2-1.11-4t-0.89-4q-0.39-2-.67-4t-0.44-4l19.59-20.06q0.19,2.15.51,4.31t0.75,4.3q0.43,2.15,1,4.28t1.22,4.25" transform="translate(-45.06 -198.87)"/><path class="4dba2ad4-9468-4f34-956f-9bd2c7ecff4c" d="M65.45,269.74L45.86,289.8q-0.09-1.14-.14-2.27t-0.07-2.27q0-1.13,0-2.26t0.08-2.26l19.49-20.62q0,1.2-.06,2.4t0,2.41q0,1.2.1,2.41t0.18,2.41" transform="translate(-45.06 -198.87)"/><path class="4dba2ad4-9468-4f34-956f-9bd2c7ecff4c" d="M65.22,260.11L45.73,280.74q0-.73.09-1.46t0.12-1.46q0.07-.73.16-1.45t0.19-1.45l19.46-21q-0.1.77-.18,1.53T65.41,257q-0.07.77-.12,1.55t-0.08,1.55" transform="translate(-45.06 -198.87)"/><path class="4dba2ad4-9468-4f34-956f-9bd2c7ecff4c" d="M65.75,253.94l-19.46,21q0.08-.59.18-1.18t0.2-1.18c0.07-.39.14-0.78,0.22-1.17s0.16-.78.24-1.17L66.59,249q-0.13.62-.25,1.24t-0.22,1.24q-0.1.62-.2,1.25t-0.18,1.25" transform="translate(-45.06 -198.87)"/><path class="4dba2ad4-9468-4f34-956f-9bd2c7ecff4c" d="M66.59,249L47.13,270.21q0.11-.49.22-1l0.24-1q0.12-.49.25-1t0.27-1l19.48-21.47q-0.14.51-.27,1t-0.26,1q-0.12.52-.24,1t-0.22,1" transform="translate(-45.06 -198.87)"/><path class="4dba2ad4-9468-4f34-956f-9bd2c7ecff4c" d="M67.59,244.84L48.11,266.31l0.12-.4,0.12-.4,0.12-.4,0.12-.4,19.49-21.56-0.13.42-0.12.42-0.12.42-0.12.42" transform="translate(-45.06 -198.87)"/></g></g></g><path class="4dba2ad4-9468-4f34-956f-9bd2c7ecff4c" d="M68.08,243.16a58.38,58.38,0,0,1,13.4-23.33A55.72,55.72,0,0,1,102.34,206a62.09,62.09,0,0,1,25.15-3.78,74.39,74.39,0,0,1,26.77,6.68A86.63,86.63,0,0,1,178.07,225a91.42,91.42,0,0,1,17.18,22.23,85.8,85.8,0,0,1,9.33,26,72.93,72.93,0,0,1-.14,27.45A60.58,60.58,0,0,1,194,324.74a55.5,55.5,0,0,1-19,16.32,59.67,59.67,0,0,1-25.33,6.67,71.69,71.69,0,0,1-29-5.06,85.51,85.51,0,0,1-26.76-16.79,91.29,91.29,0,0,1-19-24.77,84.5,84.5,0,0,1-9.15-28.89A70.16,70.16,0,0,1,68.08,243.16Zm123.63,5.66A85.41,85.41,0,0,0,175.59,228a82.52,82.52,0,0,0-10.45-8.39,79.35,79.35,0,0,0-11.89-6.64,73.31,73.31,0,0,0-12.6-4.37,65.83,65.83,0,0,0-12.49-1.84,60.18,60.18,0,0,0-12.1.61,55.9,55.9,0,0,0-11.42,3,53,53,0,0,0-10.41,5.35,51.48,51.48,0,0,0-9,7.62,52.59,52.59,0,0,0-7.29,9.84,57.06,57.06,0,0,0-5.14,12,62.86,62.86,0,0,0-2.48,13.37,68.94,68.94,0,0,0,.35,13.75,76,76,0,0,0,3,13.71,82.13,82.13,0,0,0,5.54,13.21,85.43,85.43,0,0,0,17.74,23.07,82.16,82.16,0,0,0,11.7,9,78.06,78.06,0,0,0,13.22,6.7,71.24,71.24,0,0,0,13.76,3.87,63.41,63.41,0,0,0,13.27.91,57.88,57.88,0,0,0,12.42-1.82,54.17,54.17,0,0,0,11.25-4.32,51.92,51.92,0,0,0,17.82-15.18,54.1,54.1,0,0,0,6-10.42,59.36,59.36,0,0,0,3.82-12.05A65.4,65.4,0,0,0,201.56,286a71.1,71.1,0,0,0-1.13-12.83,77.59,77.59,0,0,0-3.35-12.5,82.87,82.87,0,0,0-5.37-11.89" transform="translate(-45.06 -198.87)"/></g><path class="d53bf496-e840-46ba-b9c9-6e4f903e1bea" d="M122.12,310.59c-0.7.68-.29,2.22,0.9,3.43h0c1.19,1.22,2.72,1.65,3.41,1l36.68-35.88c0.69-.68.29-2.21-0.9-3.43h0c-1.19-1.22-2.72-1.65-3.41-1Z" transform="translate(-45.06 -198.87)"/><path class="d53bf496-e840-46ba-b9c9-6e4f903e1bea" d="M115.66,308c0.28,0.93-.82,2.08-2.45,2.56h0c-1.63.48-3.18,0.13-3.46-.81L95.12,260.54c-0.28-.93.82-2.08,2.46-2.56h0c1.63-.49,3.18-0.13,3.45.8Z" transform="translate(-45.06 -198.87)"/><path class="d53bf496-e840-46ba-b9c9-6e4f903e1bea" d="M160.74,265.25c0.91,0.33,2.12-.71,2.69-2.31h0c0.57-1.6.3-3.16-.62-3.49l-48.32-17.26c-0.91-.33-2.12.71-2.69,2.31h0c-0.57,1.6-.3,3.17.62,3.49Z" transform="translate(-45.06 -198.87)"/><circle class="eacc7528-2301-4aaa-b10a-5a93d0f32bc6" cx="173.91" cy="264.71" r="19.06" transform="translate(-179.45 -6.7) rotate(-43.46)"/><path class="976a19bd-d95a-4c4a-90d1-7b81d81583f5" d="M160.2,250.51A19.67,19.67,0,0,0,155,269.83a18.7,18.7,0,0,0,19.18-4.29,19.67,19.67,0,0,0,5.24-19.32A18.7,18.7,0,0,0,160.2,250.51Z" transform="translate(-45.06 -198.87)"/><path class="4dba2ad4-9468-4f34-956f-9bd2c7ecff4c" d="M122.67,310.76c-0.71.69-.3,2.26,0.92,3.5h0c1.21,1.24,2.77,1.68,3.47,1l37.34-36.54c0.71-.69.3-2.25-0.92-3.49h0c-1.21-1.24-2.77-1.68-3.48-1Z" transform="translate(-45.06 -198.87)"/><circle class="eacc7528-2301-4aaa-b10a-5a93d0f32bc6" cx="117.62" cy="318.04" r="19.05" transform="translate(-231.56 -30.81) rotate(-43.45)"/><path class="976a19bd-d95a-4c4a-90d1-7b81d81583f5" d="M104,303.52a20.3,20.3,0,0,0-5.38,19.64,18.73,18.73,0,0,0,19.26-4.48A20.3,20.3,0,0,0,123.3,299,18.73,18.73,0,0,0,104,303.52Z" transform="translate(-45.06 -198.87)"/><path class="4dba2ad4-9468-4f34-956f-9bd2c7ecff4c" d="M116.09,308.08c0.28,0.95-.84,2.12-2.5,2.61h0c-1.66.49-3.24,0.13-3.52-.82l-14.9-50.08c-0.28-.95.84-2.12,2.5-2.61h0c1.66-.5,3.24-0.13,3.52.82Z" transform="translate(-45.06 -198.87)"/><path class="eacc7528-2301-4aaa-b10a-5a93d0f32bc6" d="M113.9,233.46A19.06,19.06,0,1,1,87,232.73,19.05,19.05,0,0,1,113.9,233.46Z" transform="translate(-45.06 -198.87)"/><path class="976a19bd-d95a-4c4a-90d1-7b81d81583f5" d="M86.75,232.71a21.35,21.35,0,0,0-5.61,20.16,18.81,18.81,0,0,0,19.4-4.8,21.34,21.34,0,0,0,5.61-20.16A18.82,18.82,0,0,0,86.75,232.71Z" transform="translate(-45.06 -198.87)"/><path class="4dba2ad4-9468-4f34-956f-9bd2c7ecff4c" d="M162,264.59c0.93,0.33,2.16-.72,2.74-2.36h0c0.59-1.63.3-3.22-.63-3.56l-49.2-17.58c-0.93-.33-2.16.72-2.74,2.35h0c-0.58,1.63-.3,3.22.63,3.56Z" transform="translate(-45.06 -198.87)"/><g class="ce5b188b-d50b-4d39-9e57-077603e2691d"><g class="ce5b188b-d50b-4d39-9e57-077603e2691d"><path class="2939412b-b882-4c87-99d8-c0fb33932ff4" d="M193.45,246.67a84.86,84.86,0,0,0-16.19-21,82.09,82.09,0,0,0-10.54-8.42,79.08,79.08,0,0,0-12-6.64,79.08,79.08,0,0,1,12,6.64,82.09,82.09,0,0,1,10.54,8.42A84.86,84.86,0,0,1,193.45,246.67Z" transform="translate(-45.06 -198.87)"/><g class="4b10977a-c250-4bd5-be17-3b627b467fbc"><g class="ce5b188b-d50b-4d39-9e57-077603e2691d"><path class="2939412b-b882-4c87-99d8-c0fb33932ff4" d="M193.45,246.67l-0.3-.54-0.3-.54-0.3-.53-0.31-.53,0.31,0.53,0.3,0.53,0.3,0.54,0.3,0.54" transform="translate(-45.06 -198.87)"/><path class="2939412b-b882-4c87-99d8-c0fb33932ff4" d="M192.24,244.54l-0.55-.93-0.57-.93-0.58-.92-0.59-.91h0l0.59,0.91,0.58,0.92,0.57,0.93,0.55,0.93" transform="translate(-45.06 -198.87)"/><path class="2939412b-b882-4c87-99d8-c0fb33932ff4" d="M189.95,240.84h0l-0.57-.85-0.58-.84-0.59-.84-0.6-.83,0.6,0.83,0.59,0.84,0.58,0.84,0.57,0.85" transform="translate(-45.06 -198.87)"/><path class="2939412b-b882-4c87-99d8-c0fb33932ff4" d="M187.63,237.48l-0.58-.78-0.59-.78-0.59-.77-0.6-.76h0l0.6,0.76,0.59,0.77,0.59,0.78,0.58,0.78" transform="translate(-45.06 -198.87)"/><path class="2939412b-b882-4c87-99d8-c0fb33932ff4" d="M185.27,234.39l-0.59-.73-0.6-.72-0.61-.72-0.62-.71h0l0.62,0.71,0.61,0.72,0.6,0.72,0.59,0.73" transform="translate(-45.06 -198.87)"/><path class="2939412b-b882-4c87-99d8-c0fb33932ff4" d="M182.85,231.5h0l-0.6-.68-0.61-.68-0.62-.67-0.63-.66,0.63,0.66,0.62,0.67,0.61,0.68,0.6,0.68" transform="translate(-45.06 -198.87)"/><path class="2939412b-b882-4c87-99d8-c0fb33932ff4" d="M180.39,228.81l-0.62-.64-0.63-.64-0.63-.63-0.64-.62,0.64,0.62,0.63,0.63,0.63,0.64,0.62,0.64" transform="translate(-45.06 -198.87)"/><path class="2939412b-b882-4c87-99d8-c0fb33932ff4" d="M177.87,226.28l-0.64-.61-0.65-.6-0.65-.6-0.66-.59,0.66,0.59,0.65,0.6,0.65,0.6,0.64,0.61" transform="translate(-45.06 -198.87)"/><path class="2939412b-b882-4c87-99d8-c0fb33932ff4" d="M175.27,223.88l-0.66-.58-0.67-.57-0.67-.56-0.68-.56,0.68,0.56,0.67,0.56,0.67,0.57,0.66,0.58" transform="translate(-45.06 -198.87)"/><path class="2939412b-b882-4c87-99d8-c0fb33932ff4" d="M172.59,221.62h0l-0.68-.55-0.69-.54-0.7-.53-0.7-.53,0.7,0.53,0.7,0.53,0.69,0.54,0.68,0.55" transform="translate(-45.06 -198.87)"/><path class="2939412b-b882-4c87-99d8-c0fb33932ff4" d="M169.82,219.47l-0.71-.52-0.72-.52-0.72-.51-0.73-.5,0.73,0.5,0.72,0.51,0.72,0.52,0.71,0.52" transform="translate(-45.06 -198.87)"/><path class="2939412b-b882-4c87-99d8-c0fb33932ff4" d="M166.94,217.42l-0.75-.5-0.75-.49-0.76-.48-0.77-.48,0.77,0.48,0.76,0.48,0.75,0.49,0.75,0.5" transform="translate(-45.06 -198.87)"/><path class="2939412b-b882-4c87-99d8-c0fb33932ff4" d="M163.91,215.47l-0.79-.48-0.8-.47-0.81-.46-0.81-.45,0.81,0.45,0.81,0.46,0.8,0.47,0.79,0.48" transform="translate(-45.06 -198.87)"/><path class="2939412b-b882-4c87-99d8-c0fb33932ff4" d="M160.7,213.6l-0.85-.46-0.86-.45-0.86-.44-0.87-.43h0l0.87,0.43,0.86,0.44,0.86,0.45,0.85,0.46" transform="translate(-45.06 -198.87)"/><path class="2939412b-b882-4c87-99d8-c0fb33932ff4" d="M157.26,211.82l-0.13-.06-0.13-.06-0.13-.06-0.13-.06,0.13,0.06,0.13,0.06,0.13,0.06,0.13,0.06" transform="translate(-45.06 -198.87)"/><path class="2939412b-b882-4c87-99d8-c0fb33932ff4" d="M156.74,211.57l-0.12-.06-0.13-.06-0.13-.06-0.13-.06,0.13,0.06,0.13,0.06,0.13,0.06,0.12,0.06" transform="translate(-45.06 -198.87)"/><path class="2939412b-b882-4c87-99d8-c0fb33932ff4" d="M156.24,211.33l-0.13-.06-0.13-.06-0.13-.06-0.13-.06,0.13,0.06,0.13,0.06,0.13,0.06,0.13,0.06" transform="translate(-45.06 -198.87)"/><path class="2939412b-b882-4c87-99d8-c0fb33932ff4" d="M155.73,211.1l-0.13-.06-0.13-.06-0.13-.06-0.13-.06,0.13,0.06,0.13,0.06,0.13,0.06,0.13,0.06" transform="translate(-45.06 -198.87)"/><path class="2939412b-b882-4c87-99d8-c0fb33932ff4" d="M155.23,210.86l-0.13-.06-0.13-.06-0.13-.06-0.13-.06,0.13,0.06,0.13,0.06,0.13,0.06,0.13,0.06" transform="translate(-45.06 -198.87)"/></g></g></g><g class="ce5b188b-d50b-4d39-9e57-077603e2691d"><path class="2939412b-b882-4c87-99d8-c0fb33932ff4" d="M68.15,241.73A59.94,59.94,0,0,1,81.9,218.06,57.47,57.47,0,0,1,103.14,204a63.47,63.47,0,0,1,25.53-4,74.94,74.94,0,0,1,27.09,6.59A74.94,74.94,0,0,0,128.66,200a63.47,63.47,0,0,0-25.53,4A57.47,57.47,0,0,0,81.9,218.06,59.94,59.94,0,0,0,68.15,241.73Z" transform="translate(-45.06 -198.87)"/><g class="ae8087e6-98da-4e7f-b3c2-58386075a839"><g class="ce5b188b-d50b-4d39-9e57-077603e2691d"><path class="2939412b-b882-4c87-99d8-c0fb33932ff4" d="M68.15,241.73a60.57,60.57,0,0,1,11-20.58,57,57,0,0,1,16.72-13.81,60.39,60.39,0,0,1,20.44-6.73,67.89,67.89,0,0,1,22.41.61,67.89,67.89,0,0,0-22.41-.61,60.39,60.39,0,0,0-20.44,6.73,57,57,0,0,0-16.72,13.81,60.57,60.57,0,0,0-11,20.58" transform="translate(-45.06 -198.87)"/><path class="2939412b-b882-4c87-99d8-c0fb33932ff4" d="M138.73,201.21l1.58,0.32,1.58,0.36,1.58,0.39,1.58,0.43-1.58-.43-1.58-.39-1.58-.36-1.58-.32" transform="translate(-45.06 -198.87)"/><path class="2939412b-b882-4c87-99d8-c0fb33932ff4" d="M145.06,202.72l1.25,0.37,1.25,0.39,1.25,0.41,1.25,0.44-1.25-.44-1.25-.41-1.25-.39-1.25-.37" transform="translate(-45.06 -198.87)"/><path class="2939412b-b882-4c87-99d8-c0fb33932ff4" d="M150.06,204.32l0.09,0,0.09,0,0.09,0,0.09,0-0.09,0-0.09,0-0.09,0-0.09,0" transform="translate(-45.06 -198.87)"/><path class="2939412b-b882-4c87-99d8-c0fb33932ff4" d="M150.42,204.45l0.45,0.16,0.45,0.17,0.44,0.17,0.44,0.17-0.44-.17-0.44-.17-0.45-.17-0.45-.16" transform="translate(-45.06 -198.87)"/><path class="2939412b-b882-4c87-99d8-c0fb33932ff4" d="M152.2,205.12l0.44,0.18,0.44,0.18,0.45,0.18,0.44,0.18h0l-0.44-.18-0.45-.18-0.44-.18-0.44-.18" transform="translate(-45.06 -198.87)"/><path class="2939412b-b882-4c87-99d8-c0fb33932ff4" d="M154,205.84h0l0.44,0.19,0.44,0.19,0.44,0.19,0.44,0.2-0.44-.2-0.44-.19-0.44-.19-0.44-.19" transform="translate(-45.06 -198.87)"/></g></g></g><g class="ce5b188b-d50b-4d39-9e57-077603e2691d"><path class="2939412b-b882-4c87-99d8-c0fb33932ff4" d="M122.14,337.25a71.62,71.62,0,0,0,13.91,3.82,64.23,64.23,0,0,0,13.43.83A59,59,0,0,0,162.08,340a55.56,55.56,0,0,0,11.42-4.44A53.52,53.52,0,0,0,191.66,320a55.58,55.58,0,0,0,6.19-10.58,60.71,60.71,0,0,0,3.94-12.21,66.26,66.26,0,0,0,1.42-13,71.46,71.46,0,0,0-1.06-13,77.51,77.51,0,0,0-3.32-12.61,82.34,82.34,0,0,0-5.37-12,82.34,82.34,0,0,1,5.37,12,77.51,77.51,0,0,1,3.32,12.61,71.46,71.46,0,0,1,1.06,13,66.26,66.26,0,0,1-1.42,13,60.71,60.71,0,0,1-3.94,12.21A55.58,55.58,0,0,1,191.66,320a53.52,53.52,0,0,1-18.16,15.47A55.56,55.56,0,0,1,162.08,340a59,59,0,0,1-12.59,1.93,64.23,64.23,0,0,1-13.43-.83A71.62,71.62,0,0,1,122.14,337.25Z" transform="translate(-45.06 -198.87)"/><g class="a9bc88a5-a903-4eaf-8c34-9c790e53d64e"><g class="ce5b188b-d50b-4d39-9e57-077603e2691d"><path class="2939412b-b882-4c87-99d8-c0fb33932ff4" d="M122.14,337.25A71.77,71.77,0,0,0,135.61,341a64.52,64.52,0,0,0,13,.94,59.33,59.33,0,0,0,12.26-1.66,55.84,55.84,0,0,0,11.2-4,55.84,55.84,0,0,1-11.2,4,59.33,59.33,0,0,1-12.26,1.66,64.52,64.52,0,0,1-13-.94,71.77,71.77,0,0,1-13.47-3.74" transform="translate(-45.06 -198.87)"/><path class="2939412b-b882-4c87-99d8-c0fb33932ff4" d="M172.09,336.23l0.19-.09,0.19-.09,0.19-.09,0.19-.1-0.19.1-0.19.09-0.19.09-0.19.09" transform="translate(-45.06 -198.87)"/><path class="2939412b-b882-4c87-99d8-c0fb33932ff4" d="M172.86,335.85l0.16-.08,0.16-.08,0.16-.08,0.16-.08,0.11-.06,0.11-.06,0.11-.06,0.11-.06-0.11.06-0.11.06-0.11.06-0.11.06-0.16.08-0.16.08-0.16.08-0.16.08" transform="translate(-45.06 -198.87)"/><path class="2939412b-b882-4c87-99d8-c0fb33932ff4" d="M173.95,335.28l0.74-.4,0.73-.41,0.73-.43,0.72-.44-0.72.44-0.73.43-0.73.41-0.74.4" transform="translate(-45.06 -198.87)"/><path class="2939412b-b882-4c87-99d8-c0fb33932ff4" d="M176.87,333.6l0.64-.4,0.64-.41,0.63-.42,0.62-.43-0.62.43-0.63.42-0.64.41-0.64.4" transform="translate(-45.06 -198.87)"/><path class="2939412b-b882-4c87-99d8-c0fb33932ff4" d="M179.4,331.94l0.57-.4,0.56-.41,0.56-.42,0.55-.43-0.55.43-0.56.42-0.56.41-0.57.4" transform="translate(-45.06 -198.87)"/><path class="2939412b-b882-4c87-99d8-c0fb33932ff4" d="M181.65,330.28h0l0.51-.41,0.51-.41,0.5-.42,0.5-.42h0l-0.5.42-0.5.42-0.51.41-0.51.41" transform="translate(-45.06 -198.87)"/><path class="2939412b-b882-4c87-99d8-c0fb33932ff4" d="M183.67,328.62h0l0.47-.41,0.47-.42,0.46-.42,0.46-.43-0.46.43-0.46.42-0.47.42-0.47.41" transform="translate(-45.06 -198.87)"/><path class="2939412b-b882-4c87-99d8-c0fb33932ff4" d="M185.54,326.94l0.44-.42,0.44-.43,0.43-.43,0.43-.44-0.43.44-0.43.43-0.44.43-0.44.42" transform="translate(-45.06 -198.87)"/><path class="2939412b-b882-4c87-99d8-c0fb33932ff4" d="M187.27,325.23l0.41-.43,0.41-.44,0.4-.44,0.4-.45-0.4.45-0.4.44-0.41.44-0.41.43" transform="translate(-45.06 -198.87)"/><path class="2939412b-b882-4c87-99d8-c0fb33932ff4" d="M188.88,323.47l0.39-.45,0.38-.45,0.38-.45,0.37-.46-0.37.46-0.38.45-0.38.45-0.39.45" transform="translate(-45.06 -198.87)"/><path class="2939412b-b882-4c87-99d8-c0fb33932ff4" d="M190.41,321.66l0.37-.46,0.36-.47,0.36-.47,0.35-.48-0.35.48-0.36.47-0.36.47-0.37.46" transform="translate(-45.06 -198.87)"/><path class="2939412b-b882-4c87-99d8-c0fb33932ff4" d="M191.85,319.79l0.35-.48,0.35-.49,0.34-.49,0.34-.5h0l-0.34.5-0.34.49-0.35.49-0.35.48" transform="translate(-45.06 -198.87)"/><path class="2939412b-b882-4c87-99d8-c0fb33932ff4" d="M193.23,317.83l0.34-.51,0.33-.51,0.33-.52,0.32-.52-0.32.52-0.33.52-0.33.51-0.34.51" transform="translate(-45.06 -198.87)"/><path class="2939412b-b882-4c87-99d8-c0fb33932ff4" d="M194.55,315.77l0.32-.54,0.32-.54,0.31-.55,0.31-.55-0.31.55-0.31.55-0.32.54-0.32.54" transform="translate(-45.06 -198.87)"/><path class="2939412b-b882-4c87-99d8-c0fb33932ff4" d="M195.81,313.59l0.31-.58,0.31-.58,0.3-.59,0.29-.59-0.29.59-0.3.59-0.31.58-0.31.58" transform="translate(-45.06 -198.87)"/><path class="2939412b-b882-4c87-99d8-c0fb33932ff4" d="M197,311.24l0.3-.63,0.3-.64,0.29-.64,0.28-.65-0.28.65-0.29.64-0.3.64-0.3.63" transform="translate(-45.06 -198.87)"/><path class="2939412b-b882-4c87-99d8-c0fb33932ff4" d="M198.19,308.69l0.29-.7,0.29-.7,0.28-.71,0.27-.72-0.27.72-0.28.71-0.29.7-0.29.7" transform="translate(-45.06 -198.87)"/><path class="2939412b-b882-4c87-99d8-c0fb33932ff4" d="M199.32,305.86l0.28-.79,0.27-.8,0.26-.8,0.25-.81-0.25.81-0.26.8-0.27.8-0.28.79" transform="translate(-45.06 -198.87)"/><path class="2939412b-b882-4c87-99d8-c0fb33932ff4" d="M200.4,302.66l0.22-.73,0.21-.73,0.2-.74,0.19-.74-0.19.74-0.2.74-0.21.73-0.22.73" transform="translate(-45.06 -198.87)"/><path class="2939412b-b882-4c87-99d8-c0fb33932ff4" d="M201.22,299.72v0" transform="translate(-45.06 -198.87)"/><path class="2939412b-b882-4c87-99d8-c0fb33932ff4" d="M201.25,299.59v0" transform="translate(-45.06 -198.87)"/><path class="2939412b-b882-4c87-99d8-c0fb33932ff4" d="M201.28,299.47v0" transform="translate(-45.06 -198.87)"/><path class="2939412b-b882-4c87-99d8-c0fb33932ff4" d="M201.32,299.34v0" transform="translate(-45.06 -198.87)"/><path class="2939412b-b882-4c87-99d8-c0fb33932ff4" d="M201.35,299.21v0" transform="translate(-45.06 -198.87)"/><path class="2939412b-b882-4c87-99d8-c0fb33932ff4" d="M201.38,299.08v0" transform="translate(-45.06 -198.87)"/><path class="2939412b-b882-4c87-99d8-c0fb33932ff4" d="M201.41,298.95v0" transform="translate(-45.06 -198.87)"/><path class="2939412b-b882-4c87-99d8-c0fb33932ff4" d="M201.44,298.82v0" transform="translate(-45.06 -198.87)"/><path class="2939412b-b882-4c87-99d8-c0fb33932ff4" d="M201.47,298.69v0" transform="translate(-45.06 -198.87)"/><path class="2939412b-b882-4c87-99d8-c0fb33932ff4" d="M201.5,298.56v0" transform="translate(-45.06 -198.87)"/><path class="2939412b-b882-4c87-99d8-c0fb33932ff4" d="M201.53,298.43v0" transform="translate(-45.06 -198.87)"/><path class="2939412b-b882-4c87-99d8-c0fb33932ff4" d="M201.56,298.3v0" transform="translate(-45.06 -198.87)"/><path class="2939412b-b882-4c87-99d8-c0fb33932ff4" d="M201.59,298.17v0" transform="translate(-45.06 -198.87)"/><path class="2939412b-b882-4c87-99d8-c0fb33932ff4" d="M201.62,298v-0.13h0V298" transform="translate(-45.06 -198.87)"/><path class="2939412b-b882-4c87-99d8-c0fb33932ff4" d="M201.65,297.91v0" transform="translate(-45.06 -198.87)"/><path class="2939412b-b882-4c87-99d8-c0fb33932ff4" d="M201.68,297.78v0" transform="translate(-45.06 -198.87)"/><path class="2939412b-b882-4c87-99d8-c0fb33932ff4" d="M201.71,297.65v0" transform="translate(-45.06 -198.87)"/><path class="2939412b-b882-4c87-99d8-c0fb33932ff4" d="M201.74,297.52v0" transform="translate(-45.06 -198.87)"/><path class="2939412b-b882-4c87-99d8-c0fb33932ff4" d="M201.76,297.39v-0.13a66.26,66.26,0,0,0,1.42-13,71.46,71.46,0,0,0-1.06-13,77.51,77.51,0,0,0-3.32-12.61,82.34,82.34,0,0,0-5.37-12,82.34,82.34,0,0,1,5.37,12,77.51,77.51,0,0,1,3.32,12.61,71.46,71.46,0,0,1,1.06,13,66.26,66.26,0,0,1-1.42,13v0.13" transform="translate(-45.06 -198.87)"/></g></g></g><path class="2939412b-b882-4c87-99d8-c0fb33932ff4" d="M68.15,241.73A59.94,59.94,0,0,1,81.9,218.06,57.47,57.47,0,0,1,103.14,204a63.47,63.47,0,0,1,25.53-4,74.94,74.94,0,0,1,27.09,6.59,86.27,86.27,0,0,1,24,16.09A90.78,90.78,0,0,1,197,245.06a85.6,85.6,0,0,1,9.3,26.22A73.6,73.6,0,0,1,206,299a62,62,0,0,1-10.75,24.4,57.27,57.27,0,0,1-19.36,16.63A61.19,61.19,0,0,1,150.21,347,72.38,72.38,0,0,1,120.84,342a85.29,85.29,0,0,1-27-16.81A90.67,90.67,0,0,1,74.65,300.3a84.39,84.39,0,0,1-9.09-29.16A71,71,0,0,1,68.15,241.73Zm125.3,4.95a84.86,84.86,0,0,0-16.19-21,82.09,82.09,0,0,0-10.54-8.42,79.08,79.08,0,0,0-12-6.64A73.62,73.62,0,0,0,142,206.3a66.65,66.65,0,0,0-12.65-1.78,61.34,61.34,0,0,0-12.27.69,57.34,57.34,0,0,0-11.59,3.11,54.46,54.46,0,0,0-10.59,5.47,53.09,53.09,0,0,0-9.22,7.76,54.19,54.19,0,0,0-7.46,10,58.53,58.53,0,0,0-5.3,12.15,64,64,0,0,0-2.6,13.53,69.4,69.4,0,0,0,.26,13.91,76,76,0,0,0,3,13.84,81.75,81.75,0,0,0,5.53,13.33,84.67,84.67,0,0,0,17.84,23.23,81.59,81.59,0,0,0,11.81,9,78,78,0,0,0,13.37,6.69A71.64,71.64,0,0,0,136,341.06a64.21,64.21,0,0,0,13.45.84A59,59,0,0,0,162.07,340a55.57,55.57,0,0,0,11.43-4.45A53.52,53.52,0,0,0,191.66,320a55.58,55.58,0,0,0,6.19-10.58,60.71,60.71,0,0,0,3.94-12.21,66.26,66.26,0,0,0,1.42-13,71.46,71.46,0,0,0-1.06-13,77.51,77.51,0,0,0-3.32-12.61,82.34,82.34,0,0,0-5.37-12" transform="translate(-45.06 -198.87)"/></g></g><path class="fccba7a2-c0dc-4aa3-8ff0-b2cf307a334c" d="M66.41,237.16" transform="translate(-45.06 -198.87)"/><path class="fccba7a2-c0dc-4aa3-8ff0-b2cf307a334c" d="M59.16,270.51" transform="translate(-45.06 -198.87)"/><path class="fccba7a2-c0dc-4aa3-8ff0-b2cf307a334c" d="M141.22,352.57" transform="translate(-45.06 -198.87)"/><path class="fccba7a2-c0dc-4aa3-8ff0-b2cf307a334c" d="M156.94,351" transform="translate(-45.06 -198.87)"/><path class="fccba7a2-c0dc-4aa3-8ff0-b2cf307a334c" d="M156.94,351" transform="translate(-45.06 -198.87)"/><path class="62ec489e-0305-497a-90e6-84d6f857e458" d="M57.18,247.8c-6.82,9-11.87,24.37-11.87,35.58,0,45.32,47.23,95.65,103.18,72.79" transform="translate(-45.06 -198.87)"/><path class="fccba7a2-c0dc-4aa3-8ff0-b2cf307a334c" d="M57.71,247.63" transform="translate(-45.06 -198.87)"/><path class="fccba7a2-c0dc-4aa3-8ff0-b2cf307a334c" d="M66.58,237.21" transform="translate(-45.06 -198.87)"/><line class="62ec489e-0305-497a-90e6-84d6f857e458" x1="31.03" y1="27.25" x2="12.03" y2="49.05"/><path class="fccba7a2-c0dc-4aa3-8ff0-b2cf307a334c" d="M66.32,254.14" transform="translate(-45.06 -198.87)"/><path class="fccba7a2-c0dc-4aa3-8ff0-b2cf307a334c" d="M52.32,291.38" transform="translate(-45.06 -198.87)"/><path class="fccba7a2-c0dc-4aa3-8ff0-b2cf307a334c" d="M60.38,284.35" transform="translate(-45.06 -198.87)"/><path class="fccba7a2-c0dc-4aa3-8ff0-b2cf307a334c" d="M67.1,305.52" transform="translate(-45.06 -198.87)"/><path class="fccba7a2-c0dc-4aa3-8ff0-b2cf307a334c" d="M74.45,299.56" transform="translate(-45.06 -198.87)"/><path class="fccba7a2-c0dc-4aa3-8ff0-b2cf307a334c" d="M53.6,317.35" transform="translate(-45.06 -198.87)"/><path class="fccba7a2-c0dc-4aa3-8ff0-b2cf307a334c" d="M59.1,312.62" transform="translate(-45.06 -198.87)"/><path class="fccba7a2-c0dc-4aa3-8ff0-b2cf307a334c" d="M46,274.5" transform="translate(-45.06 -198.87)"/><path class="fccba7a2-c0dc-4aa3-8ff0-b2cf307a334c" d="M51.82,268.52" transform="translate(-45.06 -198.87)"/><path class="fccba7a2-c0dc-4aa3-8ff0-b2cf307a334c" d="M72.66,331.81" transform="translate(-45.06 -198.87)"/><path class="fccba7a2-c0dc-4aa3-8ff0-b2cf307a334c" d="M80.34,325.79" transform="translate(-45.06 -198.87)"/><path class="fccba7a2-c0dc-4aa3-8ff0-b2cf307a334c" d="M102.85,343.07" transform="translate(-45.06 -198.87)"/><path class="fccba7a2-c0dc-4aa3-8ff0-b2cf307a334c" d="M111,337.26" transform="translate(-45.06 -198.87)"/><path class="fccba7a2-c0dc-4aa3-8ff0-b2cf307a334c" d="M88.14,353.68" transform="translate(-45.06 -198.87)"/><path class="fccba7a2-c0dc-4aa3-8ff0-b2cf307a334c" d="M94,349.08" transform="translate(-45.06 -198.87)"/><path class="fccba7a2-c0dc-4aa3-8ff0-b2cf307a334c" d="M118.21,358.16" transform="translate(-45.06 -198.87)"/><path class="fccba7a2-c0dc-4aa3-8ff0-b2cf307a334c" d="M128.57,351.64" transform="translate(-45.06 -198.87)"/><line class="62ec489e-0305-497a-90e6-84d6f857e458" x1="130.92" y1="141.07" x2="103.18" y2="157.43"/></svg>