<svg xmlns="http://www.w3.org/2000/svg" viewBox="0 0 385.61 327.04"><defs><style>.cls-1{fill:#e1e1e1;}.cls-2{fill:none;stroke-width:1.08px;}.cls-2,.cls-3,.cls-5,.cls-6,.cls-7{stroke:#008fb7;stroke-miterlimit:10;}.cls-10,.cls-3,.cls-5,.cls-6{fill:#fff;}.cls-3{stroke-width:0.7px;}.cls-4,.cls-7{fill:#008fb7;}.cls-5{stroke-width:1.24px;}.cls-6{stroke-width:2.45px;}.cls-7{font-size:29.26px;stroke-width:1.39px;font-family:Knowledge-UltraLight, Knowledge;}.cls-8{letter-spacing:0em;}.cls-9{letter-spacing:-0.02em;}</style></defs><title>infoton sign</title><g id="Layer_2" data-name="Layer 2"><g id="Layer_1-2" data-name="Layer 1"><path class="cls-1" d="M191.28,325.19,71.7,265.48a1.44,1.44,0,0,0-1.94.67l.16,3.67c-.29.59-.58,2.57,0,2.86L179.68,327a.28.28,0,0,0,.13,0h11.82a.27.27,0,0,0,.27-.19A1.53,1.53,0,0,0,191.28,325.19Z"/><path class="cls-1" d="M369.45,325.19,250.26,265.88a2.16,2.16,0,0,0-2.91,1l-1.46,3a1.19,1.19,0,0,0,.53,1.58l111.26,55.48a1,1,0,0,0,.44.1h10.79a1,1,0,0,0,.7-1.74Z"/><rect class="cls-1" x="245.94" y="136.04" width="16" height="4"/><rect class="cls-1" x="68.94" y="136.04" width="16" height="4"/><rect class="cls-1" x="68.94" y="204.04" width="16" height="4"/><rect class="cls-1" x="245.94" y="204.04" width="16" height="4"/><rect class="cls-2" x="69.44" y="0.54" width="15" height="272" rx="1" ry="1"/><rect class="cls-2" x="246.44" y="0.54" width="15" height="272" rx="1" ry="1"/><rect class="cls-3" x="0.35" y="163.06" width="323.05" height="40.47" rx="4.44" ry="4.44"/><path class="cls-1" d="M314.54,282H73.25a.37.37,0,0,0-.19.69c5.58,3.14,15.42,8.51,20,10.84A4.25,4.25,0,0,0,95,294H331a1.64,1.64,0,0,0,.73-3.11L323.94,287C320.17,285.15,314.8,282,314.54,282Z"/><path class="cls-1" d="M354.67,302.44a3.23,3.23,0,0,0-1.56-.4H112.74a1.17,1.17,0,0,0-.54,2.22c10.2,5.22,34,17.4,36.62,18.72a.59.59,0,0,0,.27.06H382.84a3.44,3.44,0,0,0,1.91-.47,2.69,2.69,0,0,0,.85-1.94,3.17,3.17,0,0,0-1.75-3.14C379.42,315.27,362.78,306.89,354.67,302.44Z"/><polygon class="cls-4" points="133.14 163.06 169.31 163.06 117.85 203.04 81.69 203.04 133.14 163.06"/><polygon class="cls-4" points="196.6 203.04 160.44 203.04 211.89 163.06 248.06 163.06 196.6 203.04"/><path class="cls-4" d="M.35,172v-5.8c0-1.71,2.82-3.09,6.3-3.09h5.15Z"/><path class="cls-4" d="M323.41,198.79v1.16c0,1.56-2.36,2.85-5.43,3.06Z"/><path class="cls-4" d="M54.39,163.06H90.56L39.1,203H6.66a11.61,11.61,0,0,1-3.18-.42Z"/><path class="cls-4" d="M275.35,203H239.18l51.46-40H317.1c3.2,0,5.84,1.17,6.24,2.69Z"/><rect class="cls-5" x="1.35" y="11.04" width="323.05" height="125" rx="7.81" ry="7.81" transform="translate(325.76 147.08) rotate(180)"/><rect class="cls-6" x="11.94" y="22.74" width="301" height="101.85" rx="5.16" ry="5.16" transform="translate(324.88 147.33) rotate(180)"/><rect class="cls-10" x="70.19" y="264.18" width="13.5" height="7.71" rx="0.96" ry="0.96"/><rect class="cls-10" x="247.19" y="264.18" width="13.5" height="7.71" rx="0.96" ry="0.96"/></g></g></svg>