<svg xmlns="http://www.w3.org/2000/svg" viewBox="0 0 474 72"><defs><style>.cls-1{fill:#fff;}</style></defs><title>TR logo hor white</title><g id="Layer_2" data-name="Layer 2"><g id="Layer_1-2" data-name="Layer 1"><path class="cls-1" d="M78.72,36a4.17,4.17,0,1,0-4.17,4.18A4.17,4.17,0,0,0,78.72,36Z"/><path class="cls-1" d="M76.34,23.74A3.6,3.6,0,1,0,74,28.28,3.61,3.61,0,0,0,76.34,23.74Z"/><path class="cls-1" d="M70.84,14.29a3.06,3.06,0,1,0-.77,4.27A3.06,3.06,0,0,0,70.84,14.29Z"/><path class="cls-1" d="M63.21,7.09a2.64,2.64,0,1,0,.35,3.71A2.62,2.62,0,0,0,63.21,7.09Z"/><path class="cls-1" d="M54.8,2.74a2.17,2.17,0,0,0-2.84,1,2.16,2.16,0,0,0,1,2.84,2.14,2.14,0,1,0,1.8-3.88Z"/><path class="cls-1" d="M46.78.58a1.84,1.84,0,1,0,1.43,2.17A1.83,1.83,0,0,0,46.78.58Z"/><path class="cls-1" d="M39.35,0a1.59,1.59,0,1,0,1.58,1.58A1.57,1.57,0,0,0,39.35,0Z"/><path class="cls-1" d="M8.32,36a4.16,4.16,0,1,0-4.16,4.18A4.16,4.16,0,0,0,8.32,36Z"/><path class="cls-1" d="M9.24,46a3.61,3.61,0,1,0-2.3,4.56A3.61,3.61,0,0,0,9.24,46Z"/><path class="cls-1" d="M12.91,54.23a3.07,3.07,0,0,0-5.05,3.49,3.1,3.1,0,0,0,4.27.76A3.05,3.05,0,0,0,12.91,54.23Z"/><path class="cls-1" d="M18.87,60.86a2.64,2.64,0,1,0-3.37,4.06,2.64,2.64,0,1,0,3.37-4.06Z"/><path class="cls-1" d="M25.71,65.38a2.11,2.11,0,0,0-2.83,1,2.14,2.14,0,1,0,2.83-1Z"/><path class="cls-1" d="M32.71,67.83A1.85,1.85,0,0,0,32,71.44a1.85,1.85,0,0,0,.76-3.61Z"/><path class="cls-1" d="M39.37,68.83A1.59,1.59,0,1,0,41,70.41,1.59,1.59,0,0,0,39.37,68.83Z"/><path class="cls-1" d="M4.69,28.29a3.6,3.6,0,1,0-2.3-4.55A3.6,3.6,0,0,0,4.69,28.29Z"/><path class="cls-1" d="M8.65,18.56a3.06,3.06,0,1,0-.77-4.27A3.08,3.08,0,0,0,8.65,18.56Z"/><path class="cls-1" d="M15.15,10.8a2.64,2.64,0,1,0,.36-3.71A2.62,2.62,0,0,0,15.15,10.8Z"/><path class="cls-1" d="M22.87,5.59a2.14,2.14,0,0,0,3.89-1.8,2.14,2.14,0,1,0-3.89,1.8Z"/><path class="cls-1" d="M30.51,2.74A1.85,1.85,0,1,0,32,.57,1.84,1.84,0,0,0,30.51,2.74Z"/><path class="cls-1" d="M71.78,50.57A3.61,3.61,0,1,0,69.5,46,3.61,3.61,0,0,0,71.78,50.57Z"/><path class="cls-1" d="M66.6,58.48a3.06,3.06,0,1,0-.79-4.25A3.06,3.06,0,0,0,66.6,58.48Z"/><path class="cls-1" d="M59.5,64.56a2.64,2.64,0,1,0,.36-3.71A2.64,2.64,0,0,0,59.5,64.56Z"/><path class="cls-1" d="M52,68.22a2.14,2.14,0,1,0,1-2.84A2.15,2.15,0,0,0,52,68.22Z"/><path class="cls-1" d="M44.59,70a1.84,1.84,0,1,0,3.61-.75,1.84,1.84,0,0,0-3.61.75Z"/><path class="cls-1" d="M65.76,21.63A3.18,3.18,0,1,0,64.48,26,3.21,3.21,0,0,0,65.76,21.63Z"/><path class="cls-1" d="M59.8,14.14a2.93,2.93,0,0,0-4.16.13,2.95,2.95,0,1,0,4.16-.13Z"/><path class="cls-1" d="M52.4,9.65A2.51,2.51,0,1,0,53.54,13,2.48,2.48,0,0,0,52.4,9.65Z"/><path class="cls-1" d="M44.83,7.81A2.11,2.11,0,1,0,44,12a2.11,2.11,0,1,0,.82-4.15Z"/><path class="cls-1" d="M37.55,8.07A1.63,1.63,0,1,0,39.3,9.58,1.64,1.64,0,0,0,37.55,8.07Z"/><path class="cls-1" d="M31.39,9.54a1.41,1.41,0,1,0,1.75.94A1.38,1.38,0,0,0,31.39,9.54Z"/><path class="cls-1" d="M26.21,11.86A1.21,1.21,0,1,0,27.37,14a1.24,1.24,0,0,0,.49-1.65A1.22,1.22,0,0,0,26.21,11.86Z"/><path class="cls-1" d="M18.54,47.32a3.18,3.18,0,1,0-1.27,4.33A3.19,3.19,0,0,0,18.54,47.32Z"/><path class="cls-1" d="M23,53.56a2.94,2.94,0,1,0,.14,4.17A2.95,2.95,0,0,0,23,53.56Z"/><path class="cls-1" d="M28.35,57.73a2.52,2.52,0,1,0,1.12,3.36A2.53,2.53,0,0,0,28.35,57.73Z"/><path class="cls-1" d="M34.71,60.05a2.12,2.12,0,1,0,1.68,2.47A2.12,2.12,0,0,0,34.71,60.05Z"/><path class="cls-1" d="M40.93,60.69a1.61,1.61,0,0,0-1.52,1.73,1.63,1.63,0,1,0,3.25-.22A1.61,1.61,0,0,0,40.93,60.69Z"/><path class="cls-1" d="M46.52,59.78a1.41,1.41,0,1,0,1.76.93A1.42,1.42,0,0,0,46.52,59.78Z"/><path class="cls-1" d="M51.34,58a1.21,1.21,0,0,0,1.17,2.13A1.2,1.2,0,0,0,53,58.5,1.21,1.21,0,0,0,51.34,58Z"/><path class="cls-1" d="M13.24,43.25a2.5,2.5,0,1,0-2.91-2A2.48,2.48,0,0,0,13.24,43.25Z"/><path class="cls-1" d="M12.43,35.23a2,2,0,1,0,.41-4.06,2,2,0,0,0-.41,4.06Z"/><path class="cls-1" d="M14,27.87a2,2,0,0,0,2.53-1.09,1.94,1.94,0,0,0-3.61-1.43A2,2,0,0,0,14,27.87Z"/><path class="cls-1" d="M17.2,21.63a1.62,1.62,0,0,0,2.28-.36A1.59,1.59,0,0,0,19.15,19a1.62,1.62,0,0,0-2.28.33A1.64,1.64,0,0,0,17.2,21.63Z"/><path class="cls-1" d="M21.27,16.94a1.42,1.42,0,1,0,.17-2A1.44,1.44,0,0,0,21.27,16.94Z"/><path class="cls-1" d="M66.37,33.68a2.5,2.5,0,0,0-.9-4.92,2.5,2.5,0,1,0,.9,4.92Z"/><path class="cls-1" d="M65.86,40.83A2,2,0,1,0,64,38.59,2,2,0,0,0,65.86,40.83Z"/><path class="cls-1" d="M63.32,47.72a1.93,1.93,0,0,0,1.44-3.59,1.92,1.92,0,0,0-2.51,1.08A2,2,0,0,0,63.32,47.72Z"/><path class="cls-1" d="M59.57,53a1.64,1.64,0,1,0-.34-2.29A1.64,1.64,0,0,0,59.57,53Z"/><path class="cls-1" d="M55.27,56.88a1.42,1.42,0,0,0,2,.17,1.39,1.39,0,0,0,.16-2,1.44,1.44,0,0,0-2-.16A1.42,1.42,0,0,0,55.27,56.88Z"/><path class="cls-1" d="M55,20.5a3,3,0,0,0-4.23,0,2.92,2.92,0,0,0,0,4.15,3,3,0,0,0,4.21,0A2.93,2.93,0,0,0,55,20.5Z"/><path class="cls-1" d="M47.46,15.87a2.68,2.68,0,1,0-2,5,2.68,2.68,0,0,0,2-5Z"/><path class="cls-1" d="M39.4,14.9a2.35,2.35,0,1,0,0,4.69,2.32,2.32,0,0,0,2.33-2.34A2.36,2.36,0,0,0,39.4,14.9Z"/><path class="cls-1" d="M31.63,17.3a1.75,1.75,0,0,0-1,2.27,1.81,1.81,0,0,0,2.31,1,1.77,1.77,0,0,0,.93-2.31A1.72,1.72,0,0,0,31.63,17.3Z"/><path class="cls-1" d="M27.88,47.37a3,3,0,0,0-4.23,4.19,3,3,0,0,0,4.23,0A3,3,0,0,0,27.88,47.37Z"/><path class="cls-1" d="M33.2,51.2a2.68,2.68,0,1,0-2,5,2.65,2.65,0,0,0,3.46-1.45A2.71,2.71,0,0,0,33.2,51.2Z"/><path class="cls-1" d="M39.25,52.42a2.37,2.37,0,0,0-2.36,2.35,2.37,2.37,0,1,0,2.36-2.35Z"/><path class="cls-1" d="M45.68,51.51a1.72,1.72,0,0,0-.95,2.27,1.78,1.78,0,0,0,2.29,1A1.73,1.73,0,0,0,48,52.45,1.71,1.71,0,0,0,45.68,51.51Z"/><path class="cls-1" d="M22.44,45.26A2.48,2.48,0,0,0,23.86,42a2.43,2.43,0,0,0-3.21-1.39,2.49,2.49,0,0,0,1.8,4.65Z"/><path class="cls-1" d="M20.54,37.64a1.94,1.94,0,0,0,.07-3.87,1.93,1.93,0,0,0-2,1.88A2,2,0,0,0,20.54,37.64Z"/><path class="cls-1" d="M21.62,30.4a1.64,1.64,0,0,0,1.27-3,1.62,1.62,0,0,0-2.12.89A1.65,1.65,0,0,0,21.62,30.4Z"/><path class="cls-1" d="M58,31.44a2.49,2.49,0,0,0-1.79-4.66A2.49,2.49,0,1,0,58,31.44Z"/><path class="cls-1" d="M58,38.29a1.94,1.94,0,0,0,.07-3.89,2,2,0,0,0-2,1.9A2,2,0,0,0,58,38.29Z"/><path class="cls-1" d="M55.74,44.62a1.62,1.62,0,1,0,1.26-3,1.55,1.55,0,0,0-2.09.86A1.59,1.59,0,0,0,55.74,44.62Z"/><path class="cls-1" d="M25.14,24.07a1.59,1.59,0,0,0,2.31,0,1.61,1.61,0,0,0,0-2.27,1.62,1.62,0,0,0-2.3,2.28Z"/><path class="cls-1" d="M51.17,50.25a1.57,1.57,0,0,0,2.29,0,1.51,1.51,0,0,0,0-2.23,1.6,1.6,0,0,0-2.28,0A1.63,1.63,0,0,0,51.17,50.25Z"/><path class="cls-1" d="M36.34,22.39a2.33,2.33,0,0,0-1.82,2.74,2.36,2.36,0,0,0,2.81,1.76,2.3,2.3,0,1,0-1-4.49Z"/><path class="cls-1" d="M29.56,26.18a2.22,2.22,0,1,0,3.13,0A2.24,2.24,0,0,0,29.56,26.18Z"/><path class="cls-1" d="M26.78,32.7a1.49,1.49,0,1,0,2.87.8,1.49,1.49,0,0,0-2.87-.8Z"/><path class="cls-1" d="M41.43,45.28A2.32,2.32,0,1,0,44.24,47,2.37,2.37,0,0,0,41.43,45.28Z"/><path class="cls-1" d="M46.09,42.84a2.29,2.29,0,0,0,0,3.18,2.22,2.22,0,0,0,3.14-3.15A2.24,2.24,0,0,0,46.09,42.84Z"/><path class="cls-1" d="M49.12,38.67a1.49,1.49,0,0,0,1,1.84A1.53,1.53,0,0,0,52,39.45a1.5,1.5,0,0,0-2.9-.78Z"/><path class="cls-1" d="M45.44,25.82a2,2,0,0,0-1.18-2.61A2.05,2.05,0,1,0,42.79,27,2.1,2.1,0,0,0,45.44,25.82Z"/><path class="cls-1" d="M37.19,47.83A2,2,0,0,0,36,45.21a2.05,2.05,0,1,0-1.46,3.84A2.08,2.08,0,0,0,37.19,47.83Z"/><path class="cls-1" d="M49.38,30.15A1.56,1.56,0,0,0,49.65,28a1.58,1.58,0,0,0-2.15-.25,1.5,1.5,0,0,0-.23,2.11A1.48,1.48,0,0,0,49.38,30.15Z"/><path class="cls-1" d="M31.23,44.4a1.56,1.56,0,0,0,.28-2.15A1.59,1.59,0,0,0,29.35,42a1.53,1.53,0,0,0,1.88,2.4Z"/><path class="cls-1" d="M50.77,34.85a1.12,1.12,0,0,0,.84-1.28,1.08,1.08,0,0,0-1.29-.86A1.05,1.05,0,0,0,49.46,34,1.11,1.11,0,0,0,50.77,34.85Z"/><path class="cls-1" d="M28.57,39.49a1.12,1.12,0,0,0,.84-1.28,1.08,1.08,0,0,0-1.29-.85,1,1,0,0,0-.85,1.24A1.1,1.1,0,0,0,28.57,39.49Z"/><path class="cls-1" d="M122.65,27.34h-7.22V48.12a.73.73,0,0,1-.73.72h-3.58a.73.73,0,0,1-.72-.72V27.34h-7.23a.67.67,0,0,1-.73-.65V23.83a.7.7,0,0,1,.73-.69h19.47a.69.69,0,0,1,.72.69v2.86A.67.67,0,0,1,122.65,27.34Z"/><path class="cls-1" d="M149.48,48.12V23.83a.7.7,0,0,0-.72-.69h-3.58a.7.7,0,0,0-.73.69v9.4H133v-9.4a.69.69,0,0,0-.72-.69h-3.58a.69.69,0,0,0-.73.69V48.12a.73.73,0,0,0,.73.72h3.58a.73.73,0,0,0,.72-.72V37.64h11.46V48.12a.73.73,0,0,0,.73.72h3.58A.73.73,0,0,0,149.48,48.12Z"/><path class="cls-1" d="M166.69,22.85c-6,0-11.5,3.33-11.5,11.29v3.7c0,8,5.53,11.29,11.5,11.29s11.5-3.33,11.5-11.29v-3.7C178.2,26.18,172.67,22.85,166.69,22.85Zm6.43,15c0,4.78-2.88,6.91-6.43,6.91s-6.43-2.13-6.43-6.91v-3.7c0-4.77,2.89-6.91,6.43-6.91s6.43,2.14,6.43,6.91Z"/><path class="cls-1" d="M210,48.3V24.59a1.45,1.45,0,0,0-1.45-1.45h-3a1.52,1.52,0,0,0-1.34.87L197.3,38.14c-.19.33-.26.51-.4.51s-.23-.18-.4-.51L189.55,24a1.52,1.52,0,0,0-1.34-.87h-3a1.45,1.45,0,0,0-1.45,1.45V48.3a.56.56,0,0,0,.62.54h3.65a.69.69,0,0,0,.58-.72V32.47c0-.25,0-.36.11-.36s.11.11.18.21l5.88,12.94a1.3,1.3,0,0,0,1.15.62h1.88a1.3,1.3,0,0,0,1.15-.62l5.84-12.94c.08-.11.15-.21.18-.21s.12.11.12.36V48.12c0,.36.25.72.57.72h3.66A.56.56,0,0,0,210,48.3Z"/><path class="cls-1" d="M290.3,47.4V23.83a.67.67,0,0,0-.69-.69H286.5a.66.66,0,0,0-.69.69V41.68c0,.21-.1.33-.18.33s-.22-.11-.29-.29L275.14,24.3c-.44-.95-.83-1.16-1.59-1.16h-3.91a1.44,1.44,0,0,0-1.44,1.45V48.12a.72.72,0,0,0,.72.72H272a.7.7,0,0,0,.69-.72v-17c0-.21.08-.29.18-.29s.22.08.32.29L283,47.54a1.93,1.93,0,0,0,2.2,1.3h3.66A1.45,1.45,0,0,0,290.3,47.4Z"/><path class="cls-1" d="M235,41.58c0-3.47-2-5.27-5-6.5-2.4-1-4.52-1.79-6.12-2.42s-3-1.73-3-2.92c0-1.63,2-2.57,4.69-2.57a77,77,0,0,1,8,.66h.07a.62.62,0,0,0,.61-.65V24.5a.73.73,0,0,0-.65-.68,35.63,35.63,0,0,0-7.83-1c-6.73,0-9.94,2.89-9.94,6.88a6.47,6.47,0,0,0,4.27,6.33c3.16,1.3,9.63,2.81,9.63,5.52,0,2.1-1,3.25-4.2,3.25a65.7,65.7,0,0,1-8.18-.65h-.07a.69.69,0,0,0-.69.69v2.61a.77.77,0,0,0,.69.72,39.4,39.4,0,0,0,8.18,1C232.75,49.15,235,45.24,235,41.58Z"/><path class="cls-1" d="M251.09,22.85c-6,0-11.5,3.33-11.5,11.29v3.7c0,8,5.53,11.29,11.5,11.29s11.5-3.33,11.5-11.29v-3.7C262.58,26.18,257.06,22.85,251.09,22.85Zm6.43,15c0,4.78-2.89,6.91-6.43,6.91s-6.43-2.13-6.43-6.91v-3.7c0-4.77,2.89-6.91,6.43-6.91s6.43,2.14,6.43,6.91Z"/><path class="cls-1" d="M328.19,48.12l-5.68-9.68a7,7,0,0,0,4.88-7.08V31c0-6.18-5.15-8.18-10.72-8.18a74.4,74.4,0,0,0-8.57.47c-.73.11-1.16.36-1.16,1.08V48.12a.73.73,0,0,0,.72.72h3.62a.7.7,0,0,0,.69-.72V39.2c.83,0,3.76.15,4.7.15h.8l5.21,8.77c.18.36.33.72.72.72h4.42a.4.4,0,0,0,.43-.43A.47.47,0,0,0,328.19,48.12ZM322.4,31.36c0,3.18-2,3.9-5.72,3.9-.62,0-4.13-.07-4.7-.11V27.3c.65-.07,3.94-.15,4.7-.15,3.62,0,5.72,1.16,5.72,3.87Z"/><path class="cls-1" d="M337.91,37.64h11.58a.73.73,0,0,0,.73-.72V34.31a.73.73,0,0,0-.73-.72H337.91V30.27c0-3,.12-3.11,2.85-3.11h9.16a.73.73,0,0,0,.73-.73V24.12c0-.51-.18-.69-.73-.76a49.21,49.21,0,0,0-7.82-.5c-6,0-9.19,0-9.19,7.41V41.72c0,7.46,3.19,7.42,9.19,7.42a48.33,48.33,0,0,0,7.82-.51c.54-.07.73-.25.73-.76V45.55a.73.73,0,0,0-.73-.72h-9.16c-2.74,0-2.85-.08-2.85-3.11Z"/><path class="cls-1" d="M377.74,38.89V23.83a.69.69,0,0,0-.73-.69h-3.58a.69.69,0,0,0-.72.69V38.89c0,4.13-1.9,6.08-5.81,6.08s-5.81-2-5.81-6.08V23.83a.69.69,0,0,0-.73-.69h-3.57a.7.7,0,0,0-.73.69V38.89c0,7.71,5,10.24,10.84,10.24S377.74,46.6,377.74,38.89Z"/><path class="cls-1" d="M402.25,26.69V23.83a.69.69,0,0,0-.72-.69H382.05a.69.69,0,0,0-.72.69v2.86a.66.66,0,0,0,.72.65h7.22V48.12a.73.73,0,0,0,.72.72h3.58a.73.73,0,0,0,.73-.72V27.34h7.22A.66.66,0,0,0,402.25,26.69Z"/><path class="cls-1" d="M451,48.12l-5.69-9.68a7,7,0,0,0,4.89-7.08V31c0-6.18-5.14-8.18-10.72-8.18a74.35,74.35,0,0,0-8.57.47c-.72.11-1.16.36-1.16,1.08V48.12a.73.73,0,0,0,.73.72h3.62a.69.69,0,0,0,.68-.72V39.2c.84,0,3.76.15,4.7.15h.81l5.22,8.77c.18.36.32.72.72.72h4.42a.4.4,0,0,0,.43-.43A.48.48,0,0,0,451,48.12Zm-5.79-16.76c0,3.18-2,3.9-5.73,3.9-.61,0-4.12-.07-4.7-.11V27.3c.65-.07,3.94-.15,4.7-.15,3.62,0,5.73,1.16,5.73,3.87Z"/><path class="cls-1" d="M474,41.58c0-3.47-2-5.27-5-6.5-2.41-1-4.51-1.79-6.12-2.42s-3-1.73-3-2.92c0-1.63,2-2.57,4.69-2.57a77,77,0,0,1,8,.66h.07a.62.62,0,0,0,.62-.65V24.5a.73.73,0,0,0-.65-.68,35.7,35.7,0,0,0-7.84-1c-6.73,0-9.93,2.89-9.93,6.88a6.48,6.48,0,0,0,4.26,6.33c3.16,1.3,9.64,2.81,9.64,5.52,0,2.1-1,3.25-4.2,3.25a65.7,65.7,0,0,1-8.18-.65h-.07a.69.69,0,0,0-.69.69v2.61a.77.77,0,0,0,.69.72,39.3,39.3,0,0,0,8.18,1C471.72,49.15,474,45.24,474,41.58Z"/><path class="cls-1" d="M411,37.64h11.58a.72.72,0,0,0,.72-.72V34.31a.72.72,0,0,0-.72-.72H411V30.27c0-3,.11-3.11,2.86-3.11H423a.73.73,0,0,0,.72-.73V24.12c0-.51-.18-.69-.72-.76a49.31,49.31,0,0,0-7.82-.5c-6,0-9.2,0-9.2,7.41V41.72c0,7.46,3.18,7.42,9.2,7.42a48.43,48.43,0,0,0,7.82-.51c.54-.07.72-.25.72-.76V45.55a.73.73,0,0,0-.72-.72h-9.17c-2.74,0-2.86-.08-2.86-3.11Z"/></g></g></svg>