<?xml version="1.0" encoding="UTF-8"?>
<!-- Generator: Adobe Illustrator 15.0.2, SVG Export Plug-In . SVG Version: 6.00 Build 0)  -->
<!DOCTYPE svg PUBLIC "-//W3C//DTD SVG 1.1//EN" "http://www.w3.org/Graphics/SVG/1.1/DTD/svg11.dtd">
<svg xmlns="http://www.w3.org/2000/svg" xmlns:xlink="http://www.w3.org/1999/xlink" version="1.1" id="Layer_1" x="0px" y="0px" width="512px" height="591.569px" viewBox="-0.331 0 512 591.569" enable-background="new -0.331 0 512 591.569" xml:space="preserve">
<path d="M-0.331,335.554c0-3.856,0.744-7.727,2.274-11.415c4.621-11.159,15.504-18.441,27.582-18.441h101.99V29.856  C131.515,13.368,144.883,0,161.37,0h188.591c16.488,0,29.856,13.368,29.856,29.856v275.841h101.996  c12.071,0,22.961,7.282,27.582,18.441c4.629,11.152,2.049,24.003-6.473,32.524L276.779,582.814  c-10.088,10.081-25.861,11.641-37.706,3.718c-1.778-1.195-3.39-2.537-4.825-4.023C225.201,573.47,8.409,356.663,8.409,356.663  C2.694,350.955-0.331,343.324-0.331,335.554z M191.227,59.712v275.842c0,16.488-13.368,29.856-29.856,29.856h-59.785  l154.077,154.084L409.725,365.41h-59.771c-16.488,0-29.856-13.368-29.856-29.856V59.712H191.227z" fill="#FF8C00"/>
</svg>
