<?xml version="1.0" encoding="utf-8"?><!DOCTYPE svg PUBLIC "-//W3C//DTD SVG 1.1 Tiny//EN" "http://www.w3.org/Graphics/SVG/1.1/DTD/svg11-tiny.dtd"><svg version="1.1" xmlns="http://www.w3.org/2000/svg" xmlns:xlink="http://www.w3.org/1999/xlink" x="0px" y="0px" width="16px" height="18px" viewBox="-300 -250 900 900" xml:space="preserve"><path fill="#FF8800 " d="M 0 200 Q 0 0 200 0 Q 300 0 325 25 Q 475 -75 450 -150 L 400 -200 L 600 -200 L 600 0 L 550 -50 Q 475 -75 375 75 Q 400 100 400 200 Q 400 300 375 325 Q 475 475 550 450 L 600 400 L 600 600 L 400 600 L 450 550 Q 475 475 325 375 Q 300 400 200 400 Q 400 400 200 400 Q 0 400 0 200"/><path fill="#FF8800 " d="M 50 350 L -150 350 L -100 400 Q -125 525 -300 675 L -275 700 Q -125 525 0 500 L 50 550" /><path fill="#FF8800 " d="M 50 50 L -150 50 L -100 0 Q -125 -125 -300 -275 L -275 -300 Q -125 -125 0 -100 L 50 -150" /><path fill="#FFCC00 " d="M 220 10 Q 25 100 50 340 Q -50 20 220 10" /></svg>