<?xml version="1.0" encoding="UTF-8" standalone="no"?>
<svg
   xmlns:svg="http://www.w3.org/2000/svg"
   xmlns="http://www.w3.org/2000/svg"
   width="16"
   height="16"
   viewBox="0 0 512 512"
   id="svg2"
   version="1.0">
  <g id="layer1" transform="translate(0,-87.219299)">
    <g id="gear">
      <path id="path" 
         style="fill:#ff8000"
         d="M 419.7259,577.84737 C 419.0939,577.51812 418.40463,576.98597 418.1942,576.66482 C 417.98375,576.34365 417.4321,575.68542 416.9683,575.2021 C 415.57423,573.74937 412.63185,570.44065 411.33872,568.87162 C 408.37655,565.27742 404.2043,560.52122 400.25965,556.2419 C 399.23372,555.1289 398.28555,554.02162 398.15263,553.7813 C 398.0197,553.54095 397.04207,552.37325 395.98013,551.18642 C 394.91817,549.9996 393.92312,548.7928 393.76893,548.50465 C 393.6147,548.2165 393.238,547.84137 392.93178,547.67102 C 392.3893,547.36927 391.72367,547.28382 385.75,546.74915 C 384.16875,546.60762 382.51148,546.38272 382.06715,546.24935 C 381.62285,546.116 379.59785,545.93277 377.56715,545.8422 L 373.875,545.6775 L 372.47397,546.7609 C 370.66122,548.16265 369.2122,549.36282 367.91572,550.53627 C 365.8738,552.38442 363.73933,554.17002 361.12235,556.2193 C 360.33218,556.83805 359.05327,557.8879 358.28035,558.55232 C 357.5074,559.21672 356.425,560.1457 355.875,560.61667 C 355.325,561.08767 354.48125,561.8139 354,562.23052 C 353.0807,563.02637 351.5805,564.26067 349,566.3443 C 346.46112,568.39432 344.9198,569.6941 344.125,570.4553 C 343.7125,570.85035 342.8809,571.4193 342.277,571.71962 L 341.17903,572.26567 L 339.777,571.58837 C 339.0059,571.21587 338.1486,570.70467 337.87188,570.4524 C 337.59517,570.20012 336.80768,569.75005 336.12188,569.45225 C 335.4361,569.15442 334.59215,568.64705 334.24645,568.32475 C 333.90075,568.00242 333.1287,567.56612 332.53075,567.35515 C 331.93282,567.1442 331.05863,566.63357 330.5881,566.22045 C 330.11757,565.80732 329.59062,565.4693 329.41707,565.4693 C 329.24355,565.4693 328.33077,564.96305 327.3887,564.3443 C 326.44665,563.72555 325.5277,563.2193 325.34663,563.2193 C 325.16555,563.2193 324.63243,562.88127 324.1619,562.46815 C 323.69138,562.05502 322.84077,561.55275 322.2717,561.35195 C 321.70263,561.15117 320.62117,560.45522 319.8685,559.80542 C 318.25178,558.40962 318.20713,558.13147 319.11807,555.13045 C 319.45802,554.01057 319.91025,551.57555 320.12302,549.7193 C 320.33582,547.86305 320.7867,545.38805 321.125,544.2193 C 321.4633,543.05055 321.91335,540.57555 322.1251,538.7193 C 322.33688,536.86305 322.78592,534.37795 323.123,533.19685 C 323.46007,532.01575 323.91002,529.54075 324.12288,527.69685 C 324.33575,525.85295 324.78365,523.38805 325.11822,522.2193 C 326.22372,518.35735 326.23725,518.53535 324.6341,515.84875 C 323.85318,514.54005 323.12765,513.4693 323.02185,513.4693 C 322.91602,513.4693 322.5312,512.9213 322.16665,512.2515 C 321.80213,511.58172 321.32547,510.88567 321.10743,510.70472 C 320.8894,510.52375 320.44965,509.8624 320.13025,509.235 C 319.81082,508.60762 319.2571,507.82157 318.89975,507.48822 C 318.54237,507.15487 318.25,506.74512 318.25,506.57765 C 318.25,505.97432 315.39445,502.47617 314.59055,502.09472 C 314.14393,501.88277 312.46665,501.53732 310.86327,501.32705 C 309.2599,501.11677 307.06957,500.66722 305.9959,500.32805 C 304.92222,499.98887 302.72848,499.53887 301.1209,499.32805 C 299.51332,499.11722 297.30763,498.66345 296.21932,498.31965 C 295.13102,497.97587 292.93888,497.5331 291.34787,497.33572 C 289.75688,497.13837 287.53972,496.6877 286.42087,496.33425 C 285.30203,495.98082 283.07407,495.52915 281.46985,495.33052 C 278.2817,494.93582 275.60915,494.21527 274.74847,493.51832 C 274.30463,493.15892 274.1585,492.68547 273.9969,491.08325 C 273.74665,488.6019 273.57138,487.587 272.98198,485.2061 C 272.72487,484.1676 272.33638,481.3551 272.11865,478.9561 C 271.8916,476.45467 271.462,473.562 271.11138,472.174 C 270.77513,470.84282 270.5,469.31215 270.5,468.77247 C 270.5,467.87047 270.61482,467.70542 271.92257,466.72742 C 272.705,466.1423 273.784,465.50872 274.32038,465.31947 C 274.85673,465.13022 275.61933,464.70297 276.01502,464.37002 C 276.41072,464.03705 277.28725,463.58105 277.96285,463.35665 C 278.63842,463.13225 279.38847,462.73065 279.6296,462.46422 C 279.87072,462.19777 280.69957,461.74427 281.4715,461.45645 C 282.24343,461.16862 283.10113,460.722 283.37752,460.46397 C 283.6539,460.20595 284.54537,459.7006 285.35855,459.34097 C 286.17175,458.98132 287.10577,458.47575 287.43415,458.21742 C 287.76255,457.95912 288.44607,457.61325 288.95312,457.44882 C 289.46015,457.28442 290.2023,456.9124 290.60235,456.6221 C 291.33763,456.08852 293.42042,454.97405 296.62985,453.39685 C 297.595,452.92255 298.5318,452.35722 298.71157,452.14057 C 298.89138,451.92395 299.59582,451.56157 300.277,451.33532 C 300.95817,451.10907 301.8315,450.65807 302.2177,450.3331 C 302.60393,450.00812 303.52855,449.5123 304.27245,449.23122 C 305.01635,448.95017 306.14247,448.24147 306.77495,447.65635 C 307.78855,446.71862 307.95713,446.40942 308.19688,445.0483 C 308.34647,444.199 308.76067,442.8873 309.11735,442.1334 C 309.474,441.3795 309.9291,439.90915 310.1287,438.86597 C 310.32827,437.8228 310.759,436.4349 311.08582,435.7818 C 311.75398,434.4466 312.5,431.3851 312.5,429.97837 C 312.5,428.64427 311.89963,426.83765 311.11395,425.8076 C 310.74095,425.31855 310.28663,424.42287 310.10435,423.8172 C 309.92205,423.21155 309.4951,422.3511 309.15555,421.90515 C 308.816,421.45917 308.30035,420.45767 308.00965,419.67957 C 307.71895,418.90147 307.32088,418.13185 307.125,417.9693 C 306.92913,417.80675 306.53722,417.05457 306.25408,416.2978 C 305.97092,415.54105 305.46977,414.56692 305.14038,414.1331 C 304.811,413.69925 304.31318,412.74105 304.0341,412.00375 C 303.75505,411.26645 303.35053,410.4685 303.13518,410.23055 C 302.91985,409.9926 302.47497,409.11232 302.1466,408.2744 C 301.8182,407.43645 301.26817,406.37815 300.92432,405.92257 C 300.58045,405.46702 300.1822,404.66362 300.0393,404.13722 C 299.8964,403.61085 299.49403,402.8059 299.14513,402.34845 C 298.7962,401.891 298.27907,400.89755 297.99592,400.1408 C 297.71277,399.38402 297.32088,398.63185 297.125,398.4693 C 296.92913,398.30675 296.53277,397.54267 296.24418,396.77137 C 295.9556,396.00005 295.38885,394.9194 294.98475,394.3699 C 293.82235,392.78927 293.96393,392.14505 295.92437,390.0943 C 296.8445,389.1318 298.6657,387.16305 299.97147,385.7193 C 301.27725,384.27555 303.25223,382.1347 304.3603,380.96185 C 305.4684,379.789 307.49698,377.62375 308.86825,376.1502 C 310.8549,374.01542 311.53872,373.4378 312.23355,373.30745 C 313.36238,373.09567 314.92167,373.5221 316.36458,374.43715 C 316.99698,374.83822 317.93305,375.24377 318.4447,375.3384 C 318.95638,375.43305 319.95765,375.8424 320.6698,376.2481 C 321.38193,376.6538 322.55138,377.16 323.26857,377.37297 C 323.98575,377.58595 324.99557,378.04015 325.5126,378.3823 C 326.02963,378.72445 327.09477,379.17207 327.87963,379.37702 C 328.66447,379.582 329.7319,380.03112 330.2517,380.3751 C 330.77148,380.71907 331.78322,381.15522 332.5,381.3443 C 333.21677,381.53337 334.21545,381.96087 334.71925,382.29427 C 335.22305,382.62767 336.2926,383.09155 337.09602,383.32512 C 337.89943,383.55867 338.98332,384.03205 339.5047,384.37707 C 340.02605,384.7221 341.09477,385.17207 341.87963,385.37702 C 342.66447,385.582 343.71952,386.02292 344.22418,386.3569 C 344.72885,386.69085 345.7214,387.13625 346.42985,387.34662 C 347.13832,387.55702 348.37158,388.07297 349.17042,388.4932 C 350.82855,389.36542 351.54545,389.33655 353.05638,388.33667 C 353.57313,387.9947 354.58747,387.59255 355.31047,387.44302 C 356.03345,387.2935 357.20238,386.851 357.90807,386.4597 C 358.61378,386.0684 359.90752,385.56547 360.78307,385.34207 C 361.65862,385.1187 362.79215,384.66372 363.30198,384.33102 C 363.81182,383.99832 364.76807,383.60797 365.42698,383.46355 C 366.0859,383.31912 366.81732,383.1427 367.05235,383.0715 C 367.65452,382.88907 369.69277,379.73892 370.1138,378.33995 C 370.30732,377.6969 370.7478,376.74447 371.0926,376.22342 C 371.43743,375.70237 371.89782,374.66275 372.11575,373.91315 C 372.33365,373.16355 372.78782,372.17632 373.125,371.7193 C 373.46218,371.26227 373.91635,370.27505 374.13425,369.52545 C 374.35218,368.77585 374.80228,367.75182 375.13445,367.24985 C 375.46665,366.74787 375.90207,365.79347 376.10205,365.12897 C 376.30205,364.46445 376.7478,363.49447 377.0926,362.97342 C 377.43743,362.45237 377.89782,361.41275 378.11575,360.66315 C 378.33365,359.91355 378.78782,358.92632 379.125,358.4693 C 379.46218,358.01227 379.90602,357.06595 380.1113,356.36632 C 380.3166,355.6667 380.76077,354.69095 381.09835,354.19795 C 381.43592,353.70495 381.89207,352.68252 382.11203,351.92592 C 382.33197,351.1693 382.78782,350.17632 383.125,349.7193 C 383.46218,349.26227 383.91915,348.2597 384.14052,347.49132 C 384.57005,346.00037 385.1424,345.2311 386.4008,344.45335 C 387.11458,344.01222 387.27388,343.9999 388.17135,344.31655 C 388.82305,344.54647 391.99265,344.80365 397.51628,345.07475 C 402.11357,345.3004 406.63648,345.59397 407.56715,345.72715 C 408.49782,345.86032 409.70148,345.9693 410.24193,345.9693 C 411.0581,345.9693 411.32842,346.10695 411.8377,346.7818 C 412.7913,348.04545 413.75218,350.58822 414.16082,352.92945 C 414.36572,354.10322 414.8002,355.69762 415.12638,356.47255 C 415.45252,357.24747 415.8968,358.90402 416.11363,360.1538 C 416.33047,361.40357 416.79605,363.05555 417.14825,363.82485 C 417.50045,364.59415 417.94695,366.207 418.14045,367.40895 C 418.33398,368.6109 418.76788,370.21305 419.1047,370.9693 C 419.44153,371.72555 419.89802,373.39252 420.11918,374.67367 C 420.3403,375.95485 420.79602,377.62437 421.13185,378.38375 C 421.46767,379.14315 421.92122,380.79492 422.1397,382.05437 C 422.80145,385.86892 423.80357,387.1547 427.724,389.2193 C 428.37673,389.56305 429.29647,390.13975 429.7679,390.50085 C 430.2393,390.86197 431.03327,391.28807 431.53227,391.44777 C 432.03127,391.60747 432.62993,391.94847 432.8626,392.2056 C 433.09527,392.4627 433.86825,392.92012 434.58032,393.2221 C 435.2924,393.52407 436.15785,394.03635 436.50355,394.3605 C 437.278,395.08667 439.00952,395.71957 440.21893,395.7185 C 441.7545,395.71715 445.47748,394.97347 447.20617,394.3228 C 448.11025,393.9825 449.92435,393.53137 451.23748,393.32027 C 452.55063,393.1092 454.12252,392.71662 454.7306,392.44787 C 455.3387,392.17915 456.8012,391.78415 457.9806,391.57007 C 459.16002,391.35602 461.19375,390.85105 462.5,390.44795 C 463.80625,390.04482 465.84193,389.54645 467.0237,389.34047 C 468.20547,389.1345 469.96985,388.68735 470.9445,388.34682 C 471.91917,388.0063 473.7085,387.55782 474.92082,387.3502 C 476.13313,387.1426 477.55903,386.78065 478.08947,386.54587 C 479.04217,386.12425 479.07005,386.12745 480.37038,386.80827 C 481.36183,387.32735 481.7957,387.73905 482.12802,388.476 C 482.3707,389.01415 482.79082,389.6547 483.06165,389.8994 C 483.33247,390.1441 483.812,390.85055 484.12727,391.4693 C 484.44255,392.08805 484.9929,392.86702 485.35025,393.20037 C 485.70763,393.53372 486,393.94495 486,394.11422 C 486,394.2835 486.39257,394.89187 486.87238,395.46615 C 487.35218,396.04045 487.95565,396.97922 488.21342,397.5523 C 488.47117,398.1254 488.97863,398.86702 489.34105,399.20037 C 489.70347,399.53372 490,399.94495 490,400.11422 C 490,400.2835 490.40265,400.90392 490.89475,401.49295 C 491.38688,402.08197 492.06378,403.10512 492.39898,403.7666 C 492.73418,404.42807 493.11085,404.9693 493.23605,404.9693 C 493.5433,404.9693 494.75,407.55532 494.75,408.21377 C 494.75,408.86782 493.92785,410.51047 493.3679,410.9752 C 493.13765,411.16627 492.5667,411.89 492.09913,412.58347 C 491.63155,413.27692 490.7437,414.5193 490.12615,415.3443 C 489.5086,416.1693 488.8057,417.17225 488.56415,417.5731 C 488.32263,417.97395 487.73125,418.74917 487.25,419.29582 C 486.76875,419.8425 486.15,420.65275 485.875,421.09637 C 485.1283,422.301 483.99015,423.86182 482.9375,425.12485 C 482.42188,425.74352 482,426.3564 482,426.48677 C 482,426.61717 481.65112,427.08845 481.22475,427.53407 C 480.79835,427.9797 480.27555,428.6818 480.063,429.0943 C 479.85043,429.5068 479.2993,430.28642 478.83825,430.8268 C 478.37723,431.36717 478,431.93675 478,432.09252 C 478,432.2483 477.65245,432.70617 477.22768,433.11002 C 476.8029,433.51387 476.28132,434.1818 476.0686,434.5943 C 475.8559,435.0068 475.30345,435.7665 474.84092,436.28252 C 474.37842,436.79855 474,437.32607 474,437.45482 C 474,437.58355 473.55,438.20882 473,438.8443 C 472.45,439.47977 472,440.1151 472,440.25612 C 472,440.39717 471.6553,440.99255 471.23398,441.57922 L 470.46797,442.64587 L 471.09785,445.2451 C 471.44428,446.67465 471.90742,449.78407 472.12705,452.1549 C 472.74865,458.86502 473.2259,460.27917 475.48143,462.0943 C 476.33575,462.7818 477.50502,463.74342 478.07985,464.23125 C 478.65467,464.71907 479.40625,465.31407 479.75,465.5535 C 480.09375,465.79292 481.0091,466.46255 481.78413,467.04157 C 482.55915,467.62057 483.6724,468.4318 484.25802,468.8443 C 484.84365,469.2568 485.6158,469.88037 485.9739,470.23005 C 486.332,470.5797 487.04688,471.12325 487.5625,471.43795 C 488.07812,471.75262 488.5,472.10865 488.5,472.22915 C 488.5,472.34965 489.03438,472.75507 489.6875,473.1301 C 490.34062,473.50515 491.29445,474.15677 491.80707,474.57815 C 492.31973,474.99952 493.27597,475.77017 493.93207,476.29067 C 494.5882,476.81117 495.66622,477.68305 496.3277,478.22817 C 496.9892,478.7733 497.60875,479.2193 497.70448,479.2193 C 497.80023,479.2193 498.4957,479.72555 499.25,480.3443 C 500.0043,480.96305 500.7448,481.4693 500.89555,481.4693 C 501.04632,481.4693 501.52797,481.86305 501.9659,482.3443 C 502.40382,482.82555 502.86535,483.2193 502.99153,483.2193 C 503.35233,483.2193 506.1064,485.70882 506.2906,486.2015 C 506.54157,486.87277 505.86383,490.01077 505.17202,491.38055 C 504.83488,492.04812 504.37473,493.48912 504.1495,494.58277 C 503.92425,495.67645 503.45765,497.18795 503.11257,497.94165 C 502.76752,498.69537 502.31077,500.15642 502.09762,501.1884 C 501.88445,502.2204 501.4485,503.58092 501.1288,504.2118 C 500.80913,504.84267 500.3502,506.3526 500.10898,507.56717 C 499.4252,511.01027 498.4202,511.79295 494.80827,511.69535 C 491.77185,511.6133 483.1442,512.01017 482.25,512.27302 C 481.3073,512.55015 477.1252,512.77345 464.75,513.20742 L 456.875,513.48357 L 454.57185,515.91392 C 453.30513,517.25062 451.3601,519.30055 450.2496,520.4693 C 446.26867,524.65902 444.94378,526.103 444.56763,526.66205 C 444.24115,527.14725 444.19072,528.5104 444.22085,536.03705 C 444.2566,544.96985 444.61802,561.27037 444.88202,565.856 C 445.00985,568.07632 444.97432,568.41235 444.57582,568.75267 C 443.65965,569.53502 440.7186,570.96375 439.23045,571.34937 C 438.3867,571.568 437.26812,572.01722 436.7447,572.34765 C 436.2213,572.67805 435.05218,573.12022 434.14665,573.33022 C 433.24113,573.54022 432.0783,573.98742 431.56263,574.32397 C 431.04692,574.66055 429.90862,575.1187 429.03307,575.34207 C 428.15752,575.56547 426.86378,576.067 426.15807,576.4566 C 425.45238,576.8462 424.43023,577.24282 423.88663,577.338 C 423.34302,577.43317 422.47563,577.72665 421.9591,577.99017 C 420.8453,578.55837 421.125,578.57627 419.7259,577.84737 z M 394.125,496.90905 C 395.0875,496.77502 396.4375,496.44872 397.125,496.18397 C 397.8125,495.9192 399.21032,495.53925 400.23128,495.33962 C 401.29037,495.13252 402.47132,494.71322 402.98128,494.36325 C 403.47282,494.02587 404.51163,493.51372 405.28972,493.22515 C 406.06782,492.93655 406.8478,492.5277 407.023,492.31657 C 407.1982,492.10547 407.79907,491.7011 408.35827,491.41797 C 409.66893,490.7544 413.2565,487.5893 414.92475,485.62485 C 415.63963,484.78305 416.59292,483.67635 417.04322,483.1655 C 417.49352,482.65467 418.00338,481.8282 418.17622,481.32892 C 418.34907,480.82962 418.8128,480.05405 419.2067,479.6054 C 419.60063,479.15677 420.05957,478.23947 420.2266,477.567 C 420.39362,476.89452 420.8078,475.94007 421.14697,475.446 C 421.58082,474.81402 421.90622,473.73922 422.24443,471.821 C 422.50885,470.32132 422.8956,468.1943 423.10388,467.0943 C 423.7246,463.816 423.6591,462.90815 422.25775,455.36707 C 421.95045,453.71337 421.51547,452.23725 421.15275,451.61707 C 420.82375,451.05455 420.38663,450.0318 420.18138,449.3443 C 419.97613,448.6568 419.42945,447.51907 418.9666,446.81602 C 418.50372,446.11297 417.92678,445.21297 417.68448,444.81602 C 416.5379,442.9375 415.94872,442.22975 413.57077,439.87432 C 410.39198,436.72565 409.4565,435.95125 407.8593,435.14622 C 407.16315,434.79537 406.45138,434.33695 406.27755,434.1275 C 406.10372,433.91807 405.37955,433.55947 404.66825,433.33067 C 403.95697,433.10185 402.9793,432.64852 402.49565,432.32327 C 401.97798,431.97512 400.6413,431.5298 399.24565,431.2405 C 397.9418,430.9702 396.37318,430.57025 395.75985,430.3517 C 392.77327,429.28747 385.4667,429.4646 382.45557,430.67425 C 382.0874,430.82215 380.8523,431.12032 379.71092,431.33685 C 378.4267,431.58045 377.29777,431.9647 376.74908,432.34495 C 376.26143,432.68287 375.35633,433.1117 374.73773,433.29787 C 374.1191,433.48405 373.0727,434.04877 372.41235,434.55282 C 371.752,435.0569 371.09332,435.4693 370.94865,435.4693 C 370.80398,435.4693 370.25963,435.83492 369.739,436.2818 C 369.21835,436.72867 367.87752,437.8818 366.75935,438.8443 C 365.6412,439.8068 364.38243,441.12867 363.9621,441.7818 C 363.54177,442.43492 363.10628,442.9693 362.99433,442.9693 C 362.88238,442.9693 362.5387,443.39117 362.2306,443.9068 C 361.9225,444.42242 361.41145,445.12715 361.09492,445.47285 C 360.7784,445.81855 360.3417,446.60605 360.12445,447.22285 C 359.90722,447.83965 359.45968,448.73805 359.1299,449.2193 C 358.80013,449.70055 358.3933,450.6568 358.22588,451.3443 C 358.05842,452.0318 357.59213,453.42427 357.1896,454.43867 C 356.1929,456.95057 355.82755,461.4252 356.19038,466.67677 C 356.40643,469.80397 356.5552,470.6578 357.09727,471.881 C 357.45395,472.68582 357.90342,474.11172 358.0961,475.04967 C 358.30515,476.06732 358.6632,476.9858 358.98395,477.32722 C 359.2796,477.6419 359.75025,478.50572 360.02988,479.24685 C 360.30948,479.98795 360.7925,480.87555 361.10323,481.2193 C 361.41395,481.56305 361.9652,482.36605 362.3282,483.00377 C 362.98073,484.15005 367.22163,488.57772 369.18625,490.16382 C 369.74455,490.61455 370.57792,491.16757 371.03817,491.39272 C 371.49842,491.6179 372.17993,492.05375 372.55263,492.36127 C 372.92532,492.6688 373.76907,493.12217 374.42763,493.3688 C 375.08617,493.61542 376.02315,494.07567 376.50975,494.39157 C 376.99638,494.70747 378.40263,495.1834 379.63475,495.44917 C 380.8669,495.71497 382.325,496.12712 382.875,496.36507 C 384.69792,497.15372 390.39115,497.429 394.125,496.90905 z M 173.05605,461.21277 C 172.72594,461.0781 172.27898,460.49512 171.99134,459.8241 C 171.71868,459.188 171.27725,458.38997 171.01039,458.05072 C 170.74353,457.71147 170.34216,456.80432 170.11847,456.03485 C 169.89478,455.26537 169.43755,454.2763 169.10241,453.8369 C 168.76727,453.39752 168.30709,452.48817 168.07979,451.81615 C 167.85249,451.14412 167.39632,450.18335 167.06609,449.68107 C 166.73586,449.17877 166.30205,448.22415 166.10206,447.55962 C 165.90207,446.89512 165.469,445.94427 165.13968,445.44665 C 164.81036,444.949 164.36837,443.96082 164.15748,443.25067 C 163.94659,442.54055 163.43858,441.4836 163.02856,440.9019 C 162.61854,440.32022 162.16557,439.39135 162.02196,438.83772 C 161.87835,438.2841 161.47984,437.45025 161.13639,436.98475 C 160.79295,436.51922 160.33365,435.52505 160.11574,434.77545 C 159.89783,434.02585 159.43741,432.98622 159.0926,432.46517 C 158.74779,431.94412 158.30241,430.97535 158.10287,430.31235 C 157.90333,429.64932 157.46793,428.71027 157.13532,428.22557 C 156.8027,427.74087 156.29753,426.71595 156.01272,425.94797 C 155.42126,424.35312 154.79026,423.668 153.37159,423.08032 C 152.82347,422.85327 151.89859,422.45212 151.3163,422.18887 C 150.73401,421.92565 149.36293,421.54055 148.26946,421.33312 C 147.17598,421.1257 145.68365,420.68507 144.95316,420.35395 C 144.22267,420.02285 142.66875,419.5729 141.5,419.35407 C 140.33125,419.13522 138.83785,418.67535 138.18134,418.33212 C 137.52483,417.98887 136.50725,417.6422 135.92006,417.56172 C 135.01139,417.43717 134.73631,417.5131 134.07243,418.07172 C 133.64342,418.4327 132.69225,418.9942 131.95871,419.31947 C 131.22517,419.64475 130.40229,420.15832 130.13008,420.46072 C 129.85787,420.76315 129.25719,421.1685 128.79523,421.36152 C 128.33327,421.55452 127.61428,421.99942 127.19747,422.35012 C 126.78067,422.70085 126.03135,423.15837 125.53232,423.36682 C 125.03329,423.57527 124.34375,424.00872 124,424.33005 C 123.65625,424.65137 122.9119,425.1463 122.34588,425.42985 C 121.77987,425.7134 120.99237,426.21662 120.59588,426.54815 C 120.1994,426.87965 119.61448,427.23245 119.29607,427.33215 C 118.97767,427.43185 118.34364,427.84137 117.88713,428.24217 C 117.43062,428.643 116.62239,429.1501 116.09106,429.3691 C 115.55972,429.58807 114.86786,430.00482 114.55358,430.29522 C 114.00542,430.80172 113.38413,431.19185 110.49411,432.8443 C 109.77267,433.2568 108.81672,433.90405 108.36976,434.28262 C 107.9228,434.6612 107.12239,435.1498 106.59106,435.36837 C 106.05972,435.58697 105.34375,436.03062 105,436.3543 C 104.65625,436.67795 103.98007,437.10775 103.49738,437.30937 C 103.0147,437.511 102.31021,437.96285 101.93185,438.3135 C 101.11171,439.0736 99.532325,439.59437 98.689132,439.38272 C 98.355742,439.29905 97.642425,438.8804 97.103985,438.45235 C 96.565542,438.02432 95.73125,437.50957 95.25,437.30845 C 94.76875,437.10732 94.09375,436.68032 93.75,436.35957 C 93.40625,436.03882 92.750658,435.5874 92.29313,435.3564 C 91.835603,435.12542 90.95511,434.55007 90.33648,434.07787 C 89.717852,433.60565 89.069005,433.2193 88.894597,433.2193 C 88.72019,433.2193 88.363182,432.982 88.101247,432.69197 C 87.83931,432.40192 87.00625,431.85172 86.25,431.4693 C 85.49375,431.08687 84.669993,430.54695 84.419427,430.26947 C 84.16886,429.992 83.60636,429.62165 83.169427,429.44645 C 82.732492,429.27125 82.049587,428.86097 81.65186,428.53475 C 81.254135,428.20852 80.38669,427.66692 79.724207,427.33122 C 78.096377,426.50635 77.86832,425.67715 78.2418,421.94127 C 78.512653,419.23202 78.63525,418.47705 79.353702,415.0943 C 79.558122,414.1318 79.9009,411.3193 80.11543,408.8443 C 80.329958,406.3693 80.784072,402.98832 81.12457,401.331 C 81.46507,399.6737 81.910133,396.35495 82.1136,393.956 C 82.317067,391.55707 82.701527,388.53495 82.967955,387.24017 C 83.234382,385.94542 83.384267,384.70792 83.30103,384.49017 C 83.121025,384.0193 81.6972,382.12685 80.848605,381.23057 C 78.99268,379.27035 73.113237,372.4929 71.776085,370.77235 C 71.31789,370.18277 70.51031,369.47965 69.981462,369.20985 C 69.049765,368.73452 68.397732,368.7193 48.974245,368.7193 L 28.928573,368.7193 L 27.746988,367.5318 C 26.850103,366.63042 26.462602,365.98802 26.138757,364.86565 C 25.904103,364.0524 25.435915,362.98365 25.098342,362.49065 C 24.760769,361.99765 24.316605,361.0219 24.111312,360.32227 C 23.906019,359.62265 23.462179,358.67632 23.125,358.2193 C 22.787821,357.76227 22.333654,356.77505 22.11574,356.02545 C 21.897825,355.27585 21.437413,354.23622 21.092601,353.71517 C 20.747789,353.19412 20.302044,352.22415 20.102057,351.55962 C 19.902069,350.89512 19.453628,349.92105 19.105521,349.39502 C 18.33817,348.23547 17.624791,345.5022 17.852602,344.59452 C 17.943737,344.23142 18.37981,343.55845 18.821652,343.09902 C 19.263493,342.6396 20.1875,341.5667 20.875,340.7148 C 22.299391,338.9498 24.13393,336.76849 25.317375,335.43273 C 25.761568,334.93137 26.575,334.00337 27.125,333.37052 C 27.675,332.73767 28.51875,331.78635 29,331.25647 C 29.48125,330.7266 30.4375,329.58329 31.125,328.71579 C 32.48521,326.99946 35.685967,323.18916 37.107243,321.5943 C 38.014858,320.57584 38.42811,320.10308 41.967155,316.03463 C 43.280983,314.52427 44.029832,313.43951 44.131017,312.90015 C 44.344995,311.75955 43.811537,306.26444 43.251885,303.8443 C 42.761997,301.72583 42.394323,299.26127 42.02576,295.62546 C 41.767972,293.08246 41.41579,292.44704 39.707973,291.44363 C 39.093373,291.08253 38.294012,290.49059 37.931623,290.12819 C 37.56923,289.7658 37.10748,289.4693 36.905513,289.4693 C 36.703545,289.4693 36.029528,289.08095 35.407697,288.60629 C 34.785865,288.13164 33.841598,287.52111 33.309323,287.24956 C 32.777048,286.97802 32.187853,286.57065 32,286.3443 C 31.812148,286.11795 31.222953,285.71058 30.690677,285.43903 C 30.158403,285.16749 29.214135,284.55696 28.592303,284.08231 C 27.970472,283.60765 27.32118,283.2193 27.14943,283.2193 C 26.97768,283.2193 26.564423,282.92277 26.231078,282.56034 C 25.897735,282.19791 25.151882,281.68861 24.573629,281.42856 C 23.995375,281.16851 23.207874,280.69292 22.823629,280.37169 C 22.439383,280.05045 21.667474,279.55548 21.108276,279.27173 C 20.549077,278.98799 19.937853,278.57065 19.75,278.3443 C 19.562147,278.11795 18.950923,277.7036 18.391724,277.42352 C 17.832526,277.14344 17.09375,276.65138 16.75,276.33006 C 16.40625,276.00873 15.728966,275.58039 15.244924,275.3782 C 14.760883,275.17601 14.142133,274.76315 13.869924,274.46074 C 13.597716,274.15832 12.8125,273.66098 12.125,273.35552 C 11.4375,273.05006 10.713316,272.60443 10.515704,272.36522 C 10.318091,272.12601 9.634374,271.66576 8.9963335,271.34244 C 7.8335438,270.75321 6.7183478,269.55754 6.4040558,268.56309 C 6.3110038,268.26866 6.5778148,266.42996 7.0026255,264.43809 C 7.424177,262.4615 7.9375345,258.98805 8.14342,256.7193 C 8.3493055,254.45055 8.6892338,251.9193 8.898816,251.0943 C 9.1083985,250.2693 9.4940438,248.41305 9.7558055,246.9693 C 10.320189,243.85644 10.483296,243.66919 12.991301,243.255 C 13.973267,243.09284 15.305063,242.68391 15.950847,242.34628 C 16.596631,242.00865 18.072775,241.55265 19.231166,241.33294 C 20.389557,241.11323 21.852057,240.67307 22.481166,240.3548 C 23.110275,240.03653 24.58125,239.58513 25.75,239.35169 C 26.91875,239.11825 28.473167,238.64859 29.204258,238.30802 C 29.93535,237.96745 31.37851,237.52712 32.411277,237.32952 C 33.444045,237.13192 35.039628,236.64519 35.957018,236.2479 C 36.874408,235.85062 38.399975,235.39439 39.347165,235.23408 C 40.294355,235.07376 41.616225,234.66546 42.284652,234.32674 C 42.95308,233.98802 44.367555,233.54489 45.427927,233.34201 C 48.404225,232.77255 48.87568,232.54541 50.320538,230.98479 C 51.35711,229.86517 51.762528,229.18983 52.082348,228.05 C 52.310825,227.23571 52.776828,226.19122 53.117908,225.72891 C 53.458987,225.2666 53.916345,224.27504 54.13426,223.52545 C 54.352175,222.77585 54.802262,221.75183 55.134455,221.24985 C 55.46665,220.74787 55.899417,219.80229 56.096162,219.14855 C 56.292907,218.49482 56.829885,217.37415 57.289442,216.65818 C 58.071328,215.44004 58.125,215.21818 58.125,213.20438 C 58.125,211.21644 58.063737,210.95371 57.321598,209.75885 C 56.879728,209.04742 56.34449,207.88042 56.132183,207.1655 C 55.919875,206.45058 55.458742,205.45089 55.107445,204.94397 C 54.756147,204.43704 54.314033,203.43589 54.124967,202.71918 C 53.935902,202.00246 53.508427,201.00386 53.175022,200.50005 C 52.84162,199.99624 52.37774,198.9267 52.144182,198.12329 C 51.910625,197.31987 51.437412,196.23623 51.0926,195.71518 C 50.74779,195.19414 50.302045,194.22414 50.102058,193.55963 C 49.90207,192.89512 49.46665,191.94072 49.134455,191.43875 C 48.802262,190.93677 48.352175,189.91275 48.13426,189.16315 C 47.916345,188.41355 47.46218,187.42632 47.125,186.9693 C 46.78782,186.51228 46.333655,185.52504 46.11574,184.77545 C 45.897825,184.02585 45.437412,182.98623 45.0926,182.46518 C 44.74779,181.94414 44.302045,180.97414 44.102058,180.30963 C 43.90207,179.64512 43.456353,178.67517 43.111575,178.15417 C 42.434687,177.13132 41.916185,174.99596 42.171885,174.2842 C 42.258803,174.04225 42.677562,173.49378 43.10246,173.06536 C 43.527358,172.63694 44.29041,171.79319 44.798135,171.19036 C 45.305858,170.58753 46.318357,169.38376 47.048135,168.51532 C 51.45753,163.26813 55.0163,159.22758 57.2725,156.9068 C 58.931278,155.20054 59.39791,155.12572 61.671695,156.20141 C 62.522377,156.60385 64.209877,157.11694 65.421695,157.34161 C 66.633512,157.56628 68.224185,158.02211 68.95652,158.35457 C 69.688857,158.68704 71.244937,159.12608 72.41448,159.33022 C 73.584022,159.53436 75.154632,159.98235 75.904723,160.32575 C 76.654813,160.66915 77.68623,161.01746 78.196762,161.09978 C 80.250997,161.43098 81.696375,161.81287 83.100497,162.39544 C 83.91202,162.73214 85.532287,163.17454 86.70109,163.37855 C 87.869895,163.58257 89.347957,164.01388 89.985675,164.33704 C 90.623392,164.6602 92.161228,165.09994 93.403085,165.31425 C 94.644945,165.52856 96.15916,165.9299 96.768005,166.20611 C 98.25224,166.87946 99.148832,166.84887 100.04559,166.0943 C 100.45412,165.75055 100.93987,165.4693 101.12503,165.4693 C 101.3102,165.4693 101.99533,165.06197 102.64755,164.56412 C 103.29977,164.06627 104.18255,163.51306 104.60928,163.33476 C 105.03601,163.15646 105.60787,162.75996 105.88007,162.45364 C 106.15229,162.14733 106.84812,161.68499 107.42637,161.42623 C 108.00462,161.16746 108.79212,160.69337 109.17637,160.3727 C 109.56062,160.05202 110.26875,159.59222 110.75,159.35093 C 111.23125,159.10964 111.90625,158.65454 112.25,158.33959 C 112.59375,158.02464 113.40724,157.51985 114.05774,157.21783 C 115.51085,156.54318 116.11765,155.61029 116.49599,153.4693 C 116.65393,152.57555 116.99289,151.00055 117.24925,149.9693 C 117.5056,148.93805 117.89749,146.21618 118.12011,143.9207 C 118.34273,141.62521 118.79152,138.64396 119.11742,137.2957 C 119.44331,135.94743 119.89266,132.98805 120.11596,130.7193 C 120.33926,128.45055 120.80137,125.42985 121.14288,124.00664 C 121.48439,122.58343 121.87932,120.22093 122.0205,118.75664 C 122.44737,114.32925 122.67936,113.95586 125.38528,113.34103 C 126.34212,113.12361 127.9125,112.62518 128.875,112.2334 C 129.8375,111.84162 131.24375,111.44158 132,111.34443 C 132.75625,111.24727 134.10625,110.85048 135,110.46267 C 135.89375,110.07486 137.63289,109.56899 138.86476,109.33851 C 140.09663,109.10803 141.64762,108.63548 142.3114,108.2884 C 142.98462,107.93638 144.3448,107.53827 145.38747,107.38805 L 147.25666,107.11877 L 148.76643,108.73153 C 149.5968,109.61855 150.70139,110.7943 151.22108,111.3443 C 152.60961,112.81382 159.48043,120.65665 160.55393,121.99745 C 161.06172,122.63169 162.07295,123.78472 162.8011,124.55976 C 163.52924,125.33479 164.575,126.49511 165.125,127.13826 C 166.18007,128.37201 167.46909,129.80655 169.125,131.58983 C 169.675,132.18214 170.575,133.19782 171.125,133.8469 C 173.58343,136.74822 175.1283,138.16791 176.125,138.44176 C 176.76444,138.61745 180.33714,138.71701 186.03378,138.7179 L 194.94256,138.7193 L 196.28378,137.59998 C 197.02145,136.98435 198.1875,135.79335 198.875,134.95332 C 200.60433,132.84031 205.88595,126.77644 208.20315,124.24359 C 209.26017,123.0882 210.49445,121.7382 210.94601,121.24359 C 212.62005,119.40993 217.65643,113.56514 218.29127,112.7193 C 218.65248,112.23805 219.66283,111.08995 220.5365,110.16796 C 221.41018,109.24598 222.30891,108.23348 222.5337,107.91796 C 223.15022,107.05259 225.78528,107.131 228,108.08062 C 228.89375,108.46384 230.525,108.96972 231.625,109.2048 C 232.725,109.43987 234.39673,109.94157 235.33995,110.31968 C 236.28316,110.69779 237.97066,111.17981 239.08995,111.39085 C 240.20922,111.60188 241.65071,112.04086 242.29324,112.36637 C 242.93577,112.69188 244.26756,113.09132 245.25278,113.25403 C 246.238,113.41673 247.26328,113.72861 247.53118,113.94708 C 247.88369,114.23455 248.14975,115.06954 248.4942,116.9693 C 248.75596,118.41305 249.14217,120.2693 249.35244,121.0943 C 249.56271,121.9193 249.91614,124.45055 250.13782,126.7193 C 250.35952,128.98805 250.81,131.9693 251.13887,133.3443 C 251.46775,134.7193 251.91033,137.6443 252.12235,139.8443 C 252.3344,142.0443 252.78302,145.02555 253.1193,146.4693 C 253.45557,147.91305 253.853,150.31984 254.0025,151.81773 C 254.35643,155.36374 254.85485,156.28258 257,157.3436 C 257.48125,157.58163 258.15625,158.03882 258.5,158.35958 C 258.84375,158.68034 259.54267,159.11725 260.0532,159.3305 C 260.5637,159.54375 261.3512,160.04079 261.8032,160.43504 C 262.25518,160.82928 262.88552,161.23319 263.20393,161.33263 C 263.52232,161.43206 264.15635,161.84136 264.61288,162.24218 C 265.06938,162.643 265.83972,163.13676 266.32477,163.33942 C 266.8098,163.54209 267.57898,164.04797 268.03405,164.4636 C 268.4891,164.87923 268.98965,165.2193 269.14635,165.2193 C 269.30305,165.2193 269.85593,165.5568 270.375,165.9693 C 271.49322,166.85795 272.25485,166.90717 274.0342,166.20581 C 274.7507,165.9234 276.2455,165.521 277.35598,165.3116 C 278.46643,165.10219 280.1625,164.62011 281.125,164.24029 C 282.0875,163.86048 283.673,163.42097 284.64832,163.26361 C 285.62367,163.10625 287.0378,162.69543 287.79085,162.35067 C 288.54388,162.00592 290.05568,161.56748 291.15037,161.37637 C 292.24507,161.18526 293.88932,160.72942 294.80425,160.36339 C 295.7192,159.99736 297.40315,159.5226 298.54638,159.30836 C 299.68963,159.09413 301.19688,158.64964 301.89582,158.32063 C 302.5948,157.99161 304.16147,157.54893 305.37738,157.3369 C 306.59325,157.12486 308.10263,156.6932 308.73153,156.37763 C 311.73398,154.87113 312.27767,155.09177 315.625,159.17508 C 315.9,159.51055 316.5371,160.24836 317.0408,160.81466 C 317.5445,161.38096 318.557,162.52797 319.2908,163.36357 C 320.0246,164.19917 320.93143,165.21167 321.30593,165.61357 C 321.9389,166.29282 324.04065,168.73944 327.1875,172.46018 C 328.2593,173.72744 328.5,174.1832 328.5,174.9453 C 328.5,176.20702 327.84047,178.3433 327.11032,179.44664 C 326.781,179.94428 326.34792,180.89512 326.14795,181.55963 C 325.94795,182.22414 325.5022,183.19414 325.1574,183.71518 C 324.81257,184.23623 324.35218,185.27585 324.13425,186.02545 C 323.91635,186.77504 323.46218,187.76228 323.125,188.2193 C 322.78782,188.67632 322.34398,189.62266 322.1387,190.32227 C 321.9334,191.02189 321.4916,191.99418 321.15693,192.48292 C 320.82223,192.97166 320.3805,193.93696 320.17527,194.62802 C 319.97005,195.31908 319.46097,196.4942 319.044,197.2394 C 318.62703,197.98459 318.20963,199.01293 318.11645,199.52459 C 318.0233,200.03626 317.62518,200.96245 317.23178,201.58279 C 316.83835,202.20314 316.34132,203.31317 316.12725,204.04952 C 315.9132,204.78588 315.46218,205.76228 315.125,206.2193 C 314.78782,206.67632 314.34287,207.62266 314.13622,208.32227 C 313.92957,209.02189 313.42112,210.10055 313.00633,210.7193 C 311.9541,212.28887 311.95032,213.95183 312.99547,215.49418 C 313.4055,216.09924 313.92027,217.20344 314.13943,217.94794 C 314.35857,218.69244 314.81408,219.70494 315.15165,220.19794 C 315.48923,220.69094 315.9334,221.66671 316.1387,222.36633 C 316.34398,223.06594 316.78782,224.01228 317.125,224.4693 C 317.46218,224.92632 317.9113,225.89624 318.12307,226.62467 C 318.33482,227.35311 318.8639,228.54427 319.29875,229.2717 C 319.7336,229.99913 320.22385,230.82183 320.3882,231.09992 C 320.8761,231.92553 323.0519,232.9422 325.2051,233.35065 C 326.31257,233.56074 327.8225,234.00907 328.56052,234.34694 C 329.29855,234.68481 330.844,235.13988 331.99485,235.35819 C 333.14572,235.57651 334.61052,236.02026 335.25,236.3443 C 335.88948,236.66834 337.33085,237.10765 338.4531,237.32053 C 339.57532,237.53341 341.03782,237.98341 341.7031,238.32053 C 342.36835,238.65765 343.86045,239.11323 345.01882,239.33294 C 346.17723,239.55265 347.63585,239.99949 348.26022,240.32593 C 348.88463,240.65237 350.39252,241.10629 351.61118,241.33464 C 352.8298,241.56299 354.35015,242.015 354.98973,242.3391 C 355.62932,242.6632 356.5964,243.00448 357.1388,243.09749 C 359.72413,243.54084 359.9679,243.6726 360.6336,244.98627 C 361.42645,246.55086 361.6681,247.82579 362.13332,252.89867 C 362.33782,255.12858 362.77913,258.22233 363.11403,259.77367 C 363.8095,262.99541 364.37995,267.91755 364.1596,268.79548 C 363.9193,269.75288 363.03438,270.69345 361.77213,271.33308 C 361.12393,271.66155 360.43943,272.11604 360.25102,272.34307 C 360.0626,272.57009 359.47295,272.97802 358.94067,273.24956 C 358.4084,273.52111 357.46413,274.13164 356.8423,274.60629 C 356.22047,275.08095 355.55183,275.4693 355.35643,275.4693 C 355.16102,275.4693 354.5837,275.86305 354.0735,276.3443 C 353.56327,276.82555 353.00913,277.2193 352.84207,277.2193 C 352.675,277.2193 352.02952,277.60765 351.4077,278.08231 C 350.78587,278.55696 349.8416,279.16749 349.30933,279.43903 C 348.77705,279.71058 348.18785,280.11795 348,280.3443 C 347.81215,280.57065 347.22295,280.97802 346.69067,281.24956 C 346.1584,281.52111 345.21413,282.13164 344.5923,282.60629 C 343.97047,283.08095 343.32117,283.4693 343.14943,283.4693 C 342.97768,283.4693 342.56443,283.76583 342.23107,284.12826 C 341.89772,284.49068 341.15188,284.99998 340.57362,285.26003 C 339.99538,285.52008 339.20788,285.99568 338.82362,286.31691 C 338.43938,286.63814 337.66747,287.13312 337.10827,287.41686 C 336.54907,287.7006 335.9374,288.1185 335.74898,288.34553 C 335.56057,288.57255 334.8931,289.01862 334.2657,289.33678 C 333.63832,289.65494 332.9248,290.13683 332.6801,290.40765 C 332.4354,290.67847 331.77945,291.10555 331.22242,291.35673 C 330.42342,291.71703 330.06235,292.10687 329.51153,293.20386 C 328.77155,294.67753 328.45827,296.46214 327.99473,301.8443 C 327.85263,303.4943 327.44407,306.07162 327.08682,307.57167 C 326.1684,311.42827 326.1759,312.64685 327.125,313.77767 C 327.5375,314.26914 328.4375,315.36788 329.125,316.21932 C 330.49685,317.9183 332.07025,319.79845 333.4138,321.3443 C 333.8918,321.8943 334.6974,322.82218 335.20395,323.40625 C 335.71052,323.99032 336.575,324.96382 337.125,325.56958 C 337.675,326.17534 338.6875,327.37159 339.375,328.22792 C 341.38112,330.72667 344.16455,334.01786 346.97923,337.2193 C 350.5129,341.23857 351.9661,342.94437 352.473,343.668 C 353.13648,344.61517 353.21472,345.82525 352.6801,346.87087 C 352.47668,347.26875 352.23415,347.9478 352.14117,348.37985 C 352.0482,348.81187 351.6446,349.68182 351.2443,350.31302 C 350.844,350.94425 350.34132,352.06317 350.12725,352.79952 C 349.9132,353.53587 349.46218,354.51227 349.125,354.9693 C 348.78782,355.42632 348.33365,356.41355 348.11575,357.16315 C 347.89782,357.91275 347.44772,358.93677 347.11555,359.43875 C 346.78335,359.94072 346.34792,360.89512 346.14795,361.55962 C 345.94795,362.22415 345.51292,363.17877 345.18122,363.68107 C 344.8495,364.18335 344.4355,365.0443 344.2612,365.5943 C 343.81032,367.01692 343.36163,367.64532 342.43515,368.1516 C 341.68433,368.56187 340.13635,368.60345 321.29852,368.7193 L 300.97205,368.8443 L 299.48028,370.4693 C 298.6598,371.36305 297.51297,372.62942 296.93175,373.2835 C 294.6533,375.8475 294.0915,376.4841 293.19332,377.5199 C 292.68093,378.11082 291.86913,379.0443 291.38935,379.5943 C 288.77002,382.59695 287.97205,383.61867 287.84222,384.13585 C 287.64335,384.92827 288.44032,393.9841 288.89582,396.10747 C 289.65585,399.6504 289.76947,400.4361 290.12305,404.5943 C 290.32182,406.9318 290.76365,410.21065 291.1049,411.8806 C 291.69357,414.7615 292.5,422.0862 292.5,424.5522 C 292.5,426.04387 292.10518,426.86507 291.20965,427.236 C 290.81065,427.4013 290.07403,427.86245 289.57275,428.26082 C 289.07148,428.65917 288.20315,429.19022 287.64317,429.44092 C 287.08317,429.6916 286.40227,430.14732 286.13007,430.45365 C 285.85788,430.75995 285.286,431.15645 284.85928,431.33475 C 284.43255,431.51305 283.54977,432.06627 282.89755,432.56412 C 282.24532,433.06197 281.55055,433.4693 281.35357,433.4693 C 281.1566,433.4693 280.63213,433.8165 280.18807,434.24087 C 279.74403,434.66522 279.00095,435.1711 278.5368,435.36505 C 278.07265,435.55897 277.31938,436.0456 276.86288,436.44642 C 276.40635,436.84722 275.77232,437.25627 275.45393,437.3554 C 275.13552,437.45452 274.46188,437.90625 273.95697,438.35922 C 273.3376,438.9149 272.67593,439.23727 271.92305,439.35015 C 270.72663,439.52957 270.14288,439.3259 268.90732,438.2979 C 268.5126,437.9695 267.78135,437.53022 267.28232,437.32177 C 266.7833,437.11332 266.09375,436.67345 265.75,436.3443 C 265.40625,436.01515 264.7167,435.57527 264.21767,435.36682 C 263.71865,435.15837 262.9874,434.71822 262.59267,434.38872 C 262.19795,434.05922 261.48125,433.58925 261,433.3443 C 260.51875,433.09935 259.80205,432.62937 259.40732,432.29987 C 259.0126,431.97037 258.29663,431.53657 257.81628,431.33587 C 257.3359,431.13517 256.56938,430.643 256.11288,430.24217 C 255.65635,429.84137 255.02233,429.43185 254.70392,429.33215 C 254.38552,429.23245 253.7996,428.8788 253.40185,428.54625 C 253.00412,428.2137 252.15333,427.67535 251.51115,427.34995 C 250.869,427.02455 250.1835,426.5654 249.98784,426.32965 C 249.79217,426.09387 249.12424,425.68412 248.50354,425.41907 C 247.88284,425.15402 247.09375,424.6691 246.75,424.3415 C 246.40625,424.01387 245.7223,423.5776 245.2301,423.372 C 244.7379,423.1664 244.18247,422.81415 243.9958,422.58925 C 243.80913,422.36432 243.08684,421.89272 242.3907,421.54125 C 241.69457,421.18977 240.80205,420.6319 240.40732,420.3015 C 240.0126,419.9711 239.29941,419.53775 238.82247,419.33847 C 238.34553,419.13917 237.62455,418.69782 237.22029,418.35767 C 236.05862,417.38017 235.02026,417.30825 233.32721,418.088 C 232.5285,418.45585 230.67076,419.02472 229.1989,419.35215 C 227.72705,419.6796 226.06745,420.1798 225.51091,420.46372 C 224.95437,420.74765 223.57111,421.1559 222.43701,421.37095 C 221.3029,421.58597 219.44893,422.16405 218.31707,422.65552 C 216.33583,423.51582 216.22246,423.61052 215.27479,425.1967 C 214.7334,426.10287 214.17746,427.26782 214.03936,427.78547 C 213.90127,428.3031 213.50119,429.06782 213.1503,429.48482 C 212.79942,429.90182 212.33963,430.82452 212.12856,431.53527 C 211.9175,432.24602 211.47158,433.24042 211.13763,433.74505 C 210.80369,434.24967 210.35218,435.27585 210.13426,436.02545 C 209.91635,436.77505 209.45705,437.76922 209.1136,438.23475 C 208.77016,438.70025 208.37179,439.5341 208.22835,440.08772 C 208.08491,440.64135 207.59575,441.71305 207.14132,442.4693 C 206.6869,443.22555 206.17089,444.2943 205.99463,444.8443 C 205.81836,445.3943 205.41997,446.1818 205.10932,446.5943 C 204.79866,447.0068 204.36304,447.97295 204.14127,448.74132 C 203.9195,449.5097 203.46218,450.51227 203.125,450.9693 C 202.78782,451.42632 202.33198,452.4193 202.11203,453.17592 C 201.89208,453.93252 201.43591,454.95495 201.09834,455.44795 C 200.76077,455.94095 200.31698,456.9068 200.11214,457.5943 C 199.88876,458.34405 199.30218,459.34455 198.64645,460.0943 L 197.55318,461.3443 L 185.58909,461.39462 C 178.67226,461.4237 173.38498,461.347 173.05605,461.21277 z M 196,348.9739 C 196.89375,348.82515 198.58125,348.42915 199.75,348.09392 C 200.91875,347.75867 202.6625,347.36222 203.625,347.2129 C 204.5875,347.06357 205.83279,346.6736 206.39232,346.34627 C 206.95185,346.01897 208.16667,345.5756 209.09192,345.36102 C 210.01717,345.14645 211.19063,344.6858 211.6996,344.33737 C 212.20857,343.98895 213.21693,343.53022 213.9404,343.318 C 214.66388,343.10577 215.56388,342.67875 215.9404,342.36905 C 216.31693,342.05937 217.12372,341.6104 217.73327,341.37135 C 218.34282,341.1323 219.17203,340.65862 219.57595,340.31875 C 219.97987,339.97887 220.71865,339.53022 221.21768,339.32177 C 221.7167,339.11332 222.40625,338.68032 222.75,338.35957 C 223.09375,338.03882 223.72176,337.60165 224.14559,337.3881 C 224.96041,336.97752 226.41003,335.87795 228.2182,334.29895 C 229.60806,333.08523 235.80598,326.88229 237.125,325.38492 C 239.0771,323.16889 241.86048,319.33701 242.11487,318.51537 C 242.21346,318.19696 242.61361,317.57257 243.0041,317.12783 C 243.39458,316.68309 243.91041,315.81861 244.15037,315.20676 C 244.39034,314.5949 244.83823,313.78842 245.14567,313.41456 C 245.45312,313.0407 245.89775,312.1407 246.13376,311.41456 C 246.36976,310.68842 246.82393,309.74409 247.14302,309.31605 C 247.46211,308.88802 247.9023,307.76553 248.1212,306.82163 C 248.3401,305.87773 248.80612,304.61588 249.15678,304.01752 C 249.54178,303.36057 249.92719,302.12039 250.12968,300.88694 C 250.3141,299.76349 250.74227,298.11305 251.08118,297.2193 C 251.46915,296.19607 251.79923,294.57591 251.97248,292.8443 C 252.44123,288.15952 252.75285,282.22656 252.6211,280.49655 C 252.55187,279.58781 252.37883,277.1568 252.23655,275.0943 C 251.90947,270.35326 251.63182,268.58085 250.9882,267.12583 C 250.70622,266.48838 250.31998,265.00605 250.12987,263.83176 C 249.91438,262.50048 249.54325,261.28542 249.14405,260.60426 C 248.79193,260.00341 248.38144,258.91163 248.23183,258.17806 C 248.08223,257.44449 247.63319,256.30538 247.23396,255.6467 C 246.83473,254.98802 246.33228,253.84432 246.11739,253.10514 C 245.90251,252.36596 245.54461,251.61113 245.32206,251.42774 C 245.0995,251.24435 244.54509,250.27867 244.09002,249.2818 C 243.63495,248.28492 243.16045,247.4693 243.03558,247.4693 C 242.9107,247.4693 242.51267,246.87867 242.15105,246.1568 C 241.52912,244.91526 240.66122,243.67177 239.07361,241.74758 C 238.68937,241.28189 238.25514,240.68491 238.10865,240.42097 C 237.27037,238.91059 228.54371,230.19265 227.02449,229.34789 C 226.77366,229.20841 226.18741,228.77891 225.72171,228.39343 C 224.09555,227.04737 222.11826,225.68609 221.25341,225.3172 C 220.77404,225.11273 220.15415,224.73155 219.87589,224.47013 C 219.59762,224.20872 218.69609,223.69845 217.87248,223.33621 C 217.04887,222.97397 216.15,222.47252 215.875,222.22189 C 215.6,221.97125 214.76105,221.58602 214.01067,221.36583 C 213.26029,221.14563 212.24779,220.68969 211.76067,220.35262 C 211.27355,220.01556 210.09529,219.55925 209.14232,219.3386 C 208.18935,219.11795 206.95185,218.67058 206.39232,218.34444 C 205.80257,218.00068 204.42934,217.58839 203.125,217.36348 C 201.8875,217.15009 200.23065,216.74901 199.44312,216.47218 C 197.20225,215.68449 195.11976,215.47339 188,215.31222 C 179.80426,215.12668 174.97918,215.43593 172,216.33769 C 170.83125,216.69146 168.8625,217.15385 167.625,217.36522 C 166.28325,217.59441 164.95401,217.99535 164.3321,218.35847 C 163.7585,218.69339 162.52101,219.14357 161.5821,219.35888 C 160.6432,219.57419 159.46407,220.03234 158.96182,220.37698 C 158.45956,220.72162 157.50331,221.16689 156.83682,221.36648 C 156.17032,221.56607 155.175,222.04862 154.625,222.43882 C 154.075,222.82902 153.21212,223.28251 152.7075,223.44658 C 152.20287,223.61064 151.6471,223.91705 151.47245,224.12749 C 151.29781,224.33792 150.52944,224.82714 149.76496,225.21464 C 149.00048,225.60214 148.10226,226.21171 147.76892,226.56924 C 147.43558,226.92677 147.03395,227.2193 146.87642,227.2193 C 146.71889,227.2193 146.14787,227.59025 145.6075,228.04364 C 145.06713,228.49702 144.26995,229.08765 143.836,229.35614 C 141.51932,230.7895 133.2401,239.08906 132.25131,240.9693 C 132.07054,241.31305 131.49004,242.08826 130.96132,242.692 C 130.43259,243.29573 130,243.92299 130,244.08592 C 130,244.24884 129.72754,244.63811 129.39453,244.95096 C 129.06151,245.2638 128.45766,246.21352 128.05264,247.06144 C 127.64761,247.90937 127.13832,248.75076 126.9209,248.93121 C 126.70347,249.11166 126.38954,249.67217 126.22327,250.1768 C 126.05701,250.68142 125.54501,251.6413 125.08549,252.30985 C 124.62597,252.97841 124.25,253.72961 124.25,253.97919 C 124.25,254.22877 123.85399,255.19271 123.36999,256.12128 C 122.88598,257.04986 122.31896,258.54704 122.10992,259.44836 C 121.9009,260.34968 121.49614,261.48249 121.21046,261.96571 C 120.92479,262.44893 120.48154,264.00419 120.22546,265.42182 C 119.96938,266.83946 119.47215,269.03321 119.1205,270.29682 C 117.77075,275.14708 117.75382,288.87132 119.0913,293.9693 C 119.434,295.27555 119.89946,297.41305 120.12566,298.7193 C 120.35186,300.02555 120.85408,301.82555 121.2417,302.7193 C 121.62932,303.61305 122.06419,304.9068 122.20808,305.5943 C 122.35198,306.2818 122.87027,307.61185 123.35985,308.54996 C 123.84943,309.48808 124.25,310.45699 124.25,310.70309 C 124.25,310.94919 124.58079,311.5668 124.9851,312.07555 C 125.3894,312.5843 125.90182,313.54736 126.1238,314.21568 C 126.34578,314.88401 126.7026,315.57622 126.91672,315.75393 C 127.13085,315.93164 127.63201,316.74994 128.0304,317.57238 C 128.4288,318.39483 128.87207,319.14023 129.01545,319.22885 C 129.27116,319.38688 130.06401,320.47908 131.91222,323.2193 C 132.42229,323.97555 133.12883,324.89102 133.48231,325.25368 C 133.83579,325.61634 134.63125,326.48432 135.25,327.18253 C 137.99044,330.27487 142.34664,334.41556 143.80695,335.31613 C 144.25688,335.5936 145.06713,336.19158 145.6075,336.64496 C 146.14787,337.09835 146.71889,337.4693 146.87642,337.4693 C 147.03395,337.4693 147.43558,337.7641 147.76892,338.12442 C 148.10226,338.48475 148.8566,338.9885 149.44523,339.24385 C 150.03385,339.49922 150.93385,340.03425 151.44523,340.43282 C 151.9566,340.8314 152.75874,341.28437 153.22774,341.43942 C 153.69676,341.59447 154.42801,341.98485 154.85274,342.3069 C 155.27749,342.62897 156.19057,343.07922 156.88181,343.30747 C 157.57306,343.53572 158.54289,343.9972 159.03698,344.33292 C 159.53107,344.66867 160.68995,345.1184 161.61226,345.3323 C 162.53458,345.54617 163.76182,345.99817 164.33947,346.3367 C 165.01098,346.73022 166.2436,347.08875 167.75737,347.33082 C 169.05957,347.53907 171.08125,348.00155 172.25,348.35852 C 173.56036,348.75877 175.42924,349.08895 177.125,349.2198 C 180.69497,349.49527 193.90104,349.32325 196,348.9739 z "/>
    </g>
  </g>
</svg>
