<?xml version="1.0" encoding="utf-8"?><!DOCTYPE svg PUBLIC "-//W3C//DTD SVG 1.1//EN" "http://www.w3.org/Graphics/SVG/1.1/DTD/svg11.dtd"><svg version="1.1" xmlns="http://www.w3.org/2000/svg" xmlns:xlink="http://www.w3.org/1999/xlink" x="0px" y="0px"  width="25px" height="20px" viewBox="60 20 368 460" xml:space="preserve"><g><path fill="#FF8800" d="M261.303,258.766l-4.392-7.236c0,0-13.758-22.67-36.427-8.915l-89.622,54.384 c-19.35-17.313-45.313-27.232-73.285-25.646c-55.854,3.171-98.562,51.023-95.39,106.878 c3.172,55.853,51.022,98.563,106.876,95.391c55.854-3.17,98.563-51.022,95.391-106.879c-0.326-5.735-1.147-11.324-2.377-16.748 l90.31-54.801C252.388,295.194,275.06,281.436,261.303,258.766 M466.126,278.497l-1.271,7.206c0,0-2.93,16.618-19.548,13.688 l-95.959-16.921c-9.265,34.418-40.606,59.786-77.952,59.786c-18.202,0-34.94-6.09-48.449-16.244l35.108-21.303 c0,0,32.974-20.012,12.966-52.985l-3.377-5.562c0,0-20.009-32.975-52.985-12.964l-22.755,13.809 c2.693-14.806,9.426-28.201,19.005-39.029l-68.137-81.203c-10.847-12.927,2.08-23.773,2.08-23.773l5.606-4.706 c12.927-10.846,23.773,2.081,23.773,2.081l71.036,84.655c8.203-2.808,16.974-4.402,26.128-4.402 c8.18-0.001,16.063,1.237,23.505,3.497l64.538-94.787c0,0,9.497-13.949,23.445-4.452l6.049,4.119c0,0,13.951,9.498,4.454,23.446 L329.86,205.75c9.243,9.701,16.057,21.688,19.585,35.038l102.991,18.159C452.437,258.946,469.057,261.877,466.126,278.497  M529.16,282.986c0-34.622-28.064-62.688-62.687-62.688c-19.227,0-36.409,8.675-47.909,22.302l33.83,5.964 c0,0,26.115,4.604,21.511,30.721l-1.471,8.336c0,0-4.604,26.116-30.72,21.512l-34.597-6.101 c8.367,24.778,31.753,42.645,59.355,42.645C501.095,345.675,529.16,317.608,529.16,282.986 M393.693,149.565 c-4.47,0.451-8.874,0.397-13.167-0.073l20.472-30.071c14.927-21.919-6.992-36.843-6.992-36.843l-6.998-4.765 c-21.919-14.924-36.843,6.996-36.843,6.996l-19.572,28.741c-2.868-6.185-4.828-12.911-5.549-20.078 c-3.469-34.447,21.645-65.184,56.091-68.654c34.446-3.467,65.186,21.646,68.652,56.094 C453.255,115.36,428.143,146.096,393.693,149.565 M207.405,124.013c3.028-7.352,4.722-15.396,4.722-23.842 c0-34.62-28.065-62.687-62.688-62.687c-34.621,0-62.688,28.067-62.688,62.687c0,34.623,28.067,62.688,62.688,62.688 c3.272,0,6.461-0.328,9.599-0.811l-23.698-28.243c-17.046-20.313,3.268-37.358,3.268-37.358l6.485-5.441 c20.316-17.045,37.36,3.269,37.36,3.269L207.405,124.013z"/></g></svg>
