<?xml version="1.0" encoding="utf-8"?><!DOCTYPE svg PUBLIC "-//W3C//DTD SVG 1.0//EN" "http://www.w3.org/TR/2001/REC-SVG-20010904/DTD/svg10.dtd"><svg version="1.0" xmlns="http://www.w3.org/2000/svg" xmlns:xlink="http://www.w3.org/1999/xlink" x="0px" y="0px" width="14px" height="14px" viewBox="0 0 10 10" xml:space="preserve"><g id="history"><g display="inline"><polygon fill="#ff8000" points="0,0 6,0 6,6 0,6"/><polygon fill="#fff" points="1,1 2,1 2,2.5 4,2.5 4,1 5,1 5,5 4,5 4,3.5 2,3.5 2,5 1,5"/><polygon fill="#ffb01c" points="7,2.5 8,2.5 8,8 2,8 2,7 7,7"/><polygon fill="#ffe038" points="9,5 10,5 10,10 4,10 4,9 9,9"/></g></g></svg>
