<svg xmlns="http://www.w3.org/2000/svg" preserveAspectRatio="none" viewBox="0 0 26 26"><g stroke-width="0"><path stroke="transparent" fill="transparent" d="M0 0h26v26H0z"/><path fill="#666" d="M13.23 24.605c0-.152-.074-.23-.23-.23-.57 0-1.063-.207-1.473-.617-.41-.41-.617-.902-.617-1.473 0-.152-.078-.23-.23-.23-.156 0-.234.078-.234.23 0 .707.25 1.31.75 1.81.496.495 1.098.745 1.805.745.157 0 .23-.078.23-.234zM3.57 20.43h18.86c-2.57-2.903-3.86-6.927-3.86-12.075 0-.492-.113-1-.348-1.523-.23-.52-.566-1.02-1-1.492-.438-.473-1.023-.863-1.762-1.168-.742-.305-1.563-.457-2.46-.457-.9 0-1.72.152-2.462.457-.738.305-1.324.695-1.762 1.168-.434.473-.77.973-1 1.492-.234.523-.348 1.03-.348 1.523 0 5.148-1.29 9.172-3.86 12.074zm21.5 0c0 .5-.184.937-.55 1.304-.368.367-.802.55-1.306.55h-6.5c0 1.028-.363 1.903-1.09 2.626C14.9 25.637 14.022 26 13 26s-1.903-.363-2.626-1.09c-.727-.723-1.09-1.598-1.09-2.625h-6.5c-.504 0-.938-.184-1.305-.55-.368-.368-.552-.806-.552-1.306.484-.407.922-.833 1.32-1.278.395-.445.805-1.023 1.23-1.734.426-.71.79-1.477 1.082-2.3.297-.82.54-1.817.727-2.99.188-1.167.28-2.425.28-3.772 0-1.47.567-2.836 1.7-4.098s2.617-2.027 4.453-2.3c-.078-.185-.117-.372-.117-.563 0-.387.137-.72.406-.988.272-.27.6-.406.987-.406s.715.138.988.407c.27.27.406.602.406.988 0 .19-.038.38-.116.563 1.836.273 3.32 1.04 4.453 2.3 1.133 1.263 1.7 2.63 1.7 4.1 0 1.347.093 2.604.28 3.772.188 1.172.43 2.168.727 2.988.293.824.656 1.59 1.082 2.3.426.712.836 1.29 1.23 1.735.398.445.836.87 1.32 1.277z"/></g></svg>