<svg xmlns="http://www.w3.org/2000/svg" viewBox="0 0 151.83 110.09"><defs><style>.cls-1{fill:#e1e1e1;}.cls-2{fill:#7fcbdf;}.cls-2,.cls-4{stroke:#076986;stroke-miterlimit:10;stroke-width:1.62px;}.cls-3{fill:#68a0ae;}.cls-4{fill:#fff;}</style></defs><g id="Layer_2" data-name="Layer 2"><g id="Layer_1-2" data-name="Layer 1"><path class="cls-1" d="M6.88 101.15C-.76 94.33 138 78.67 138 78.67c61.23 56.78-98.57 18.44-131.12 22.48z"/><path class="cls-2" d="M144.59 99.76c2.7-1-32.1-84.86-32.1-84.86a5.91 5.91 0 0 0-2.76-3.2C102.16 6.51 72.07-.65 68.48 1.07c-1.56 3.15 32.53 84.17 36.81 87 3.46 2.28 40.71 14.47 39.3 11.69z"/><path class="cls-3" d="M88 18c-20.5 3.08 17.42 69.94 17.8 70.07 16.16 5.78 16.22 4.63 24.95 7.8C156.53 105.24 106.58 17.93 88 18z"/><path class="cls-2" d="M119.93 83.63c-3.29.5-6.61.8-9.86 1.5-32.9 7.06-68.24 12.21-105.29 16a2.53 2.53 0 0 1-1.57-.29 4.85 4.85 0 0 1-2.33-5.17 1.9 1.9 0 0 1 .63-1.12c30.28-28.83 59.05-55 85-76.06a2.19 2.19 0 0 1 2.76-.14c15.62 11.71 31.9 42.43 32.17 63.21a1.79 1.79 0 0 1-1.51 2.07z"/><path class="cls-4" d="M81.25 25.49c7.8 6.49 28 46.54 28 57.92a2.1 2.1 0 0 1-1.76 2.12c-2.8.44-8.73 1.79-11.85 2.5a1.79 1.79 0 0 1-2.17-1.49c-2-14.94-23.93-54.76-26.27-51.91l11.53-9.76c.78-.68 1.74-.03 2.52.62zM75.44 91.74A405.45 405.45 0 0 0 54.07 46.1l-13.7 12.28c5.89 11.39 11.57 25.16 16.14 36.35zM13.22 83.47a48.86 48.86 0 0 0 7.72 15.91c8.72-1.33 14.45-1.66 18.49-2.27-4.93-7.62-10.24-17.23-13-25.94z"/></g></g></svg>