<svg id="b9da20ce-a147-4f49-a2b5-93bc5a862d33" data-name="Layer 3" xmlns="http://www.w3.org/2000/svg" viewBox="0 0 750.6 163.53"><defs><style>.\30 7577a9b-9949-49f7-b9ca-6c879011d994{fill:#9e9e9e;}.b3f30091-7c7c-48da-a2bc-8b34e4e35752{fill:#d1d1d1;}.\33 93b0ee5-2f9a-4bca-b260-0fc2a1324eaa,.e54cb94c-89ad-4f05-81df-d42596043805{fill:#ff9100;}.\31 2efdd3b-0c90-441f-8142-3063d1c73df7,.\39 af40bc9-9d00-497a-928c-0d13c8cc0ca0,.bf2956ab-5e75-464f-8f2d-d149c23661df{fill:#fff;}.\34 757c656-4209-486b-a7f8-9563b895f753{isolation:isolate;}.a731e5ef-f292-4c8f-b730-3305696850b1{clip-path:url(#fd11c675-491a-4fda-bbff-ff5f636a6462);}.\30 3ae2505-5218-4348-8e85-93e71c7b8fba{clip-path:url(#c47a216a-8d31-433b-b445-d9e17b4e896e);}.\34 1f69169-f32f-4b89-82b1-506b00eaebc7{clip-path:url(#16ff4bed-ed6f-46fc-85d1-4abe74b7decc);}.a93d78ee-4684-4929-8bbc-c4b5c9b97f65{clip-path:url(#29d1ecc9-2161-4e19-800f-08918e8cfaa5);}.\31 2efdd3b-0c90-441f-8142-3063d1c73df7{opacity:0.37;}.\33 93b0ee5-2f9a-4bca-b260-0fc2a1324eaa{stroke:#ff9100;}.\39 af40bc9-9d00-497a-928c-0d13c8cc0ca0{opacity:0.17;}.\36 bc7146a-e3aa-47b6-8d45-4b3488ddb470{clip-path:url(#5714e298-6db1-438c-b549-38278d19be72);}.d692592e-515f-4c70-8880-df21a4a82714{clip-path:url(#bae41bac-e68c-4ac6-85df-da3e427ec308);}.\30 4fe42d9-aec4-4574-8be1-0785a9fe7f57{clip-path:url(#df9e74dc-e42c-4680-8852-3195c70744ab);}.\34 5329dd3-fedb-4bff-b9d9-abc4f930201a,.e5f864cf-09e9-43f9-b6ae-184c7b4ecafc{fill:none;stroke-width:0.5px;}.\34 5329dd3-fedb-4bff-b9d9-abc4f930201a{stroke:#7f7f7f;}.e5f864cf-09e9-43f9-b6ae-184c7b4ecafc{stroke:#b3b3b3;}</style><clipPath id="fd11c675-491a-4fda-bbff-ff5f636a6462" transform="translate(-45.06 -198.87)"><path class="07577a9b-9949-49f7-b9ca-6c879011d994" d="M174.64 335.43l-26.12 15.1a50.91 50.91 0 0 0 15.83-14.3 52.81 52.81 0 0 0 5.46-9.52 57.17 57.17 0 0 0 3.56-10.89 61.85 61.85 0 0 0 1.43-12.19 66.37 66.37 0 0 0-.91-12.12 71.53 71.53 0 0 0-3-11.79 75.91 75.91 0 0 0-5-11.2l25.82-19.7a82.87 82.87 0 0 1 5.37 11.89 77.59 77.59 0 0 1 3.35 12.5 71.1 71.1 0 0 1 1.13 12.79 65.4 65.4 0 0 1-1.32 12.88 59.52 59.52 0 0 1-3.57 11.49 54.39 54.39 0 0 1-5.59 10 51.92 51.92 0 0 1-16.44 15.06z"/></clipPath><clipPath id="c47a216a-8d31-433b-b445-d9e17b4e896e" transform="translate(-45.06 -198.87)"><path class="07577a9b-9949-49f7-b9ca-6c879011d994" d="M64.25 246.53l20.2-22.41a51.76 51.76 0 0 1 14.6-11.28 53.36 53.36 0 0 1 5.59-2.51 55.9 55.9 0 0 1 11.42-3 60.18 60.18 0 0 1 12.1-.61 65.83 65.83 0 0 1 12.49 1.84 73.31 73.31 0 0 1 12.6 4.37 79.35 79.35 0 0 1 11.89 6.64 82.52 82.52 0 0 1 10.45 8.43 85.41 85.41 0 0 1 16.11 20.86l-25.82 19.7a78 78 0 0 0-15.1-19.57 75.54 75.54 0 0 0-9.86-7.82 73 73 0 0 0-11.23-6.17 68.23 68.23 0 0 0-11.94-4 62.11 62.11 0 0 0-11.85-1.57 57.54 57.54 0 0 0-11.5.75 54.16 54.16 0 0 0-10.87 3 52.06 52.06 0 0 0-5.33 2.45 50.92 50.92 0 0 0-9.69 6.67 50.48 50.48 0 0 0-4.26 4.23z"/></clipPath><clipPath id="16ff4bed-ed6f-46fc-85d1-4abe74b7decc" transform="translate(-45.06 -198.87)"><path class="07577a9b-9949-49f7-b9ca-6c879011d994" d="M60.17 243.94l19.94-22.62a56.06 56.06 0 0 0-3.72 4.68 57.42 57.42 0 0 0-3.28 5.22 59.67 59.67 0 0 0-2.79 5.78 62.91 62.91 0 0 0-2.25 6.19l-19.48 21.53a60.54 60.54 0 0 1 2.18-5.87 58 58 0 0 1 2.69-5.42 55.81 55.81 0 0 1 3.15-5 54.87 54.87 0 0 1 3.56-4.49z"/></clipPath><clipPath id="29d1ecc9-2161-4e19-800f-08918e8cfaa5" transform="translate(-45.06 -198.87)"><path class="07577a9b-9949-49f7-b9ca-6c879011d994" d="M176.47 340.25l-26.27 14.8a56.15 56.15 0 0 1-11.7 4.95 59.25 59.25 0 0 1-13 2.28 64.07 64.07 0 0 1-13.87-.64 71.07 71.07 0 0 1-14.38-3.82 78.65 78.65 0 0 1-25.1-15.52 83.29 83.29 0 0 1-17.72-23.09 77.91 77.91 0 0 1-8.36-27.07 66.39 66.39 0 0 1 2.5-27.42l19.49-21.56a70.16 70.16 0 0 0-2.36 29.06 84.5 84.5 0 0 0 9.15 28.89 91.29 91.29 0 0 0 19 24.77 85.51 85.51 0 0 0 26.76 16.79 75.86 75.86 0 0 0 15.25 4.2 67.36 67.36 0 0 0 14.66.81 61.36 61.36 0 0 0 13.65-2.3 57.42 57.42 0 0 0 12.3-5.13z"/></clipPath><clipPath id="5714e298-6db1-438c-b549-38278d19be72" transform="translate(-45.06 -198.87)"><path class="b3f30091-7c7c-48da-a2bc-8b34e4e35752" d="M193.45 246.67a84.86 84.86 0 0 0-16.19-21 82.09 82.09 0 0 0-10.54-8.42 79.08 79.08 0 0 0-12-6.64 79.08 79.08 0 0 1 12 6.64 82.09 82.09 0 0 1 10.54 8.42 84.86 84.86 0 0 1 16.19 21z"/></clipPath><clipPath id="bae41bac-e68c-4ac6-85df-da3e427ec308" transform="translate(-45.06 -198.87)"><path class="b3f30091-7c7c-48da-a2bc-8b34e4e35752" d="M68.15 241.73a59.94 59.94 0 0 1 13.75-23.67A57.47 57.47 0 0 1 103.14 204a63.47 63.47 0 0 1 25.53-4 74.94 74.94 0 0 1 27.09 6.59 74.94 74.94 0 0 0-27.1-6.59 63.47 63.47 0 0 0-25.53 4 57.47 57.47 0 0 0-21.23 14.06 59.94 59.94 0 0 0-13.75 23.67z"/></clipPath><clipPath id="df9e74dc-e42c-4680-8852-3195c70744ab" transform="translate(-45.06 -198.87)"><path class="b3f30091-7c7c-48da-a2bc-8b34e4e35752" d="M122.14 337.25a71.62 71.62 0 0 0 13.91 3.82 64.23 64.23 0 0 0 13.43.83 59 59 0 0 0 12.6-1.9 55.56 55.56 0 0 0 11.42-4.44A53.52 53.52 0 0 0 191.66 320a55.58 55.58 0 0 0 6.19-10.58 60.71 60.71 0 0 0 3.94-12.21 66.26 66.26 0 0 0 1.42-13 71.46 71.46 0 0 0-1.06-13 77.51 77.51 0 0 0-3.32-12.61 82.34 82.34 0 0 0-5.37-12 82.34 82.34 0 0 1 5.37 12 77.51 77.51 0 0 1 3.32 12.61 71.46 71.46 0 0 1 1.06 13 66.26 66.26 0 0 1-1.42 13 60.71 60.71 0 0 1-3.94 12.21 55.58 55.58 0 0 1-6.19 10.58 53.52 53.52 0 0 1-18.16 15.47 55.56 55.56 0 0 1-11.42 4.53 59 59 0 0 1-12.59 1.93 64.23 64.23 0 0 1-13.43-.83 71.62 71.62 0 0 1-13.92-3.85z"/></clipPath></defs><path class="e54cb94c-89ad-4f05-81df-d42596043805" d="M262.52 52.95a68 68 0 0 0-25.7-5.1c-28.8 0-40.1 19.72-40.1 47.86s11.3 47.86 40.1 47.86a67.94 67.94 0 0 0 25.7-5.1l1.55 5.76c-6.65 3.32-17.5 5.54-27.69 5.54-29.47 0-46.75-19.05-46.75-54.06s17.28-54.06 46.75-54.06c10.19 0 21 2.22 27.69 5.54zM348.7 147.56v-70c0-19.28-9.08-29.69-27.25-29.69s-33.9 17.5-33.9 45.42v54.28h-7.09V43.87h6.87v25.92c6-17.5 18.17-28.14 35.23-28.14 20.16 0 30.58 11.08 32.79 28.14 4.65-16.62 17.28-28.14 35.45-28.14 22.82 0 33.23 14.18 33.23 35v70.9h-7.09v-70c0-19.28-9.08-29.69-27.25-29.69-17.72 0-33.9 16.62-33.9 43.43v56.28h-7.09z"/><path class="bf2956ab-5e75-464f-8f2d-d149c23661df" d="M536.8 137.81l27.7-93.94h6.87l-31.43 103.69h-6.2l-31-97-31 97h-6.2L434 43.87h6.87l27.7 93.94 30.13-93.94h8zM581.56 97.26c.22 27.69 10.63 46.75 41.21 46.75a88.12 88.12 0 0 0 32.17-6.42l1.11 5.32c-7.53 3.54-20.38 6.87-33.68 6.87-34.78 0-47.63-23.26-47.63-54.06 0-33.9 15.29-54.06 44.53-54.06 28.8 0 38.33 21.71 38.33 47v8.64h-76zm0-5.76h69.13v-2.66c0-23-7.75-41.65-31.46-41.65-23.49 0-36.57 14.84-37.67 44.31zM693.89 148.66c-14.4 0-19.05-9.75-19.05-23V0h7.1v125.84c0 10.41 3.1 16.84 13.29 16.84a43.19 43.19 0 0 0 9.53-1.11l.44 5.76a42.72 42.72 0 0 1-11.31 1.33zM739.3 148.66c-14.4 0-19.05-9.75-19.05-23V0h7.09v125.84c0 10.41 3.1 16.84 13.29 16.84a43.18 43.18 0 0 0 9.53-1.11l.44 5.76a42.73 42.73 0 0 1-11.3 1.33z"/><g id="fd091cf2-607b-4728-b814-6f19d4f63dc0" data-name="New Symbol 1"><g class="4757c656-4209-486b-a7f8-9563b895f753"><g class="4757c656-4209-486b-a7f8-9563b895f753"><path class="07577a9b-9949-49f7-b9ca-6c879011d994" d="M129.58 136.56l-26.12 15.1a50.91 50.91 0 0 0 15.83-14.3 52.81 52.81 0 0 0 5.46-9.52 57.17 57.17 0 0 0 3.56-10.89 61.85 61.85 0 0 0 1.43-12.19 66.37 66.37 0 0 0-.91-12.12 71.53 71.53 0 0 0-3-11.79 75.91 75.91 0 0 0-5-11.2l25.82-19.7a82.87 82.87 0 0 1 5.37 11.89 77.59 77.59 0 0 1 3.35 12.5 71.1 71.1 0 0 1 1.13 12.79 65.4 65.4 0 0 1-1.32 12.88 59.52 59.52 0 0 1-3.57 11.49 54.39 54.39 0 0 1-5.59 10 51.92 51.92 0 0 1-16.44 15.06z"/><g class="a731e5ef-f292-4c8f-b730-3305696850b1 4757c656-4209-486b-a7f8-9563b895f753"><path class="07577a9b-9949-49f7-b9ca-6c879011d994" d="M129.58 136.56l-26.12 15.1.09-.05.09-.05.09-.05.09-.05 26.12-15.13-.1.06-.1.06-.1.06-.1.06"/><path class="07577a9b-9949-49f7-b9ca-6c879011d994" d="M129.94 136.33l-26.14 15.11.67-.4.66-.41.66-.42.65-.43 26.25-15.19-.68.45-.69.44-.69.43-.7.42"/><path class="07577a9b-9949-49f7-b9ca-6c879011d994" d="M132.73 134.59l-26.25 15.19.6-.41.59-.42.58-.43.58-.43 26.35-15.27-.6.45-.61.45-.62.44-.62.43"/><path class="07577a9b-9949-49f7-b9ca-6c879011d994" d="M135.18 132.82l-26.35 15.31.54-.42.53-.42.53-.43.52-.44 26.44-15.35-.54.46-.55.45-.55.44-.56.44M137.38 131.04l-26.44 15.35.49-.42.48-.43.48-.43.47-.44 26.51-15.44-.49.46-.5.45-.5.45-.51.44"/><path class="07577a9b-9949-49f7-b9ca-6c879011d994" d="M139.39 129.23l-26.51 15.44.45-.43.45-.44.44-.44.44-.45 26.58-15.52-.45.47-.46.46-.46.46-.47.45"/><path class="07577a9b-9949-49f7-b9ca-6c879011d994" d="M141.23 127.39l-26.58 15.52.42-.44.41-.44.41-.45.4-.46 26.65-15.61-.42.48-.42.47-.43.47-.43.46"/><path class="07577a9b-9949-49f7-b9ca-6c879011d994" d="M142.94 125.51l-26.65 15.62.39-.45.39-.46.38-.46.38-.47 26.69-15.71-.39.49-.39.49-.4.48-.4.47"/><path class="07577a9b-9949-49f7-b9ca-6c879011d994" d="M144.52 123.58l-26.69 15.71.36-.46.36-.47.36-.47.35-.48L146 121.6l-.36.5-.37.5-.33.53-.38.49M145.99 121.59l-26.74 15.81.34-.48.34-.48.33-.49.33-.49 26.77-15.91-.34.52-.34.51-.35.51-.35.5"/><path class="07577a9b-9949-49f7-b9ca-6c879011d994" d="M147.37 119.55l-26.77 15.91.32-.5.32-.5.31-.51.31-.51 26.81-16-.32.54-.32.53-.33.53-.33.52M148.66 117.43l-26.81 16 .3-.52.3-.52.29-.53.29-.53 26.84-16.13-.29.56-.3.56-.31.55-.31.55"/><path class="07577a9b-9949-49f7-b9ca-6c879011d994" d="M149.87 115.22l-26.83 16.13.29-.54.28-.55.27-.55.27-.56 26.86-16.25-.27.59-.28.58-.29.58-.29.57M151 112.9l-26.85 16.23.27-.57.26-.58.26-.58.25-.59 26.88-16.38-.25.62-.26.61-.27.61-.27.6"/><path class="07577a9b-9949-49f7-b9ca-6c879011d994" d="M152.06 110.45l-26.88 16.38.25-.61.25-.62.24-.62.23-.62 26.89-16.51-.23.66-.24.65-.25.65-.26.64"/><path class="07577a9b-9949-49f7-b9ca-6c879011d994" d="M153.04 107.85l-26.89 16.51.24-.66.23-.66.22-.67.21-.67 26.89-16.66-.21.71-.22.7-.23.7-.24.69"/><path class="07577a9b-9949-49f7-b9ca-6c879011d994" d="M153.94 105.04l-26.89 16.66.22-.72.21-.72.2-.73.19-.73 26.89-16.82-.19.77-.2.77-.21.76-.22.76M154.75 101.98l-26.89 16.82.11-.46.11-.46.11-.46.1-.46.08-.35.07-.35.07-.35.07-.35 26.88-17-.07.37-.07.37-.07.37-.07.37-.1.49-.11.49-.11.48-.11.48"/><path class="07577a9b-9949-49f7-b9ca-6c879011d994" d="M155.47 98.56l-26.88 17q.09-.45.17-.9c.05-.3.11-.6.15-.9s.1-.6.14-.9.09-.6.13-.9l26.85-17.2q-.06.48-.12 1c0 .32-.09.63-.14 1s-.1.63-.15.95-.11.63-.16.95"/><path class="07577a9b-9949-49f7-b9ca-6c879011d994" d="M156.04 94.76l-26.85 17.2q.07-.53.13-1.05t.11-1.05q.05-.52.1-1.05t.08-1.05l26.81-17.44q0 .56-.07 1.11t-.08 1.11q0 .56-.1 1.11t-.12 1.11M156.41 90.32l-26.81 17.44c0-.43.05-.86.07-1.29s0-.86 0-1.29v-1.29-1.29l26.74-17.73V88.97l-.06 1.37"/><path class="07577a9b-9949-49f7-b9ca-6c879011d994" d="M156.47 84.86l-26.73 17.73q0-1-.06-1.91t-.11-1.9q-.07-1-.17-1.9t-.22-1.89l26.6-18.17q.14 1 .26 2t.2 2q.09 1 .15 2t.09 2M155.77 76.82l-26.6 18.17q-.24-1.85-.58-3.68t-.78-3.65q-.44-1.81-1-3.61t-1.16-3.56l26.21-19q.68 1.87 1.27 3.77t1.07 3.82q.49 1.92.87 3.86t.67 3.9M151.88 61.47l-26.21 19q-.26-.73-.54-1.46t-.57-1.45q-.29-.72-.6-1.44t-.63-1.43l26-19.39q.35.76.68 1.52t.65 1.53q.32.77.62 1.54t.58 1.55"/><path class="07577a9b-9949-49f7-b9ca-6c879011d994" d="M149.36 55.34l-26 19.39-.43-.94-.44-.93-.46-.93-.47-.92 25.87-19.62.5 1 .49 1 .48 1 .46 1M147.42 51.39l-25.87 19.62-.18-.34-.18-.34-.18-.34-.18-.34 25.82-19.7.2.36.19.36.19.36.19.36"/></g></g><g class="4757c656-4209-486b-a7f8-9563b895f753"><path class="07577a9b-9949-49f7-b9ca-6c879011d994" d="M19.19 47.66l20.2-22.41a51.76 51.76 0 0 1 14.6-11.28 53.36 53.36 0 0 1 5.59-2.51 55.9 55.9 0 0 1 11.42-3 60.18 60.18 0 0 1 12.1-.61 65.83 65.83 0 0 1 12.49 1.84 73.31 73.31 0 0 1 12.6 4.37 79.35 79.35 0 0 1 11.89 6.64 82.52 82.52 0 0 1 10.45 8.43 85.41 85.41 0 0 1 16.11 20.86l-25.82 19.7a78 78 0 0 0-15.1-19.57 75.54 75.54 0 0 0-9.86-7.82 73 73 0 0 0-11.23-6.17 68.23 68.23 0 0 0-11.94-4 62.11 62.11 0 0 0-11.85-1.57 57.54 57.54 0 0 0-11.5.75 54.16 54.16 0 0 0-10.87 3 52.06 52.06 0 0 0-5.33 2.45 50.92 50.92 0 0 0-9.69 6.67 50.48 50.48 0 0 0-4.26 4.23z"/><g class="03ae2505-5218-4348-8e85-93e71c7b8fba 4757c656-4209-486b-a7f8-9563b895f753"><path class="07577a9b-9949-49f7-b9ca-6c879011d994" d="M146.65 49.95l-25.82 19.7-.22-.4-.22-.4-.22-.4-.23-.4 25.75-19.8.24.42.24.42.24.43.24.43"/><path class="07577a9b-9949-49f7-b9ca-6c879011d994" d="M145.69 48.25l-25.75 19.8-.38-.65-.38-.65-.39-.64-.4-.64 25.64-20 .43.68.42.68.41.69.41.69"/><path class="07577a9b-9949-49f7-b9ca-6c879011d994" d="M144.03 45.5l-25.64 20-.37-.59-.38-.58-.38-.58-.39-.58 25.53-20.11.41.61.41.62.4.62.4.62M142.4 43.03l-25.53 20.1-.37-.55-.38-.54-.38-.54-.39-.54 25.43-20.25.41.57.41.57.4.58.4.58"/><path class="07577a9b-9949-49f7-b9ca-6c879011d994" d="M140.78 40.73l-25.43 20.25-.38-.52-.38-.51-.39-.51-.39-.51 25.32-20.39.42.54.39.55.41.55.4.55"/><path class="07577a9b-9949-49f7-b9ca-6c879011d994" d="M139.13 38.55l-25.32 20.38-.39-.49-.39-.49-.4-.49-.4-.48 25.22-20.52.43.52.42.52.42.52.41.53"/><path class="07577a9b-9949-49f7-b9ca-6c879011d994" d="M137.45 36.46l-25.21 20.52-.4-.47-.4-.47-.41-.47-.41-.47 25.11-20.64.44.5.43.5.43.5.42.51"/><path class="07577a9b-9949-49f7-b9ca-6c879011d994" d="M135.73 34.46l-25.11 20.67-.41-.46-.42-.46-.42-.45-.42-.45 25-20.77.45.48.45.48.44.49.44.49M133.94 32.52l-25 20.77-.42-.45-.43-.44-.43-.44-.44-.44 24.89-20.89.46.47.46.47.46.47.45.48"/><path class="07577a9b-9949-49f7-b9ca-6c879011d994" d="M132.12 30.63l-24.89 20.89-.44-.43-.45-.43-.4-.43-.45-.42 24.78-21 .48.45.48.46.47.46.47.46M130.23 28.8l-24.78 21-.46-.42-.46-.42-.47-.42-.47-.41 24.67-21.12.5.44.49.44.49.45.49.45"/><path class="07577a9b-9949-49f7-b9ca-6c879011d994" d="M128.26 27.01l-24.67 21.12-.48-.41-.48-.41-.48-.4-.49-.4 24.55-21.24.52.43.51.43.51.44.51.44"/><path class="07577a9b-9949-49f7-b9ca-6c879011d994" d="M126.21 25.27l-24.55 21.24-.5-.4-.5-.4-.51-.39-.51-.39 24.43-21.36.54.42.54.42.53.43.53.43"/><path class="07577a9b-9949-49f7-b9ca-6c879011d994" d="M124.07 23.57L99.64 44.93l-.52-.39-.53-.39-.53-.38-.53-.38 24.31-21.47.57.41.53.4.56.42.55.42M121.83 21.91L97.52 43.38l-.55-.38-.56-.38-.56-.38-.56-.37 24.17-21.59.6.4.59.4.59.41.58.41"/><path class="07577a9b-9949-49f7-b9ca-6c879011d994" d="M119.47 20.28L95.3 41.87l-.59-.38-.59-.37-.59-.37-.6-.36 24-21.7.63.39.63.4.62.4.62.41"/><path class="07577a9b-9949-49f7-b9ca-6c879011d994" d="M116.94 18.69l-24 21.7-.63-.37-.63-.37-.64-.36-.64-.35 23.88-21.81.68.38.67.39.67.4.66.4"/><path class="07577a9b-9949-49f7-b9ca-6c879011d994" d="M114.28 17.13L90.39 38.95l-.68-.37-.69-.36-.69-.35-.7-.35 23.73-21.94.74.38.73.38.72.39.72.4"/><path class="07577a9b-9949-49f7-b9ca-6c879011d994" d="M111.37 15.57L87.64 37.51l-.7-.38-.75-.35-.75-.34-.76-.34 23.56-22.06.8.37.8.37.79.38.78.39M108.15 14.04L84.59 36.13l-.87-.37-.87-.36-.87-.34-.87-.33 23.37-22.19.92.36.91.38.91.39.91.4M104.5 12.5L81.13 34.69l-1-.36-1-.35-1-.33-1-.31 23.15-22.33 1.05.35 1.05.36 1.06.41 1.05.4"/><path class="07577a9b-9949-49f7-b9ca-6c879011d994" d="M100.28 11.01L77.13 33.34l-1.29-.38-1.29-.35-1.29-.32-1.29-.3L94.84 9.51l1.36.33 1.36.36 1.36.39 1.36.42"/><path class="07577a9b-9949-49f7-b9ca-6c879011d994" d="M94.85 9.51L71.94 31.99a62.4 62.4 0 0 0-8.73-1.28 58.89 58.89 0 0 0-8.57 0 56.12 56.12 0 0 0-8.3 1.22 53.72 53.72 0 0 0-7.92 2.43 52.06 52.06 0 0 0-5.33 2.45 50.92 50.92 0 0 0-9.69 6.67 50.48 50.48 0 0 0-4.26 4.2l20.2-22.41a51.76 51.76 0 0 1 14.6-11.28 53.36 53.36 0 0 1 5.59-2.51 55.35 55.35 0 0 1 8.32-2.44 58.29 58.29 0 0 1 8.73-1.16 61.93 61.93 0 0 1 9 .15 66.36 66.36 0 0 1 9.2 1.49"/></g></g><g class="4757c656-4209-486b-a7f8-9563b895f753"><path class="07577a9b-9949-49f7-b9ca-6c879011d994" d="M15.11 45.07l19.94-22.62a56.06 56.06 0 0 0-3.72 4.68 57.42 57.42 0 0 0-3.28 5.22 59.67 59.67 0 0 0-2.79 5.78 62.91 62.91 0 0 0-2.25 6.19L3.53 65.85a60.54 60.54 0 0 1 2.18-5.87 58 58 0 0 1 2.69-5.42 55.81 55.81 0 0 1 3.15-5 54.87 54.87 0 0 1 3.56-4.49z"/><g class="41f69169-f32f-4b89-82b1-506b00eaebc7 4757c656-4209-486b-a7f8-9563b895f753"><path class="07577a9b-9949-49f7-b9ca-6c879011d994" d="M23.02 44.29L3.53 65.85l.15-.49.16-.48.16-.48.17-.48 19.51-21.67-.17.5-.17.51-.16.51-.16.51"/><path class="07577a9b-9949-49f7-b9ca-6c879011d994" d="M23.67 42.25L4.17 63.92l.29-.81.3-.8.31-.79.32-.78 19.55-21.85-.33.83-.32.84-.31.84-.3.85M24.94 38.89L5.39 60.73l.3-.71.31-.7.31-.69.32-.69 19.59-22-.33.72-.33.73-.32.74-.31.75"/><path class="07577a9b-9949-49f7-b9ca-6c879011d994" d="M26.22 35.95l-19.59 22 .32-.67.33-.66.34-.66.35-.65 19.64-22.13-.36.68-.35.69-.34.7-.34.7"/><path class="07577a9b-9949-49f7-b9ca-6c879011d994" d="M27.62 33.18L7.94 55.31l.34-.61.34-.61.35-.6.36-.59 19.69-22.25-.37.62-.36.63-.36.64-.35.64"/><path class="07577a9b-9949-49f7-b9ca-6c879011d994" d="M29.06 30.65L9.36 52.9l.36-.58.36-.57.37-.57.37-.56 19.76-22.36-.39.59-.38.6-.38.6-.37.61"/><path class="07577a9b-9949-49f7-b9ca-6c879011d994" d="M30.58 28.26L10.82 50.62l.37-.54.38-.54.38-.53.39-.53 19.82-22.46-.41.55-.4.56-.39.56-.39.57"/><path class="07577a9b-9949-49f7-b9ca-6c879011d994" d="M32.17 26.02L12.35 48.48l.39-.52.4-.51.4-.51.41-.5 19.89-22.56-.43.52-.42.53-.42.54-.41.54"/><path class="07577a9b-9949-49f7-b9ca-6c879011d994" d="M33.84 23.88l-19.9 22.56.3-.31.29-.34.29-.34.29-.34 19.94-22.62-.31.35-.3.29-.3.36-.3.36"/></g></g><g class="4757c656-4209-486b-a7f8-9563b895f753"><path class="07577a9b-9949-49f7-b9ca-6c879011d994" d="M131.41 141.38l-26.27 14.8a56.15 56.15 0 0 1-11.7 4.95 59.25 59.25 0 0 1-13 2.28 64.07 64.07 0 0 1-13.87-.64 71.07 71.07 0 0 1-14.38-3.82 78.65 78.65 0 0 1-25.1-15.52 83.29 83.29 0 0 1-17.72-23.09 77.91 77.91 0 0 1-8.36-27.07 66.39 66.39 0 0 1 2.5-27.42L23 44.29a70.16 70.16 0 0 0-2.36 29.06 84.5 84.5 0 0 0 9.15 28.89 91.29 91.29 0 0 0 19 24.77 85.51 85.51 0 0 0 26.76 16.79A75.86 75.86 0 0 0 90.8 148a67.36 67.36 0 0 0 14.66.81 61.36 61.36 0 0 0 13.65-2.3 57.42 57.42 0 0 0 12.3-5.13z"/><g class="a93d78ee-4684-4929-8bbc-c4b5c9b97f65 4757c656-4209-486b-a7f8-9563b895f753"><path class="07577a9b-9949-49f7-b9ca-6c879011d994" d="M131.41 141.38l-26.27 14.8a55.92 55.92 0 0 1-8.53 3.9 58 58 0 0 1-9.27 2.48 60.79 60.79 0 0 1-9.88 1 64.6 64.6 0 0 1-10.33-.68l24.28-14.75a68 68 0 0 0 10.92.82 63.16 63.16 0 0 0 10.41-.92 59.62 59.62 0 0 0 9.74-2.55 57.06 57.06 0 0 0 8.92-4.06"/><path class="07577a9b-9949-49f7-b9ca-6c879011d994" d="M91.41 148.13l-24.28 14.75-1.49-.23-1.49-.27-1.5-.3-1.5-.34 23.93-14.88 1.59.38 1.59.34 1.58.3 1.58.26M85.07 146.81L61.14 161.7l-1.18-.29-1.18-.31-1.19-.34-1.19-.36 23.64-15 1.26.39 1.26.37 1.26.35 1.25.32"/><path class="07577a9b-9949-49f7-b9ca-6c879011d994" d="M80.05 145.38l-23.64 15-1-.33-1-.35-1-.36-1-.38 23.39-15.15 1.1.42 1.1.4 1.1.38 1.09.36M75.66 143.82l-23.39 15.15h-.05l-.88-.34-.87-.35-.87-.36-.86-.37 23.2-15.29.92.4.92.39.93.38.93.37h.05M71.94 142.26l-23.19 15.27-.81-.4-.83-.38-.82-.39-.82-.4 23-15.41.87.43.87.42.88.41.88.4M68.41 140.59l-23 15.41-.76-.38-.71-.4-.75-.4-.75-.41 22.76-15.54.8.44.8.43.81.42.81.42"/><path class="07577a9b-9949-49f7-b9ca-6c879011d994" d="M65.19 138.88l-22.76 15.54-.71-.4-.71-.4-.7-.41-.7-.42 22.58-15.66.74.45.75.44.75.44.76.43"/><path class="07577a9b-9949-49f7-b9ca-6c879011d994" d="M62.19 137.13l-22.57 15.66-.68-.41-.67-.42-.67-.43-.66-.4 22.4-15.81.71.47.71.46.72.46.72.45"/><path class="07577a9b-9949-49f7-b9ca-6c879011d994" d="M59.34 135.28l-22.4 15.85-.64-.43-.63-.43-.63-.44-.62-.44 22.23-16 .67.48.67.47.67.47.68.46"/><path class="07577a9b-9949-49f7-b9ca-6c879011d994" d="M56.65 133.4l-22.23 16-.61-.45-.61-.45-.6-.46-.6-.46 22.06-16.09.64.5.64.49.65.49.65.48M54.06 131.45L32 147.54l-.58-.41-.58-.46-.58-.54-.57-.47 21.91-16.24.61.51.61.5.62.5.62.49"/><path class="07577a9b-9949-49f7-b9ca-6c879011d994" d="M51.6 129.44l-21.91 16.24-.56-.48-.56-.48-.55-.49-.55-.49 21.75-16.39.59.53.59.52.6.52.6.51"/><path class="07577a9b-9949-49f7-b9ca-6c879011d994" d="M49.22 127.35l-21.75 16.39-.53-.49-.54-.5-.53-.5-.53-.5 21.6-16.54.56.54.57.54.57.53.58.53M46.94 125.21l-21.6 16.54-.52-.51-.52-.51-.51-.52-.51-.52 21.46-16.7.54.56.55.58.55.55.56.53"/><path class="07577a9b-9949-49f7-b9ca-6c879011d994" d="M44.74 122.99l-21.46 16.7-.5-.53-.5-.53-.5-.5-.49-.54 21.31-16.86.52.58.53.58.54.57.54.57M42.61 120.69l-21.32 16.86-.48-.55-.48-.55-.47-.55-.47-.56 21.18-17 .5.6.51.6.51.59.52.59M40.56 118.32l-21.18 17-.44-.56-.47-.58-.53-.58-.46-.59 21-17.19.49.63.5.63.51.62.51.62"/><path class="07577a9b-9949-49f7-b9ca-6c879011d994" d="M38.55 115.82l-21 17.19-.46-.59-.45-.6-.45-.6-.44-.61 20.9-17.37.47.65.48.65.49.64.49.64M36.62 113.24l-20.9 17.37-.46-.65-.45-.65-.45-.65-.42-.66 20.77-17.55.44.68.48.7.49.7.5.69"/><path class="07577a9b-9949-49f7-b9ca-6c879011d994" d="M34.68 110.44L13.94 128l-.44-.67-.44-.68-.43-.68-.42-.68 20.63-17.75.45.73.46.73.47.72.47.72M32.82 107.54l-20.64 17.75-.47-.78-.46-.78-.45-.79-.44-.81 20.49-18 .48.85.49.84.5.84.51.83"/><path class="07577a9b-9949-49f7-b9ca-6c879011d994" d="M30.85 104.13l-20.49 18-.48-.88-.47-.89-.47-.87-.45-.9 20.34-18.22.48 1 .49 1 .51.95.54.81"/><path class="07577a9b-9949-49f7-b9ca-6c879011d994" d="M28.85 100.37L8.51 118.59l-.52-1.08-.5-1.09-.49-1.1-.47-1.1L26.7 95.7l.51 1.18.53 1.17.54 1.17.56 1.16"/><path class="07577a9b-9949-49f7-b9ca-6c879011d994" d="M26.71 95.7L6.53 114.22q-.37-.89-.72-1.79t-.68-1.8q-.33-.9-.63-1.81t-.56-1.81l19.94-19q.31 1 .64 1.94t.69 1.93q.36 1 .74 1.92t.78 1.91"/><path class="07577a9b-9949-49f7-b9ca-6c879011d994" d="M23.86 87.99L3.94 107.01q-.61-2-1.11-4t-.89-4q-.39-2-.67-4t-.44-4l19.59-20.06q.19 2.15.51 4.31t.75 4.3q.43 2.15 1 4.28t1.22 4.25M20.39 70.87L.8 90.93q-.09-1.14-.14-2.27t-.07-2.27q0-1.13 0-2.26t.08-2.26l19.49-20.62q0 1.2-.06 2.4t0 2.41q0 1.2.1 2.41t.18 2.41M20.16 61.24L.67 81.87q0-.73.09-1.46t.12-1.46q.07-.73.16-1.45t.19-1.45l19.46-21q-.1.77-.18 1.53t-.16 1.55q-.07.77-.12 1.55t-.08 1.55"/><path class="07577a9b-9949-49f7-b9ca-6c879011d994" d="M20.69 55.07l-19.46 21q.08-.59.18-1.18t.2-1.18c.07-.39.14-.78.22-1.17l.24-1.17 19.46-21.24q-.13.62-.25 1.24t-.22 1.24q-.1.62-.2 1.25t-.18 1.25"/><path class="07577a9b-9949-49f7-b9ca-6c879011d994" d="M21.53 50.13L2.07 71.34q.11-.49.22-1l.24-1q.12-.49.25-1t.27-1l19.48-21.47q-.14.51-.27 1t-.26 1q-.12.52-.24 1t-.22 1"/><path class="07577a9b-9949-49f7-b9ca-6c879011d994" d="M22.53 45.97L3.05 67.44l.12-.4.12-.4.12-.4.12-.4 19.49-21.56-.13.42-.12.42-.12.42-.12.42"/></g></g><path class="07577a9b-9949-49f7-b9ca-6c879011d994" d="M23.02 44.29a58.38 58.38 0 0 1 13.4-23.33A55.72 55.72 0 0 1 57.28 7.13a62.09 62.09 0 0 1 25.15-3.78 74.39 74.39 0 0 1 26.77 6.68 86.63 86.63 0 0 1 23.81 16.1 91.42 91.42 0 0 1 17.18 22.23 85.8 85.8 0 0 1 9.33 26 72.93 72.93 0 0 1-.14 27.45 60.58 60.58 0 0 1-10.44 24.06 55.5 55.5 0 0 1-19 16.32 59.67 59.67 0 0 1-25.33 6.67 71.69 71.69 0 0 1-29-5.06 85.51 85.51 0 0 1-26.76-16.79 91.29 91.29 0 0 1-19-24.77 84.5 84.5 0 0 1-9.15-28.89 70.16 70.16 0 0 1 2.32-29.06zm123.63 5.66a85.41 85.41 0 0 0-16.12-20.82 82.52 82.52 0 0 0-10.45-8.39 79.35 79.35 0 0 0-11.89-6.64 73.31 73.31 0 0 0-12.6-4.37A65.83 65.83 0 0 0 83.1 7.89 60.18 60.18 0 0 0 71 8.5a55.9 55.9 0 0 0-11.42 3 53 53 0 0 0-10.41 5.35 51.48 51.48 0 0 0-9 7.62 52.59 52.59 0 0 0-7.29 9.84 57.06 57.06 0 0 0-5.14 12 62.86 62.86 0 0 0-2.48 13.37 68.94 68.94 0 0 0 .35 13.75 76 76 0 0 0 3 13.71 82.13 82.13 0 0 0 5.54 13.21 85.43 85.43 0 0 0 17.74 23.07 82.16 82.16 0 0 0 11.7 9 78.06 78.06 0 0 0 13.22 6.7 71.24 71.24 0 0 0 13.76 3.87 63.41 63.41 0 0 0 13.27.91 57.88 57.88 0 0 0 12.42-1.82 54.17 54.17 0 0 0 11.25-4.32 51.92 51.92 0 0 0 17.82-15.18 54.1 54.1 0 0 0 6-10.42 59.36 59.36 0 0 0 3.82-12.05 65.4 65.4 0 0 0 1.35-12.98 71.1 71.1 0 0 0-1.13-12.83 77.59 77.59 0 0 0-3.35-12.5 82.87 82.87 0 0 0-5.37-11.89"/></g><path class="bf2956ab-5e75-464f-8f2d-d149c23661df" d="M148.13 75.39a22.58 22.58 0 1 1-4.36-24.42 22.43 22.43 0 0 1 4.36 24.42z"/><circle class="bf2956ab-5e75-464f-8f2d-d149c23661df" cx="172.44" cy="265.36" r="18.71" transform="rotate(-43.46 -99.6 222.44)"/><path class="12efdd3b-0c90-441f-8142-3063d1c73df7" d="M136.17 63.13a21.76 21.76 0 0 1-5.07 7.27 22.13 22.13 0 0 1-22.63 4.73l-1.88-.66-.55-1.91a22.44 22.44 0 0 1 .9-15.03 21.74 21.74 0 0 1 5.07-7.27 22.12 22.12 0 0 1 22.62-4.75l1.88.66.56 1.92a22.46 22.46 0 0 1-.89 15.06z"/><path class="12efdd3b-0c90-441f-8142-3063d1c73df7" d="M114.66 53.06a18.32 18.32 0 0 0-4.91 18.45 18.2 18.2 0 0 0 23.6-22.38 18.32 18.32 0 0 0-18.69 3.93z"/><path class="bf2956ab-5e75-464f-8f2d-d149c23661df" d="M77.06 111.72c-.7.68-.29 2.22.9 3.43 1.19 1.22 2.72 1.65 3.41 1l36.68-35.88c.69-.68.29-2.21-.9-3.43-1.19-1.22-2.72-1.65-3.41-1z"/><circle class="bf2956ab-5e75-464f-8f2d-d149c23661df" cx="117.15" cy="317.74" r="18.71" transform="rotate(-43.46 -154.87 274.82)"/><path class="12efdd3b-0c90-441f-8142-3063d1c73df7" d="M80.88 115.52a21.72 21.72 0 0 1-5.07 7.27 22.12 22.12 0 0 1-22.63 4.75l-1.88-.66-.55-1.91a22.47 22.47 0 0 1 .89-15.06 21.78 21.78 0 0 1 5.07-7.27 22.12 22.12 0 0 1 22.62-4.75l1.88.66.55 1.91a22.44 22.44 0 0 1-.89 15.06z"/><path class="12efdd3b-0c90-441f-8142-3063d1c73df7" d="M59.37 105.44a18.32 18.32 0 0 0-4.91 18.45 18.2 18.2 0 0 0 23.6-22.36 18.31 18.31 0 0 0-18.69 3.91z"/><path class="bf2956ab-5e75-464f-8f2d-d149c23661df" d="M70.6 109.13c.28.93-.82 2.08-2.45 2.56-1.63.48-3.18.13-3.46-.81L50.06 61.67c-.28-.93.82-2.08 2.46-2.56 1.63-.49 3.18-.13 3.45.8z"/><path class="bf2956ab-5e75-464f-8f2d-d149c23661df" d="M75.61 57.58a22.58 22.58 0 1 1-4.36-24.45 22.43 22.43 0 0 1 4.36 24.43z"/><circle class="bf2956ab-5e75-464f-8f2d-d149c23661df" cx="99.92" cy="247.55" r="18.71" transform="rotate(-43.45 -172.14 204.67)"/><path class="12efdd3b-0c90-441f-8142-3063d1c73df7" d="M63.65 45.33a21.72 21.72 0 0 1-5.07 7.27 22.14 22.14 0 0 1-22.64 4.75l-1.88-.66-.56-1.92a22.46 22.46 0 0 1 .89-15.06 21.81 21.81 0 0 1 5.07-7.27 22.14 22.14 0 0 1 22.62-4.75l1.88.66.56 1.91a22.46 22.46 0 0 1-.89 15.06z"/><path class="12efdd3b-0c90-441f-8142-3063d1c73df7" d="M42.14 35.25a18.32 18.32 0 0 0-4.91 18.46 18.2 18.2 0 0 0 23.6-22.36 18.32 18.32 0 0 0-18.69 3.9z"/><path class="bf2956ab-5e75-464f-8f2d-d149c23661df" d="M115.68 66.38c.91.33 2.12-.71 2.69-2.31.57-1.6.3-3.16-.62-3.49L69.43 43.32c-.91-.33-2.12.71-2.69 2.31-.57 1.6-.3 3.17.62 3.49z"/><circle class="393b0ee5-2f9a-4bca-b260-0fc2a1324eaa" cx="173.91" cy="264.71" r="19.06" transform="rotate(-43.46 -98.13 221.78)"/><path class="9af40bc9-9d00-497a-928c-0d13c8cc0ca0" d="M115.14 51.64a19.67 19.67 0 0 0-5.2 19.32 18.7 18.7 0 0 0 19.18-4.29 19.67 19.67 0 0 0 5.24-19.32 18.7 18.7 0 0 0-19.22 4.29z"/><path class="bf2956ab-5e75-464f-8f2d-d149c23661df" d="M77.61 111.89c-.71.69-.3 2.26.92 3.5 1.21 1.24 2.77 1.68 3.47 1l37.34-36.54c.71-.69.3-2.25-.92-3.49-1.21-1.24-2.77-1.68-3.48-1z"/><circle class="393b0ee5-2f9a-4bca-b260-0fc2a1324eaa" cx="117.62" cy="318.04" r="19.05" transform="rotate(-43.45 -154.44 275.17)"/><path class="9af40bc9-9d00-497a-928c-0d13c8cc0ca0" d="M58.94 104.65a20.3 20.3 0 0 0-5.38 19.64 18.73 18.73 0 0 0 19.26-4.48 20.3 20.3 0 0 0 5.42-19.68 18.73 18.73 0 0 0-19.3 4.52z"/><path class="bf2956ab-5e75-464f-8f2d-d149c23661df" d="M71.03 109.21c.28.95-.84 2.12-2.5 2.61-1.66.49-3.24.13-3.52-.82l-14.9-50.08c-.28-.95.84-2.12 2.5-2.61 1.66-.5 3.24-.13 3.52.82z"/><path class="393b0ee5-2f9a-4bca-b260-0fc2a1324eaa" d="M68.84 34.59a19.06 19.06 0 1 1-26.9-.73 19.05 19.05 0 0 1 26.9.73z"/><path class="9af40bc9-9d00-497a-928c-0d13c8cc0ca0" d="M41.69 33.84A21.35 21.35 0 0 0 36.08 54a18.81 18.81 0 0 0 19.4-4.8 21.34 21.34 0 0 0 5.61-20.16 18.82 18.82 0 0 0-19.4 4.8z"/><path class="bf2956ab-5e75-464f-8f2d-d149c23661df" d="M116.94 65.72c.93.33 2.16-.72 2.74-2.36.59-1.63.3-3.22-.63-3.56l-49.2-17.58c-.93-.33-2.16.72-2.74 2.35-.58 1.63-.3 3.22.63 3.56z"/><g class="4757c656-4209-486b-a7f8-9563b895f753"><g class="4757c656-4209-486b-a7f8-9563b895f753"><path class="b3f30091-7c7c-48da-a2bc-8b34e4e35752" d="M148.39 47.8a84.86 84.86 0 0 0-16.19-21 82.09 82.09 0 0 0-10.54-8.42 79.08 79.08 0 0 0-12-6.64 79.08 79.08 0 0 1 12 6.64 82.09 82.09 0 0 1 10.54 8.42 84.86 84.86 0 0 1 16.19 21z"/><g class="6bc7146a-e3aa-47b6-8d45-4b3488ddb470 4757c656-4209-486b-a7f8-9563b895f753"><path class="b3f30091-7c7c-48da-a2bc-8b34e4e35752" d="M148.39 47.8l-.3-.54-.3-.54-.3-.53-.31-.53.31.53.3.53.3.54.3.54M147.18 45.67l-.55-.93-.57-.93-.58-.92-.59-.91.59.91.58.92.57.93.55.93M144.89 41.97l-.57-.85-.58-.84-.59-.84-.6-.83.6.83.59.84.58.84.57.85M142.57 38.61l-.58-.78-.59-.78-.59-.77-.6-.76.6.76.59.77.59.78.58.78M140.21 35.52l-.59-.73-.6-.72-.61-.72-.62-.71.62.71.61.72.6.72.59.73M137.79 32.63l-.6-.68-.61-.68-.62-.67-.63-.66.63.66.62.67.61.68.6.68M135.33 29.94l-.62-.64-.63-.64-.63-.63-.64-.62.64.62.63.63.63.64.62.64M132.81 27.41l-.64-.61-.65-.6-.65-.6-.66-.59.66.59.65.6.65.6.64.61M130.21 25.01l-.66-.58-.67-.57-.67-.56-.68-.56.68.56.67.56.67.57.66.58M127.53 22.75l-.68-.55-.69-.54-.7-.53-.7-.53.7.53.7.53.69.54.68.55M124.76 20.6l-.71-.52-.72-.52-.72-.51-.73-.5.73.5.72.51.72.52.71.52M121.88 18.55l-.75-.5-.75-.49-.76-.48-.77-.48.77.48.76.48.75.49.75.5M118.85 16.6l-.79-.48-.8-.47-.81-.46-.81-.45.81.45.81.46.8.47.79.48M115.64 14.73l-.85-.46-.86-.45-.86-.44-.87-.43.87.43.86.44.86.45.85.46M112.2 12.95l-.13-.06-.13-.06-.13-.06-.13-.06.13.06.13.06.13.06.13.06M111.68 12.7l-.12-.06-.13-.06-.13-.06-.13-.06.13.06.13.06.13.06.12.06M111.18 12.46l-.13-.06-.13-.06-.13-.06-.13-.06.13.06.13.06.13.06.13.06M110.67 12.23l-.13-.06-.13-.06-.13-.06-.13-.06.13.06.13.06.13.06.13.06M110.17 11.99l-.13-.06-.13-.06-.13-.06-.13-.06.13.06.13.06.13.06.13.06"/></g></g><g class="4757c656-4209-486b-a7f8-9563b895f753"><path class="b3f30091-7c7c-48da-a2bc-8b34e4e35752" d="M23.09 42.86a59.94 59.94 0 0 1 13.75-23.67A57.47 57.47 0 0 1 58.08 5.13a63.47 63.47 0 0 1 25.53-4 74.94 74.94 0 0 1 27.09 6.59 74.94 74.94 0 0 0-27.1-6.59 63.47 63.47 0 0 0-25.53 4 57.47 57.47 0 0 0-21.23 14.06 59.94 59.94 0 0 0-13.75 23.67z"/><g class="d692592e-515f-4c70-8880-df21a4a82714 4757c656-4209-486b-a7f8-9563b895f753"><path class="b3f30091-7c7c-48da-a2bc-8b34e4e35752" d="M23.09 42.86a60.57 60.57 0 0 1 11-20.58A57 57 0 0 1 50.81 8.47a60.39 60.39 0 0 1 20.44-6.73 67.89 67.89 0 0 1 22.41.61 67.89 67.89 0 0 0-22.41-.61 60.39 60.39 0 0 0-20.44 6.73 57 57 0 0 0-16.72 13.81 60.57 60.57 0 0 0-11 20.58M93.67 2.34l1.58.32 1.58.36 1.58.39 1.58.43-1.58-.43-1.58-.39-1.58-.36-1.58-.32M100 3.85l1.25.37 1.25.39 1.25.41 1.25.44-1.25-.44-1.25-.41-1.25-.39-1.25-.37M105 5.45h.36-.36M105.36 5.58l.45.16.45.17.44.17.44.17-.44-.17-.44-.17-.45-.17-.45-.16M107.14 6.25l.44.18.44.18.45.18.44.18-.44-.18-.45-.18-.44-.18-.44-.18M108.94 6.97l.44.19.44.19.44.19.44.2-.44-.2-.44-.19-.44-.19-.44-.19"/></g></g><g class="4757c656-4209-486b-a7f8-9563b895f753"><path class="b3f30091-7c7c-48da-a2bc-8b34e4e35752" d="M77.08 138.38a71.62 71.62 0 0 0 13.91 3.82 64.23 64.23 0 0 0 13.43.83 59 59 0 0 0 12.6-1.9 55.56 55.56 0 0 0 11.42-4.44 53.52 53.52 0 0 0 18.16-15.56 55.58 55.58 0 0 0 6.19-10.58 60.71 60.71 0 0 0 3.94-12.21 66.26 66.26 0 0 0 1.42-13 71.46 71.46 0 0 0-1.06-13 77.51 77.51 0 0 0-3.32-12.61 82.34 82.34 0 0 0-5.37-12 82.34 82.34 0 0 1 5.37 12 77.51 77.51 0 0 1 3.32 12.61 71.46 71.46 0 0 1 1.06 13 66.26 66.26 0 0 1-1.42 13 60.71 60.71 0 0 1-3.94 12.21 55.58 55.58 0 0 1-6.19 10.58 53.52 53.52 0 0 1-18.16 15.47 55.56 55.56 0 0 1-11.42 4.53 59 59 0 0 1-12.59 1.93 64.23 64.23 0 0 1-13.43-.83 71.62 71.62 0 0 1-13.92-3.85z"/><g class="04fe42d9-aec4-4574-8be1-0785a9fe7f57 4757c656-4209-486b-a7f8-9563b895f753"><path class="b3f30091-7c7c-48da-a2bc-8b34e4e35752" d="M77.08 138.38a71.77 71.77 0 0 0 13.47 3.75 64.52 64.52 0 0 0 13 .94 59.33 59.33 0 0 0 12.26-1.66 55.84 55.84 0 0 0 11.2-4 55.84 55.84 0 0 1-11.2 4 59.33 59.33 0 0 1-12.26 1.66 64.52 64.52 0 0 1-13-.94 71.77 71.77 0 0 1-13.47-3.74M127.03 137.36l.19-.09.19-.09.19-.09.19-.1-.19.1-.19.09-.19.09-.19.09M127.8 136.98l.16-.08.16-.08.16-.08.16-.08.11-.06.11-.06.11-.06.11-.06-.11.06-.11.06-.11.06-.11.06-.16.08-.16.08-.16.08-.16.08M128.89 136.41l.74-.4.73-.41.73-.43.72-.44-.72.44-.73.43-.73.41-.74.4M131.81 134.73l.64-.4.64-.41.63-.42.62-.43-.62.43-.63.42-.64.41-.64.4M134.34 133.07l.57-.4.56-.41.56-.42.55-.43-.55.43-.56.42-.56.41-.57.4M136.59 131.41l.51-.41.51-.41.5-.42.5-.42-.5.42-.5.42-.51.41-.51.41M138.61 129.75l.47-.41.47-.42.46-.42.46-.43-.46.43-.46.42-.47.42-.47.41M140.48 128.07l.44-.42.44-.43.43-.43.43-.44-.43.44-.43.43-.44.43-.44.42"/><path class="b3f30091-7c7c-48da-a2bc-8b34e4e35752" d="M142.21 126.36l.41-.43.41-.44.4-.44.4-.45-.4.45-.4.44-.41.44-.41.43M143.82 124.6l.39-.45.38-.45.38-.45.37-.46-.37.46-.38.45-.38.45-.39.45M145.35 122.79l.37-.46.36-.47.36-.47.35-.48-.35.48-.36.47-.36.47-.37.46M146.79 120.92l.35-.48.35-.49.34-.49.34-.5-.34.5-.34.49-.35.49-.35.48M148.17 118.96l.34-.51.33-.51.33-.52.32-.52-.32.52-.33.52-.33.51-.34.51M149.49 116.9l.32-.54.32-.54.31-.55.31-.55-.31.55-.31.55-.32.54-.32.54M150.75 114.72l.31-.58.31-.58.3-.59.29-.59-.29.59-.3.59-.31.58-.31.58M151.94 112.37l.3-.63.3-.64.29-.64.28-.65-.28.65-.29.64-.3.64-.3.63M153.13 109.82l.29-.7.29-.7.28-.71.27-.72-.27.72-.28.71-.29.7-.29.7M154.26 106.99l.28-.79.27-.8.26-.8.25-.81-.25.81-.26.8-.27.8-.28.79M155.34 103.79l.22-.73.21-.73.2-.74.19-.74-.19.74-.2.74-.21.73-.22.73M156.56 99.13V99v.13M156.7 98.52v-.13a66.26 66.26 0 0 0 1.42-13 71.46 71.46 0 0 0-1.06-13 77.51 77.51 0 0 0-3.32-12.61 82.34 82.34 0 0 0-5.37-12 82.34 82.34 0 0 1 5.37 12 77.51 77.51 0 0 1 3.32 12.61 71.46 71.46 0 0 1 1.06 13 66.26 66.26 0 0 1-1.42 13v.13"/></g></g><path class="b3f30091-7c7c-48da-a2bc-8b34e4e35752" d="M23.09 42.86a59.94 59.94 0 0 1 13.75-23.67A57.47 57.47 0 0 1 58.08 5.13a63.47 63.47 0 0 1 25.53-4 74.94 74.94 0 0 1 27.09 6.59 86.27 86.27 0 0 1 24 16.09 90.78 90.78 0 0 1 17.24 22.38 85.6 85.6 0 0 1 9.3 26.22 73.6 73.6 0 0 1-.3 27.72 62 62 0 0 1-10.75 24.4 57.27 57.27 0 0 1-19.36 16.63 61.19 61.19 0 0 1-25.68 6.97 72.38 72.38 0 0 1-29.37-5 85.29 85.29 0 0 1-27-16.81 90.67 90.67 0 0 1-19.19-24.89 84.39 84.39 0 0 1-9.09-29.16 71 71 0 0 1 2.59-29.41zm125.3 4.95a84.86 84.86 0 0 0-16.19-21 82.09 82.09 0 0 0-10.54-8.42 79.08 79.08 0 0 0-12-6.64 73.62 73.62 0 0 0-12.72-4.32 66.65 66.65 0 0 0-12.65-1.78 61.34 61.34 0 0 0-12.27.69 57.34 57.34 0 0 0-11.59 3.11 54.46 54.46 0 0 0-10.59 5.47 53.09 53.09 0 0 0-9.22 7.76 54.19 54.19 0 0 0-7.46 10 58.53 58.53 0 0 0-5.3 12.15 64 64 0 0 0-2.6 13.53 69.4 69.4 0 0 0 .26 13.91 76 76 0 0 0 3 13.84 81.75 81.75 0 0 0 5.53 13.33 84.67 84.67 0 0 0 17.84 23.23 81.59 81.59 0 0 0 11.81 9 78 78 0 0 0 13.37 6.69 71.64 71.64 0 0 0 13.87 3.83 64.21 64.21 0 0 0 13.45.84 59 59 0 0 0 12.62-1.9 55.57 55.57 0 0 0 11.43-4.45 53.52 53.52 0 0 0 18.16-15.55 55.58 55.58 0 0 0 6.19-10.58 60.71 60.71 0 0 0 3.94-12.21 66.26 66.26 0 0 0 1.42-13 71.46 71.46 0 0 0-1.06-13 77.51 77.51 0 0 0-3.32-12.61 82.34 82.34 0 0 0-5.37-12"/></g></g><path class="e5f864cf-09e9-43f9-b6ae-184c7b4ecafc" d="M12.12 48.93C5.3 57.93.25 73.3.25 84.51c0 45.32 47.23 95.65 103.18 72.79M31.03 27.25l-19 21.8M130.92 141.07l-27.74 16.36"/></svg>