<svg preserveAspectRatio="none" xmlns="http://www.w3.org/2000/svg" version="1.1" xmlns:xlink="http://www.w3.org/1999/xlink"><path fill="#8d8d8d" d="M5,1 C2.79086,1 1,2.79086 1,5 C1,7.20914 2.79086,9 5,9 C7.20914,9 9,7.20914 9,5 C9,2.79086 7.20914,1 5,1 z M5,0 C7.76142,0 10,2.23858 10,5 C10,6.16497 9.60158,7.23689 8.93357,8.08693 L8.87132,8.16422 L13.0159,12.3088 L12.3088,13.0159 L8.16422,8.87133 L8.08693,8.93357 C7.23689,9.60158 6.16497,10 5,10 C2.23858,10 0,7.76142 0,5 C0,2.23858 2.23858,0 5,0 z"></path></svg>