<svg xmlns="http://www.w3.org/2000/svg" viewBox="0 0 474 72"><defs><style>.cls-1{fill:#fff;}</style></defs><g id="Layer_2" data-name="Layer 2"><g id="Layer_1-2" data-name="Layer 1"><path class="cls-1" d="M78.72 36a4.17 4.17 0 1 0-4.17 4.18A4.17 4.17 0 0 0 78.72 36zM76.34 23.74A3.6 3.6 0 1 0 74 28.28a3.61 3.61 0 0 0 2.34-4.54zM70.84 14.29a3.06 3.06 0 1 0-.77 4.27 3.06 3.06 0 0 0 .77-4.27zM63.21 7.09a2.64 2.64 0 1 0 .35 3.71 2.62 2.62 0 0 0-.35-3.71zM54.8 2.74a2.17 2.17 0 0 0-2.84 1 2.16 2.16 0 0 0 1 2.84 2.14 2.14 0 1 0 1.8-3.88zM46.78.58a1.84 1.84 0 1 0 1.43 2.17A1.83 1.83 0 0 0 46.78.58zM39.35 0a1.59 1.59 0 1 0 1.58 1.58A1.57 1.57 0 0 0 39.35 0zM8.32 36a4.16 4.16 0 1 0-4.16 4.18A4.16 4.16 0 0 0 8.32 36zM9.24 46a3.61 3.61 0 1 0-2.3 4.56A3.61 3.61 0 0 0 9.24 46zM12.91 54.23a3.07 3.07 0 0 0-5.05 3.49 3.1 3.1 0 0 0 4.27.76 3.05 3.05 0 0 0 .78-4.25zM18.87 60.86a2.64 2.64 0 1 0-3.37 4.06 2.64 2.64 0 1 0 3.37-4.06zM25.71 65.38a2.11 2.11 0 0 0-2.83 1 2.14 2.14 0 1 0 2.83-1zM32.71 67.83a1.85 1.85 0 0 0-.71 3.61 1.85 1.85 0 0 0 .76-3.61zM39.37 68.83A1.59 1.59 0 1 0 41 70.41a1.59 1.59 0 0 0-1.63-1.58zM4.69 28.29a3.6 3.6 0 1 0-2.3-4.55 3.6 3.6 0 0 0 2.3 4.55zM8.65 18.56a3.06 3.06 0 1 0-.77-4.27 3.08 3.08 0 0 0 .77 4.27zM15.15 10.8a2.64 2.64 0 1 0 .36-3.71 2.62 2.62 0 0 0-.36 3.71zM22.87 5.59a2.14 2.14 0 0 0 3.89-1.8 2.14 2.14 0 1 0-3.89 1.8zM30.51 2.74A1.85 1.85 0 1 0 32 .57a1.84 1.84 0 0 0-1.49 2.17zM71.78 50.57A3.61 3.61 0 1 0 69.5 46a3.61 3.61 0 0 0 2.28 4.57zM66.6 58.48a3.06 3.06 0 1 0-.79-4.25 3.06 3.06 0 0 0 .79 4.25zM59.5 64.56a2.64 2.64 0 1 0 .36-3.71 2.64 2.64 0 0 0-.36 3.71zM52 68.22a2.14 2.14 0 1 0 1-2.84 2.15 2.15 0 0 0-1 2.84zM44.59 70a1.84 1.84 0 1 0 3.61-.75 1.84 1.84 0 0 0-3.61.75zM65.76 21.63A3.18 3.18 0 1 0 64.48 26a3.21 3.21 0 0 0 1.28-4.37zM59.8 14.14a2.93 2.93 0 0 0-4.16.13 2.95 2.95 0 1 0 4.16-.13zM52.4 9.65A2.51 2.51 0 1 0 53.54 13a2.48 2.48 0 0 0-1.14-3.35zM44.83 7.81A2.11 2.11 0 1 0 44 12a2.11 2.11 0 1 0 .82-4.15zM37.55 8.07a1.63 1.63 0 1 0 1.75 1.51 1.64 1.64 0 0 0-1.75-1.51zM31.39 9.54a1.41 1.41 0 1 0 1.75.94 1.38 1.38 0 0 0-1.75-.94zM26.21 11.86A1.21 1.21 0 1 0 27.37 14a1.24 1.24 0 0 0 .49-1.65 1.22 1.22 0 0 0-1.65-.49zM18.54 47.32a3.18 3.18 0 1 0-1.27 4.33 3.19 3.19 0 0 0 1.27-4.33zM23 53.56a2.94 2.94 0 1 0 .14 4.17 2.95 2.95 0 0 0-.14-4.17zM28.35 57.73a2.52 2.52 0 1 0 1.12 3.36 2.53 2.53 0 0 0-1.12-3.36zM34.71 60.05a2.12 2.12 0 1 0 1.68 2.47 2.12 2.12 0 0 0-1.68-2.47zM40.93 60.69a1.61 1.61 0 0 0-1.52 1.73 1.63 1.63 0 1 0 3.25-.22 1.61 1.61 0 0 0-1.73-1.51zM46.52 59.78a1.41 1.41 0 1 0 1.76.93 1.42 1.42 0 0 0-1.76-.93zM51.34 58a1.21 1.21 0 0 0 1.17 2.13A1.2 1.2 0 0 0 53 58.5a1.21 1.21 0 0 0-1.66-.5zM13.24 43.25a2.5 2.5 0 1 0-2.91-2 2.48 2.48 0 0 0 2.91 2zM12.43 35.23a2 2 0 1 0 .41-4.06 2 2 0 0 0-.41 4.06zM14 27.87a2 2 0 0 0 2.53-1.09 1.94 1.94 0 0 0-3.61-1.43A2 2 0 0 0 14 27.87zM17.2 21.63a1.62 1.62 0 0 0 2.28-.36 1.59 1.59 0 0 0-.33-2.27 1.62 1.62 0 0 0-2.28.33 1.64 1.64 0 0 0 .33 2.3zM21.27 16.94a1.42 1.42 0 1 0 .17-2 1.44 1.44 0 0 0-.17 2zM66.37 33.68a2.5 2.5 0 0 0-.9-4.92 2.5 2.5 0 1 0 .9 4.92zM65.86 40.83A2 2 0 1 0 64 38.59a2 2 0 0 0 1.86 2.24zM63.32 47.72a1.93 1.93 0 0 0 1.44-3.59 1.92 1.92 0 0 0-2.51 1.08 2 2 0 0 0 1.07 2.51zM59.57 53a1.64 1.64 0 1 0-.34-2.29 1.64 1.64 0 0 0 .34 2.29zM55.27 56.88a1.42 1.42 0 0 0 2 .17 1.39 1.39 0 0 0 .16-2 1.44 1.44 0 0 0-2-.16 1.42 1.42 0 0 0-.16 1.99zM55 20.5a3 3 0 0 0-4.23 0 2.92 2.92 0 0 0 0 4.15 3 3 0 0 0 4.21 0A2.93 2.93 0 0 0 55 20.5zM47.46 15.87a2.68 2.68 0 1 0-2 5 2.68 2.68 0 0 0 2-5zM39.4 14.9a2.35 2.35 0 1 0 0 4.69 2.32 2.32 0 0 0 2.33-2.34 2.36 2.36 0 0 0-2.33-2.35zM31.63 17.3a1.75 1.75 0 0 0-1 2.27 1.81 1.81 0 0 0 2.31 1 1.77 1.77 0 0 0 .93-2.31 1.72 1.72 0 0 0-2.24-.96zM27.88 47.37a3 3 0 0 0-4.23 4.19 3 3 0 0 0 4.23 0 3 3 0 0 0 0-4.19zM33.2 51.2a2.68 2.68 0 1 0-2 5 2.65 2.65 0 0 0 3.46-1.45 2.71 2.71 0 0 0-1.46-3.55zM39.25 52.42a2.37 2.37 0 0 0-2.36 2.35 2.37 2.37 0 1 0 2.36-2.35zM45.68 51.51a1.72 1.72 0 0 0-.95 2.27 1.78 1.78 0 0 0 2.29 1 1.73 1.73 0 0 0 .98-2.33 1.71 1.71 0 0 0-2.32-.94zM22.44 45.26A2.48 2.48 0 0 0 23.86 42a2.43 2.43 0 0 0-3.21-1.39 2.49 2.49 0 0 0 1.8 4.65zM20.54 37.64a1.94 1.94 0 0 0 .07-3.87 1.93 1.93 0 0 0-2 1.88 2 2 0 0 0 1.93 1.99zM21.62 30.4a1.64 1.64 0 0 0 1.27-3 1.62 1.62 0 0 0-2.12.89 1.65 1.65 0 0 0 .85 2.11zM58 31.44a2.49 2.49 0 0 0-1.79-4.66A2.49 2.49 0 1 0 58 31.44zM58 38.29a1.94 1.94 0 0 0 .07-3.89 2 2 0 0 0-2 1.9A2 2 0 0 0 58 38.29zM55.74 44.62a1.62 1.62 0 1 0 1.26-3 1.55 1.55 0 0 0-2.09.86 1.59 1.59 0 0 0 .83 2.14zM25.14 24.07a1.59 1.59 0 0 0 2.31 0 1.61 1.61 0 0 0 0-2.27 1.62 1.62 0 0 0-2.3 2.28zM51.17 50.25a1.57 1.57 0 0 0 2.29 0 1.51 1.51 0 0 0 0-2.23 1.6 1.6 0 0 0-2.28 0 1.63 1.63 0 0 0-.01 2.23zM36.34 22.39a2.33 2.33 0 0 0-1.82 2.74 2.36 2.36 0 0 0 2.81 1.76 2.3 2.3 0 1 0-1-4.49zM29.56 26.18a2.22 2.22 0 1 0 3.13 0 2.24 2.24 0 0 0-3.13 0zM26.78 32.7a1.49 1.49 0 1 0 2.87.8 1.49 1.49 0 0 0-2.87-.8zM41.43 45.28A2.32 2.32 0 1 0 44.24 47a2.37 2.37 0 0 0-2.81-1.72zM46.09 42.84a2.29 2.29 0 0 0 0 3.18 2.22 2.22 0 0 0 3.14-3.15 2.24 2.24 0 0 0-3.14-.03zM49.12 38.67a1.49 1.49 0 0 0 1 1.84A1.53 1.53 0 0 0 52 39.45a1.5 1.5 0 0 0-2.9-.78zM45.44 25.82a2 2 0 0 0-1.18-2.61A2.05 2.05 0 1 0 42.79 27a2.1 2.1 0 0 0 2.65-1.18zM37.19 47.83A2 2 0 0 0 36 45.21a2.05 2.05 0 1 0-1.46 3.84 2.08 2.08 0 0 0 2.65-1.22zM49.38 30.15a1.56 1.56 0 0 0 .27-2.15 1.58 1.58 0 0 0-2.15-.25 1.5 1.5 0 0 0-.23 2.11 1.48 1.48 0 0 0 2.11.29zM31.23 44.4a1.56 1.56 0 0 0 .28-2.15 1.59 1.59 0 0 0-2.16-.25 1.53 1.53 0 0 0 1.88 2.4zM50.77 34.85a1.12 1.12 0 0 0 .84-1.28 1.08 1.08 0 0 0-1.29-.86 1.05 1.05 0 0 0-.86 1.29 1.11 1.11 0 0 0 1.31.85zM28.57 39.49a1.12 1.12 0 0 0 .84-1.28 1.08 1.08 0 0 0-1.29-.85 1 1 0 0 0-.85 1.24 1.1 1.1 0 0 0 1.3.89zM122.65 27.34h-7.22v20.78a.73.73 0 0 1-.73.72h-3.58a.73.73 0 0 1-.72-.72V27.34h-7.23a.67.67 0 0 1-.73-.65v-2.86a.7.7 0 0 1 .73-.69h19.47a.69.69 0 0 1 .72.69v2.86a.67.67 0 0 1-.71.65zM149.48 48.12V23.83a.7.7 0 0 0-.72-.69h-3.58a.7.7 0 0 0-.73.69v9.4H133v-9.4a.69.69 0 0 0-.72-.69h-3.58a.69.69 0 0 0-.73.69v24.29a.73.73 0 0 0 .73.72h3.58a.73.73 0 0 0 .72-.72V37.64h11.46v10.48a.73.73 0 0 0 .73.72h3.58a.73.73 0 0 0 .71-.72zM166.69 22.85c-6 0-11.5 3.33-11.5 11.29v3.7c0 8 5.53 11.29 11.5 11.29s11.5-3.33 11.5-11.29v-3.7c.01-7.96-5.52-11.29-11.5-11.29zm6.43 15c0 4.78-2.88 6.91-6.43 6.91s-6.43-2.13-6.43-6.91v-3.7c0-4.77 2.89-6.91 6.43-6.91s6.43 2.14 6.43 6.91zM210 48.3V24.59a1.45 1.45 0 0 0-1.45-1.45h-3a1.52 1.52 0 0 0-1.34.87l-6.91 14.13c-.19.33-.26.51-.4.51s-.23-.18-.4-.51L189.55 24a1.52 1.52 0 0 0-1.34-.87h-3a1.45 1.45 0 0 0-1.45 1.45V48.3a.56.56 0 0 0 .62.54h3.65a.69.69 0 0 0 .58-.72V32.47c0-.25 0-.36.11-.36s.11.11.18.21l5.88 12.94a1.3 1.3 0 0 0 1.15.62h1.88a1.3 1.3 0 0 0 1.15-.62l5.84-12.94c.08-.11.15-.21.18-.21s.12.11.12.36v15.65c0 .36.25.72.57.72h3.66a.56.56 0 0 0 .67-.54zM290.3 47.4V23.83a.67.67 0 0 0-.69-.69h-3.11a.66.66 0 0 0-.69.69v17.85c0 .21-.1.33-.18.33s-.22-.11-.29-.29l-10.2-17.42c-.44-.95-.83-1.16-1.59-1.16h-3.91a1.44 1.44 0 0 0-1.44 1.45v23.53a.72.72 0 0 0 .72.72H272a.7.7 0 0 0 .69-.72v-17c0-.21.08-.29.18-.29s.22.08.32.29L283 47.54a1.93 1.93 0 0 0 2.2 1.3h3.66a1.45 1.45 0 0 0 1.44-1.44zM235 41.58c0-3.47-2-5.27-5-6.5-2.4-1-4.52-1.79-6.12-2.42s-3-1.73-3-2.92c0-1.63 2-2.57 4.69-2.57a77 77 0 0 1 8 .66h.07a.62.62 0 0 0 .61-.65V24.5a.73.73 0 0 0-.65-.68 35.63 35.63 0 0 0-7.83-1c-6.73 0-9.94 2.89-9.94 6.88a6.47 6.47 0 0 0 4.27 6.33c3.16 1.3 9.63 2.81 9.63 5.52 0 2.1-1 3.25-4.2 3.25a65.7 65.7 0 0 1-8.18-.65h-.07a.69.69 0 0 0-.69.69v2.61a.77.77 0 0 0 .69.72 39.4 39.4 0 0 0 8.18 1c7.29-.02 9.54-3.93 9.54-7.59zM251.09 22.85c-6 0-11.5 3.33-11.5 11.29v3.7c0 8 5.53 11.29 11.5 11.29s11.5-3.33 11.5-11.29v-3.7c-.01-7.96-5.53-11.29-11.5-11.29zm6.43 15c0 4.78-2.89 6.91-6.43 6.91s-6.43-2.13-6.43-6.91v-3.7c0-4.77 2.89-6.91 6.43-6.91s6.43 2.14 6.43 6.91zM328.19 48.12l-5.68-9.68a7 7 0 0 0 4.88-7.08V31c0-6.18-5.15-8.18-10.72-8.18a74.4 74.4 0 0 0-8.57.47c-.73.11-1.16.36-1.16 1.08v23.75a.73.73 0 0 0 .72.72h3.62a.7.7 0 0 0 .69-.72V39.2c.83 0 3.76.15 4.7.15h.8l5.21 8.77c.18.36.33.72.72.72h4.42a.4.4 0 0 0 .43-.43.47.47 0 0 0-.06-.29zm-5.79-16.76c0 3.18-2 3.9-5.72 3.9-.62 0-4.13-.07-4.7-.11V27.3c.65-.07 3.94-.15 4.7-.15 3.62 0 5.72 1.16 5.72 3.87zM337.91 37.64h11.58a.73.73 0 0 0 .73-.72v-2.61a.73.73 0 0 0-.73-.72h-11.58v-3.32c0-3 .12-3.11 2.85-3.11h9.16a.73.73 0 0 0 .73-.73v-2.31c0-.51-.18-.69-.73-.76a49.21 49.21 0 0 0-7.82-.5c-6 0-9.19 0-9.19 7.41v11.45c0 7.46 3.19 7.42 9.19 7.42a48.33 48.33 0 0 0 7.82-.51c.54-.07.73-.25.73-.76v-2.32a.73.73 0 0 0-.73-.72h-9.16c-2.74 0-2.85-.08-2.85-3.11zM377.74 38.89V23.83a.69.69 0 0 0-.73-.69h-3.58a.69.69 0 0 0-.72.69v15.06c0 4.13-1.9 6.08-5.81 6.08s-5.81-2-5.81-6.08V23.83a.69.69 0 0 0-.73-.69h-3.57a.7.7 0 0 0-.73.69v15.06c0 7.71 5 10.24 10.84 10.24s10.84-2.53 10.84-10.24zM402.25 26.69v-2.86a.69.69 0 0 0-.72-.69h-19.48a.69.69 0 0 0-.72.69v2.86a.66.66 0 0 0 .72.65h7.22v20.78a.73.73 0 0 0 .72.72h3.58a.73.73 0 0 0 .73-.72V27.34h7.22a.66.66 0 0 0 .73-.65zM451 48.12l-5.69-9.68a7 7 0 0 0 4.89-7.08V31c0-6.18-5.14-8.18-10.72-8.18a74.35 74.35 0 0 0-8.57.47c-.72.11-1.16.36-1.16 1.08v23.75a.73.73 0 0 0 .73.72h3.62a.69.69 0 0 0 .68-.72V39.2c.84 0 3.76.15 4.7.15h.81l5.22 8.77c.18.36.32.72.72.72h4.42a.4.4 0 0 0 .43-.43.48.48 0 0 0-.08-.29zm-5.79-16.76c0 3.18-2 3.9-5.73 3.9-.61 0-4.12-.07-4.7-.11V27.3c.65-.07 3.94-.15 4.7-.15 3.62 0 5.73 1.16 5.73 3.87zM474 41.58c0-3.47-2-5.27-5-6.5-2.41-1-4.51-1.79-6.12-2.42s-3-1.73-3-2.92c0-1.63 2-2.57 4.69-2.57a77 77 0 0 1 8 .66h.07a.62.62 0 0 0 .62-.65V24.5a.73.73 0 0 0-.65-.68 35.7 35.7 0 0 0-7.84-1c-6.73 0-9.93 2.89-9.93 6.88a6.48 6.48 0 0 0 4.26 6.33c3.16 1.3 9.64 2.81 9.64 5.52 0 2.1-1 3.25-4.2 3.25a65.7 65.7 0 0 1-8.18-.65h-.07a.69.69 0 0 0-.69.69v2.61a.77.77 0 0 0 .69.72 39.3 39.3 0 0 0 8.18 1c7.25-.02 9.53-3.93 9.53-7.59zM411 37.64h11.58a.72.72 0 0 0 .72-.72v-2.61a.72.72 0 0 0-.72-.72H411v-3.32c0-3 .11-3.11 2.86-3.11H423a.73.73 0 0 0 .72-.73v-2.31c0-.51-.18-.69-.72-.76a49.31 49.31 0 0 0-7.82-.5c-6 0-9.2 0-9.2 7.41v11.45c0 7.46 3.18 7.42 9.2 7.42a48.43 48.43 0 0 0 7.82-.51c.54-.07.72-.25.72-.76v-2.32a.73.73 0 0 0-.72-.72h-9.17c-2.74 0-2.86-.08-2.86-3.11z"/></g></g></svg>